<svg width="216" height="191" viewBox="0 0 216 191" fill="none" xmlns="http://www.w3.org/2000/svg">
<g filter="url(#filter0_d_138_9313)">
<path d="M90.0843 87.8101L146.59 137.959L203.803 140.549L146.59 92.048L90.0843 87.8101Z" fill="#1B8184"/>
<path d="M41.1124 112.767L75.9578 142.433H126.578L95.0286 115.828L41.1124 112.767Z" fill="#1B8184"/>
<path d="M5.08986 142.903H12.3886L37.3454 124.068L61.8313 140.549L34.7555 117.005L5.08986 142.903Z" fill="white"/>
<path d="M65.5984 109.942L83.492 92.5189L109.861 115.592L88.2008 100.053L75.9578 109.942H65.5984Z" fill="white"/>
<path d="M2.5 138.195V69.4456H18.8735V102.407H22.2771V51.552H27.2214V45.666H31.6948V38.8382H41.3479V45.666H45.3504V51.552H51.4719V91.1063H58.5351V68.033L72.6616 54.3774L87.259 67.0912V82.8105H83.0211L57.1225 108.294H33.5783L2.5 138.195Z" fill="white"/>
<path d="M157.892 95.8151V71.8L179.552 58.1444V97.2277H185.674V82.1595H204.98V135.84L157.892 95.8151Z" fill="white"/>
<path d="M31.2239 131.602V137.017H36.4036V131.602H31.2239Z" fill="#EA5D01"/>
<path d="M31.2239 137.724V143.374H36.4036V137.724H31.2239Z" fill="#EA5D01"/>
<path d="M37.3454 131.602V137.017H42.5251V131.602H37.3454Z" fill="#EA5D01"/>
<path d="M37.3454 137.724V143.374H42.5251V137.724H37.3454Z" fill="#EA5D01"/>
</g>
<g filter="url(#filter1_d_138_9313)">
<path d="M46.0568 42.6053H49.5884V48.2559H55.7099V66.0212L72.4262 49.5402L91.497 66.8558V82.6304L147.768 88.6236L154.595 94.5096V69.4456L178.375 54.4845C178.375 54.4845 170.408 37.9583 162.13 28.4788C152.803 17.7995 145.374 12.9195 131.993 8.23078C122.077 4.75632 115.882 3.70048 105.388 4.22827C93.7579 4.81324 86.992 6.85377 76.6642 12.2333C69.0799 16.1838 65.0683 19.1513 59.0061 25.1826C52.9963 31.1617 46.0568 42.6053 46.0568 42.6053Z" fill="#EA5D01"/>
</g>
<path d="M78.4839 170.442V148.377H86.7196C89.1437 148.377 91.1638 148.874 92.7799 149.869C94.4167 150.842 95.6495 152.168 96.4782 153.847C97.307 155.504 97.7214 157.348 97.7214 159.378C97.7214 161.616 97.2655 163.564 96.3539 165.221C95.4423 166.879 94.1577 168.163 92.5002 169.075C90.8634 169.987 88.9366 170.442 86.7196 170.442H78.4839ZM92.5313 159.378C92.5313 158.094 92.3034 156.965 91.8476 155.991C91.3917 154.996 90.7287 154.23 89.8585 153.691C88.9884 153.132 87.942 152.852 86.7196 152.852H83.5807V165.967H86.7196C87.9628 165.967 89.0091 165.687 89.8585 165.128C90.7287 164.548 91.3917 163.761 91.8476 162.766C92.3034 161.751 92.5313 160.622 92.5313 159.378Z" fill="white"/>
<path d="M68.2341 170.442V148.377H73.331V170.442H68.2341Z" fill="white"/>
<path d="M49.1222 170.442V148.377H54.219V165.967H64.91V170.442H49.1222Z" fill="white"/>
<path d="M34.243 170.629C32.5855 170.629 31.0834 170.318 29.7367 169.696C28.4107 169.054 27.2608 168.205 26.287 167.148C25.3339 166.071 24.5984 164.869 24.0804 163.543C23.5625 162.196 23.3035 160.808 23.3035 159.378C23.3035 157.907 23.5728 156.509 24.1115 155.183C24.6709 153.857 25.4375 152.676 26.4113 151.64C27.4058 150.583 28.5764 149.755 29.9231 149.154C31.2699 148.553 32.7409 148.252 34.3363 148.252C35.9731 148.252 37.4545 148.574 38.7805 149.216C40.1272 149.837 41.2771 150.687 42.2302 151.764C43.2039 152.842 43.9498 154.054 44.4678 155.4C44.9858 156.726 45.2448 158.084 45.2448 159.472C45.2448 160.943 44.9754 162.341 44.4367 163.667C43.898 164.993 43.1314 166.185 42.1369 167.241C41.1424 168.277 39.9718 169.106 38.6251 169.728C37.2991 170.328 35.8384 170.629 34.243 170.629ZM28.4935 159.441C28.4935 160.29 28.6179 161.119 28.8665 161.927C29.1151 162.714 29.4777 163.419 29.9542 164.04C30.4515 164.662 31.0627 165.159 31.7878 165.532C32.513 165.905 33.3418 166.091 34.2741 166.091C35.2479 166.091 36.0974 165.905 36.8225 165.532C37.5477 165.138 38.1485 164.62 38.6251 163.978C39.1016 163.336 39.4538 162.621 39.6817 161.834C39.9304 161.026 40.0547 160.207 40.0547 159.378C40.0547 158.529 39.9304 157.711 39.6817 156.923C39.4331 156.136 39.0602 155.432 38.5629 154.81C38.0657 154.168 37.4545 153.67 36.7293 153.318C36.0041 152.966 35.1857 152.79 34.2741 152.79C33.3003 152.79 32.4508 152.976 31.7257 153.349C31.0212 153.722 30.4204 154.23 29.9231 154.872C29.4466 155.494 29.084 156.208 28.8354 157.017C28.6075 157.804 28.4935 158.612 28.4935 159.441Z" fill="white"/>
<path d="M17.7642 154.841C17.7021 154.737 17.4845 154.582 17.1116 154.375C16.7386 154.147 16.2725 153.909 15.7131 153.66C15.1536 153.411 14.5424 153.194 13.8794 153.007C13.2164 152.821 12.5534 152.728 11.8904 152.728C11.0202 152.728 10.3469 152.883 9.87033 153.194C9.3938 153.484 9.15553 153.94 9.15553 154.561C9.15553 155.059 9.33164 155.452 9.68386 155.742C10.0568 156.032 10.5851 156.291 11.2689 156.519C11.9526 156.726 12.7917 156.975 13.7862 157.265C15.1951 157.638 16.4175 158.094 17.4534 158.633C18.4894 159.151 19.2767 159.824 19.8154 160.653C20.3748 161.481 20.6545 162.58 20.6545 163.947C20.6545 165.19 20.4266 166.247 19.9708 167.117C19.515 167.966 18.8934 168.661 18.1061 169.199C17.3395 169.717 16.4589 170.101 15.4644 170.349C14.4699 170.577 13.4443 170.691 12.3877 170.691C11.3103 170.691 10.2018 170.587 9.0623 170.38C7.94348 170.152 6.8661 169.842 5.83015 169.448C4.79421 169.033 3.84114 168.536 2.97095 167.956L5.20859 163.512C5.29146 163.616 5.56081 163.812 6.01662 164.102C6.47244 164.372 7.03185 164.662 7.69485 164.973C8.37857 165.263 9.13481 165.522 9.96357 165.75C10.7923 165.977 11.6314 166.091 12.4809 166.091C13.3925 166.091 14.0659 165.946 14.501 165.656C14.9568 165.366 15.1847 164.962 15.1847 164.444C15.1847 163.885 14.9465 163.45 14.4699 163.139C14.0141 162.828 13.3822 162.548 12.5741 162.3C11.7868 162.051 10.8752 161.772 9.83925 161.461C8.49253 161.046 7.37371 160.58 6.4828 160.062C5.6126 159.544 4.95996 158.912 4.52486 158.166C4.11049 157.421 3.9033 156.488 3.9033 155.369C3.9033 153.815 4.26588 152.51 4.99104 151.454C5.73692 150.376 6.73142 149.568 7.97456 149.029C9.21769 148.47 10.5748 148.19 12.0458 148.19C13.0818 148.19 14.0763 148.315 15.0293 148.563C16.0031 148.812 16.9044 149.123 17.7331 149.496C18.5826 149.869 19.3389 150.241 20.0019 150.614L17.7642 154.841Z" fill="white"/>
<path d="M199.483 165.967V170.442H183.975V148.377H199.203V152.852H189.072V157.141H197.774V161.274H189.072V165.967H199.483Z" fill="white"/>
<path d="M173.708 170.442V157.296L168.953 166.868H166.156L161.401 157.296V170.442H156.305V148.377H161.837L167.555 159.907L173.304 148.377H178.805V170.442H173.708Z" fill="white"/>
<path d="M141.425 170.629C139.768 170.629 138.266 170.318 136.919 169.696C135.593 169.054 134.443 168.205 133.469 167.148C132.516 166.071 131.781 164.869 131.263 163.543C130.745 162.196 130.486 160.808 130.486 159.378C130.486 157.907 130.755 156.509 131.294 155.183C131.853 153.857 132.62 152.676 133.594 151.64C134.588 150.583 135.759 149.755 137.105 149.154C138.452 148.553 139.923 148.252 141.519 148.252C143.155 148.252 144.637 148.574 145.963 149.216C147.309 149.837 148.459 150.687 149.412 151.764C150.386 152.842 151.132 154.054 151.65 155.4C152.168 156.726 152.427 158.084 152.427 159.472C152.427 160.943 152.158 162.341 151.619 163.667C151.08 164.993 150.314 166.185 149.319 167.241C148.325 168.277 147.154 169.106 145.807 169.728C144.481 170.328 143.021 170.629 141.425 170.629ZM135.676 159.441C135.676 160.29 135.8 161.119 136.049 161.927C136.297 162.714 136.66 163.419 137.136 164.04C137.634 164.662 138.245 165.159 138.97 165.532C139.695 165.905 140.524 166.091 141.456 166.091C142.43 166.091 143.28 165.905 144.005 165.532C144.73 165.138 145.331 164.62 145.807 163.978C146.284 163.336 146.636 162.621 146.864 161.834C147.113 161.026 147.237 160.207 147.237 159.378C147.237 158.529 147.113 157.711 146.864 156.923C146.615 156.136 146.242 155.432 145.745 154.81C145.248 154.168 144.637 153.67 143.912 153.318C143.186 152.966 142.368 152.79 141.456 152.79C140.483 152.79 139.633 152.976 138.908 153.349C138.203 153.722 137.603 154.23 137.105 154.872C136.629 155.494 136.266 156.208 136.018 157.017C135.79 157.804 135.676 158.612 135.676 159.441Z" fill="white"/>
<path d="M126.599 148.377V170.442H121.502V161.399H112.707V170.442H107.61V148.377H112.707V156.923H121.502V148.377H126.599Z" fill="white"/>
<path d="M180.201 190.882V188.954H181.572V190.882H180.201Z" fill="white"/>
<path d="M169.207 185.458C169.207 184.805 169.322 184.167 169.553 183.544C169.784 182.911 170.121 182.339 170.563 181.826C171.015 181.304 171.562 180.892 172.205 180.591C172.848 180.279 173.577 180.124 174.39 180.124C175.355 180.124 176.188 180.345 176.892 180.787C177.595 181.219 178.117 181.776 178.459 182.459L177.133 183.348C176.932 182.916 176.676 182.575 176.364 182.324C176.063 182.073 175.731 181.897 175.37 181.796C175.018 181.696 174.672 181.646 174.33 181.646C173.767 181.646 173.275 181.761 172.853 181.992C172.431 182.213 172.075 182.51 171.783 182.881C171.502 183.253 171.286 183.67 171.136 184.132C170.995 184.594 170.925 185.056 170.925 185.518C170.925 186.03 171.01 186.528 171.181 187.01C171.352 187.482 171.588 187.904 171.889 188.276C172.2 188.637 172.567 188.924 172.989 189.135C173.411 189.346 173.873 189.451 174.375 189.451C174.717 189.451 175.073 189.391 175.445 189.27C175.817 189.15 176.158 188.964 176.47 188.713C176.791 188.451 177.042 188.11 177.223 187.688L178.624 188.487C178.403 189.019 178.057 189.471 177.585 189.843C177.123 190.214 176.6 190.496 176.018 190.687C175.445 190.877 174.877 190.973 174.315 190.973C173.562 190.973 172.873 190.817 172.251 190.506C171.628 190.184 171.09 189.762 170.638 189.24C170.186 188.708 169.835 188.115 169.584 187.462C169.332 186.799 169.207 186.131 169.207 185.458Z" fill="white"/>
<path d="M159.72 183.318V190.882H158.032V180.184H159.419L165.476 187.914V180.199H167.179V190.882H165.702L159.72 183.318Z" fill="white"/>
<path d="M153.625 190.882V180.184H155.313V190.882H153.625Z" fill="white"/>
<path d="M139.436 183.318V190.882H137.748V180.184H139.135L145.192 187.914V180.199H146.895V190.882H145.418L139.436 183.318Z" fill="white"/>
<path d="M130.561 190.958C129.788 190.958 129.09 190.807 128.467 190.506C127.844 190.204 127.307 189.798 126.855 189.285C126.403 188.763 126.051 188.18 125.8 187.537C125.559 186.884 125.438 186.216 125.438 185.533C125.438 184.82 125.569 184.142 125.83 183.499C126.091 182.846 126.453 182.268 126.915 181.766C127.377 181.254 127.919 180.852 128.542 180.561C129.175 180.259 129.858 180.109 130.592 180.109C131.355 180.109 132.048 180.264 132.671 180.576C133.304 180.887 133.841 181.304 134.283 181.826C134.735 182.349 135.082 182.931 135.323 183.574C135.574 184.217 135.7 184.875 135.7 185.548C135.7 186.262 135.569 186.945 135.308 187.598C135.057 188.24 134.7 188.818 134.238 189.33C133.776 189.833 133.229 190.229 132.596 190.521C131.973 190.812 131.295 190.958 130.561 190.958ZM127.156 185.533C127.156 186.035 127.236 186.523 127.397 186.995C127.558 187.467 127.784 187.889 128.075 188.261C128.377 188.622 128.738 188.909 129.16 189.119C129.582 189.33 130.054 189.436 130.577 189.436C131.119 189.436 131.601 189.325 132.023 189.104C132.445 188.883 132.797 188.587 133.078 188.215C133.369 187.834 133.59 187.412 133.741 186.95C133.892 186.477 133.967 186.005 133.967 185.533C133.967 185.031 133.887 184.549 133.726 184.087C133.575 183.615 133.349 183.198 133.048 182.836C132.746 182.464 132.385 182.173 131.963 181.962C131.551 181.751 131.089 181.646 130.577 181.646C130.034 181.646 129.552 181.756 129.13 181.977C128.708 182.198 128.351 182.494 128.06 182.866C127.769 183.238 127.543 183.655 127.382 184.117C127.231 184.579 127.156 185.051 127.156 185.533Z" fill="white"/>
<path d="M121.709 190.882V180.184H123.397V190.882H121.709Z" fill="white"/>
<path d="M119.973 181.676H116.417V190.882H114.714V181.676H111.143V180.184H119.973V181.676Z" fill="white"/>
<path d="M100.843 185.458C100.843 184.805 100.958 184.167 101.189 183.544C101.42 182.911 101.757 182.339 102.199 181.826C102.651 181.304 103.198 180.892 103.841 180.591C104.484 180.279 105.213 180.124 106.026 180.124C106.991 180.124 107.824 180.345 108.528 180.787C109.231 181.219 109.753 181.776 110.095 182.459L108.769 183.348C108.568 182.916 108.312 182.575 108 182.324C107.699 182.073 107.367 181.897 107.006 181.796C106.654 181.696 106.308 181.646 105.966 181.646C105.403 181.646 104.911 181.761 104.489 181.992C104.067 182.213 103.711 182.51 103.419 182.881C103.138 183.253 102.922 183.67 102.772 184.132C102.631 184.594 102.561 185.056 102.561 185.518C102.561 186.03 102.646 186.528 102.817 187.01C102.987 187.482 103.224 187.904 103.525 188.276C103.836 188.637 104.203 188.924 104.625 189.135C105.047 189.346 105.509 189.451 106.011 189.451C106.353 189.451 106.709 189.391 107.081 189.27C107.453 189.15 107.794 188.964 108.106 188.713C108.427 188.451 108.678 188.11 108.859 187.688L110.26 188.487C110.039 189.019 109.693 189.471 109.221 189.843C108.759 190.214 108.236 190.496 107.654 190.687C107.081 190.877 106.513 190.973 105.951 190.973C105.198 190.973 104.509 190.817 103.887 190.506C103.264 190.184 102.726 189.762 102.274 189.24C101.822 188.708 101.471 188.115 101.219 187.462C100.968 186.799 100.843 186.131 100.843 185.458Z" fill="white"/>
<path d="M94.349 190.958C93.4952 190.958 92.7719 190.812 92.1792 190.521C91.5966 190.23 91.1244 189.833 90.7628 189.33C90.4112 188.828 90.15 188.256 89.9792 187.613C89.8185 186.97 89.7382 186.302 89.7382 185.609V180.184H91.4258V185.609C91.4258 186.101 91.476 186.578 91.5765 187.04C91.6769 187.492 91.8377 187.899 92.0587 188.261C92.2797 188.622 92.576 188.909 92.9477 189.12C93.3294 189.33 93.7965 189.436 94.349 189.436C94.9116 189.436 95.3787 189.33 95.7504 189.12C96.1321 188.899 96.4285 188.607 96.6394 188.246C96.8604 187.874 97.0212 187.462 97.1216 187.01C97.2221 186.558 97.2723 186.091 97.2723 185.609V180.184H98.975V185.609C98.975 186.342 98.8846 187.035 98.7038 187.688C98.533 188.331 98.2618 188.899 97.8901 189.391C97.5285 189.873 97.0563 190.255 96.4737 190.536C95.891 190.817 95.1828 190.958 94.349 190.958Z" fill="white"/>
<path d="M79.6401 190.882V180.184H84.2962C84.7784 180.184 85.2204 180.284 85.6222 180.485C86.0241 180.686 86.3706 180.953 86.662 181.284C86.9633 181.616 87.1944 181.987 87.3551 182.399C87.5259 182.811 87.6113 183.233 87.6113 183.665C87.6113 184.137 87.5259 184.589 87.3551 185.021C87.1843 185.453 86.9382 185.825 86.6168 186.136C86.3053 186.447 85.9387 186.673 85.5168 186.814L88.0332 190.882H86.1346L83.814 187.161H81.3278V190.882H79.6401ZM81.3278 185.669H84.2812C84.5926 185.669 84.8688 185.578 85.1099 185.398C85.351 185.217 85.5419 184.976 85.6825 184.674C85.8232 184.363 85.8935 184.026 85.8935 183.665C85.8935 183.293 85.8131 182.962 85.6524 182.67C85.4917 182.369 85.2807 182.128 85.0195 181.947C84.7684 181.766 84.4921 181.676 84.1908 181.676H81.3278V185.669Z" fill="white"/>
<path d="M77.9041 181.676H74.348V190.882H72.6453V181.676H69.0741V180.184H77.9041V181.676Z" fill="white"/>
<path d="M66.8692 182.7C66.7687 182.59 66.6231 182.474 66.4322 182.354C66.2413 182.223 66.0153 182.103 65.7541 181.992C65.4929 181.882 65.2117 181.791 64.9103 181.721C64.6089 181.651 64.2975 181.615 63.9761 181.615C63.2729 181.615 62.7505 181.746 62.409 182.007C62.0674 182.268 61.8966 182.63 61.8966 183.092C61.8966 183.434 61.9921 183.705 62.1829 183.906C62.3738 184.097 62.6651 184.257 63.0569 184.388C63.4487 184.519 63.9409 184.659 64.5336 184.81C65.2569 184.981 65.8847 185.187 66.4171 185.428C66.9495 185.659 67.3564 185.97 67.6377 186.362C67.9189 186.754 68.0596 187.271 68.0596 187.914C68.0596 188.456 67.9591 188.924 67.7582 189.315C67.5573 189.707 67.276 190.029 66.9144 190.28C66.5527 190.521 66.1358 190.702 65.6637 190.822C65.1916 190.933 64.6843 190.988 64.1418 190.988C63.6094 190.988 63.077 190.933 62.5446 190.822C62.0222 190.712 61.5199 190.551 61.0377 190.34C60.5656 190.119 60.1286 189.853 59.7268 189.541L60.4953 188.095C60.6259 188.225 60.8117 188.371 61.0528 188.532C61.304 188.682 61.5902 188.828 61.9117 188.969C62.2432 189.109 62.5998 189.23 62.9816 189.33C63.3733 189.421 63.7701 189.466 64.1719 189.466C64.845 189.466 65.3573 189.351 65.7089 189.119C66.0705 188.878 66.2514 188.537 66.2514 188.095C66.2514 187.733 66.1358 187.447 65.9048 187.236C65.6737 187.015 65.3372 186.829 64.8952 186.678C64.4532 186.528 63.9258 186.377 63.3131 186.226C62.6099 186.035 62.0222 185.83 61.5501 185.609C61.0779 185.378 60.7213 185.086 60.4802 184.735C60.2492 184.373 60.1336 183.916 60.1336 183.363C60.1336 182.66 60.3044 182.068 60.646 181.585C60.9875 181.093 61.4496 180.726 62.0323 180.485C62.6249 180.234 63.2879 180.109 64.0213 180.109C64.5034 180.109 64.9605 180.164 65.3925 180.274C65.8244 180.375 66.2263 180.515 66.5979 180.696C66.9797 180.877 67.3262 181.083 67.6377 181.314L66.8692 182.7Z" fill="white"/>
<path d="M50.3754 183.318V190.882H48.6877V180.184H50.074L56.1315 187.914V180.199H57.8342V190.882H56.3575L50.3754 183.318Z" fill="white"/>
<path d="M41.5009 190.958C40.7274 190.958 40.0292 190.807 39.4064 190.506C38.7836 190.204 38.2461 189.798 37.7941 189.285C37.3421 188.763 36.9905 188.18 36.7393 187.537C36.4982 186.884 36.3777 186.216 36.3777 185.533C36.3777 184.82 36.5083 184.142 36.7695 183.499C37.0306 182.846 37.3923 182.268 37.8544 181.766C38.3165 181.254 38.8589 180.852 39.4817 180.561C40.1146 180.259 40.7977 180.109 41.531 180.109C42.2945 180.109 42.9876 180.264 43.6105 180.576C44.2433 180.887 44.7808 181.304 45.2228 181.826C45.6748 182.349 46.0214 182.931 46.2625 183.574C46.5136 184.217 46.6392 184.875 46.6392 185.548C46.6392 186.262 46.5086 186.945 46.2474 187.598C45.9963 188.24 45.6396 188.818 45.1776 189.33C44.7155 189.833 44.168 190.229 43.5351 190.521C42.9123 190.812 42.2342 190.958 41.5009 190.958ZM38.0955 185.533C38.0955 186.035 38.1758 186.523 38.3366 186.995C38.4973 187.467 38.7233 187.889 39.0146 188.261C39.316 188.622 39.6776 188.909 40.0995 189.119C40.5215 189.33 40.9936 189.436 41.516 189.436C42.0584 189.436 42.5406 189.325 42.9625 189.104C43.3844 188.883 43.736 188.587 44.0173 188.215C44.3086 187.834 44.5296 187.412 44.6803 186.95C44.831 186.477 44.9063 186.005 44.9063 185.533C44.9063 185.031 44.826 184.549 44.6652 184.087C44.5146 183.615 44.2885 183.198 43.9872 182.836C43.6858 182.464 43.3242 182.173 42.9022 181.962C42.4904 181.751 42.0283 181.646 41.516 181.646C40.9735 181.646 40.4913 181.756 40.0694 181.977C39.6475 182.198 39.2909 182.494 38.9996 182.866C38.7082 183.238 38.4822 183.655 38.3215 184.117C38.1708 184.579 38.0955 185.051 38.0955 185.533Z" fill="white"/>
<path d="M25.9082 185.458C25.9082 184.805 26.0237 184.167 26.2548 183.544C26.4858 182.911 26.8223 182.339 27.2643 181.826C27.7164 181.304 28.2639 180.892 28.9068 180.591C29.5497 180.279 30.278 180.124 31.0917 180.124C32.0561 180.124 32.8898 180.345 33.593 180.787C34.2962 181.219 34.8186 181.776 35.1601 182.459L33.8341 183.348C33.6332 182.916 33.377 182.575 33.0656 182.324C32.7643 182.073 32.4328 181.897 32.0711 181.796C31.7195 181.696 31.373 181.646 31.0314 181.646C30.4689 181.646 29.9766 181.761 29.5547 181.992C29.1328 182.213 28.7762 182.51 28.4849 182.881C28.2036 183.253 27.9876 183.67 27.8369 184.132C27.6963 184.594 27.626 185.056 27.626 185.518C27.626 186.03 27.7114 186.528 27.8821 187.01C28.0529 187.482 28.289 187.904 28.5904 188.276C28.9018 188.637 29.2684 188.924 29.6903 189.135C30.1123 189.346 30.5743 189.451 31.0766 189.451C31.4182 189.451 31.7748 189.391 32.1465 189.27C32.5182 189.15 32.8597 188.964 33.1711 188.713C33.4926 188.451 33.7437 188.11 33.9245 187.688L35.3259 188.487C35.1049 189.019 34.7583 189.471 34.2862 189.843C33.8241 190.214 33.3017 190.496 32.7191 190.687C32.1465 190.877 31.5789 190.973 31.0163 190.973C30.2629 190.973 29.5748 190.817 28.952 190.506C28.3292 190.184 27.7917 189.762 27.3397 189.24C26.8876 188.708 26.536 188.115 26.2849 187.462C26.0338 186.799 25.9082 186.131 25.9082 185.458Z" fill="white"/>
<defs>
<filter id="filter0_d_138_9313" x="0" y="36.3382" width="215.48" height="117.536" filterUnits="userSpaceOnUse" color-interpolation-filters="sRGB">
<feFlood flood-opacity="0" result="BackgroundImageFix"/>
<feColorMatrix in="SourceAlpha" type="matrix" values="0 0 0 0 0 0 0 0 0 0 0 0 0 0 0 0 0 0 127 0" result="hardAlpha"/>
<feOffset dx="4" dy="4"/>
<feGaussianBlur stdDeviation="3.25"/>
<feComposite in2="hardAlpha" operator="out"/>
<feColorMatrix type="matrix" values="0 0 0 0 0.0627451 0 0 0 0 0.0823529 0 0 0 0 0.0941176 0 0 0 0.15 0"/>
<feBlend mode="normal" in2="BackgroundImageFix" result="effect1_dropShadow_138_9313"/>
<feBlend mode="normal" in="SourceGraphic" in2="effect1_dropShadow_138_9313" result="shape"/>
</filter>
<filter id="filter1_d_138_9313" x="41.9568" y="-2.47955e-05" width="148.518" height="106.61" filterUnits="userSpaceOnUse" color-interpolation-filters="sRGB">
<feFlood flood-opacity="0" result="BackgroundImageFix"/>
<feColorMatrix in="SourceAlpha" type="matrix" values="0 0 0 0 0 0 0 0 0 0 0 0 0 0 0 0 0 0 127 0" result="hardAlpha"/>
<feOffset dx="4" dy="4"/>
<feGaussianBlur stdDeviation="4.05"/>
<feComposite in2="hardAlpha" operator="out"/>
<feColorMatrix type="matrix" values="0 0 0 0 0.0627451 0 0 0 0 0.0823529 0 0 0 0 0.0941176 0 0 0 0.15 0"/>
<feBlend mode="normal" in2="BackgroundImageFix" result="effect1_dropShadow_138_9313"/>
<feBlend mode="normal" in="SourceGraphic" in2="effect1_dropShadow_138_9313" result="shape"/>
</filter>
</defs>
</svg>
