<svg width="293" height="92" viewBox="0 0 293 92" fill="none" xmlns="http://www.w3.org/2000/svg">
<g filter="url(#filter0_d_20_190)">
<path d="M50.7935 50.6794L81.628 78.045L112.848 79.4582L81.628 52.9919L50.7935 50.6794Z" fill="#1B8184"/>
<path d="M24.0702 64.2979L43.0849 80.486H70.7074L53.4915 65.9681L24.0702 64.2979Z" fill="#1B8184"/>
<path d="M4.41325 80.743H8.39604L22.0146 70.4648L35.3762 79.4582L20.6014 66.6105L4.41325 80.743Z" fill="white"/>
<path d="M37.4319 62.7562L47.1961 53.2489L61.5856 65.8397L49.7657 57.3602L43.0849 62.7562H37.4319Z" fill="white"/>
<path d="M3 78.1735V40.6581H11.9348V58.6449H13.7921V30.8939H16.4901V27.682H18.9312V23.9561H24.1987V27.682H26.3828V30.8939H29.7232V52.478H33.5776V39.8873L41.2862 32.4356L49.2518 39.3734V47.9512H46.9392L32.8067 61.8569H19.959L3 78.1735Z" fill="white"/>
<path d="M87.7949 55.0476V41.9429L99.6148 34.4912V55.8184H102.955V47.5959H113.49V76.8887L87.7949 55.0476Z" fill="white"/>
<path d="M18.6742 74.5761V77.5311H21.5007V74.5761H18.6742Z" fill="#EA5D01"/>
<path d="M18.6742 77.9165V81H21.5007V77.9165H18.6742Z" fill="#EA5D01"/>
<path d="M22.0146 74.5761V77.5311H24.8411V74.5761H22.0146Z" fill="#EA5D01"/>
<path d="M22.0146 77.9165V81H24.8411V77.9165H22.0146Z" fill="#EA5D01"/>
</g>
<g filter="url(#filter1_d_20_190)">
<path d="M26.7679 26.0118H28.6951V29.0952H32.0355V38.7895L41.1574 29.7961L51.564 39.2449V47.8529L82.2701 51.1233L85.9959 54.3352V40.6582L98.9721 32.4941C98.9721 32.4941 94.6249 23.476 90.1072 18.3032C85.0177 12.4756 80.9639 9.8127 73.6621 7.25412C68.2513 5.35815 64.8703 4.782 59.1442 5.07001C52.7978 5.38922 49.1057 6.50271 43.47 9.43823C39.3314 11.594 37.1422 13.2133 33.8342 16.5045C30.5547 19.7672 26.7679 26.0118 26.7679 26.0118Z" fill="#EA5D01"/>
</g>
<path d="M189.08 53.3567V34.5135H196.113C198.183 34.5135 199.908 34.9382 201.288 35.7875C202.686 36.619 203.738 37.7514 204.446 39.1845C205.154 40.6 205.508 42.1747 205.508 43.9086C205.508 45.8195 205.118 47.4826 204.34 48.8981C203.561 50.3135 202.464 51.4105 201.049 52.189C199.651 52.9675 198.006 53.3567 196.113 53.3567H189.08ZM201.076 43.9086C201.076 42.8116 200.881 41.8473 200.492 41.0158C200.102 40.1665 199.536 39.5119 198.793 39.0518C198.05 38.5741 197.157 38.3353 196.113 38.3353H193.432V49.535H196.113C197.174 49.535 198.068 49.2962 198.793 48.8184C199.536 48.323 200.102 47.6507 200.492 46.8014C200.881 45.9345 201.076 44.9702 201.076 43.9086Z" fill="white"/>
<path d="M180.327 53.3567V34.5135H184.679V53.3567H180.327Z" fill="white"/>
<path d="M164.006 53.3567V34.5135H168.358V49.535H177.488V53.3567H164.006Z" fill="white"/>
<path d="M151.299 53.5161C149.884 53.5161 148.601 53.2507 147.451 52.7199C146.319 52.1714 145.337 51.446 144.505 50.5437C143.691 49.6236 143.063 48.5974 142.621 47.4651C142.178 46.315 141.957 45.1296 141.957 43.9087C141.957 42.6525 142.187 41.4582 142.647 40.3259C143.125 39.1935 143.78 38.185 144.611 37.3004C145.461 36.398 146.46 35.6903 147.61 35.1772C148.76 34.6641 150.016 34.4075 151.379 34.4075C152.777 34.4075 154.042 34.6818 155.174 35.2303C156.324 35.7611 157.306 36.4865 158.12 37.4065C158.952 38.3266 159.588 39.3616 160.031 40.5117C160.473 41.644 160.694 42.8029 160.694 43.9884C160.694 45.2446 160.464 46.4389 160.004 47.5712C159.544 48.7036 158.89 49.7209 158.04 50.6233C157.191 51.5079 156.191 52.2157 155.041 52.7465C153.909 53.2596 152.662 53.5161 151.299 53.5161ZM146.389 43.9618C146.389 44.6872 146.496 45.395 146.708 46.085C146.92 46.7573 147.23 47.3589 147.637 47.8897C148.061 48.4205 148.583 48.8451 149.203 49.1636C149.822 49.4821 150.53 49.6413 151.326 49.6413C152.157 49.6413 152.883 49.4821 153.502 49.1636C154.121 48.8274 154.634 48.3851 155.041 47.8366C155.448 47.2881 155.749 46.6777 155.944 46.0054C156.156 45.3153 156.262 44.6165 156.262 43.9087C156.262 43.1833 156.156 42.4844 155.944 41.8121C155.731 41.1398 155.413 40.5382 154.988 40.0074C154.564 39.4589 154.042 39.0343 153.422 38.7335C152.803 38.4327 152.104 38.2823 151.326 38.2823C150.494 38.2823 149.769 38.4416 149.15 38.76C148.548 39.0785 148.035 39.512 147.61 40.0605C147.203 40.5913 146.894 41.2017 146.681 41.8917C146.487 42.5641 146.389 43.2541 146.389 43.9618Z" fill="white"/>
<path d="M137.227 40.034C137.174 39.9456 136.988 39.8129 136.67 39.6359C136.351 39.4413 135.953 39.2379 135.476 39.0255C134.998 38.8132 134.476 38.6274 133.91 38.4682C133.344 38.309 132.777 38.2293 132.211 38.2293C131.468 38.2293 130.893 38.362 130.486 38.6274C130.079 38.8751 129.876 39.2644 129.876 39.7952C129.876 40.2198 130.026 40.556 130.327 40.8037C130.645 41.0514 131.097 41.2726 131.681 41.4672C132.264 41.6441 132.981 41.8564 133.83 42.1041C135.033 42.4226 136.077 42.8119 136.962 43.2719C137.847 43.7142 138.519 44.2892 138.979 44.997C139.457 45.7047 139.695 46.6424 139.695 47.8102C139.695 48.8718 139.501 49.7741 139.112 50.5172C138.722 51.2426 138.192 51.8354 137.519 52.2954C136.865 52.7377 136.113 53.065 135.263 53.2773C134.414 53.472 133.538 53.5693 132.636 53.5693C131.716 53.5693 130.769 53.4808 129.796 53.3039C128.841 53.1093 127.921 52.8439 127.036 52.5077C126.151 52.1538 125.338 51.7292 124.594 51.2338L126.505 47.4386C126.576 47.5271 126.806 47.6952 127.195 47.9429C127.585 48.1729 128.062 48.4206 128.628 48.686C129.212 48.9337 129.858 49.1548 130.566 49.3495C131.274 49.5441 131.99 49.6414 132.716 49.6414C133.494 49.6414 134.069 49.5176 134.441 49.2699C134.83 49.0222 135.025 48.6771 135.025 48.2348C135.025 47.7571 134.821 47.3855 134.414 47.1201C134.025 46.8547 133.485 46.6159 132.795 46.4036C132.123 46.1913 131.344 45.9524 130.46 45.687C129.31 45.3331 128.354 44.935 127.593 44.4927C126.85 44.0504 126.293 43.5107 125.921 42.8738C125.568 42.2368 125.391 41.4406 125.391 40.4852C125.391 39.1582 125.7 38.0436 126.32 37.1412C126.956 36.2212 127.806 35.5311 128.867 35.0711C129.929 34.5934 131.088 34.3546 132.344 34.3546C133.229 34.3546 134.078 34.4607 134.892 34.673C135.723 34.8853 136.493 35.1507 137.201 35.4692C137.926 35.7877 138.572 36.1062 139.138 36.4246L137.227 40.034Z" fill="white"/>
<path d="M292.408 49.535V53.3567H279.165V34.5135H292.169V38.3353H283.517V41.9977H290.948V45.5275H283.517V49.535H292.408Z" fill="white"/>
<path d="M270.397 53.3567V42.1304L266.337 50.3047H263.948L259.888 42.1304V53.3567H255.535V34.5135H260.259L265.143 44.3598L270.052 34.5135H274.75V53.3567H270.397Z" fill="white"/>
<path d="M242.829 53.5161C241.413 53.5161 240.131 53.2507 238.981 52.7199C237.848 52.1714 236.866 51.446 236.035 50.5437C235.221 49.6236 234.593 48.5974 234.15 47.4651C233.708 46.315 233.487 45.1296 233.487 43.9087C233.487 42.6525 233.717 41.4582 234.177 40.3259C234.655 39.1935 235.309 38.185 236.141 37.3004C236.99 36.398 237.99 35.6903 239.14 35.1772C240.29 34.6641 241.546 34.4075 242.909 34.4075C244.306 34.4075 245.571 34.6818 246.704 35.2303C247.854 35.7611 248.836 36.4865 249.65 37.4065C250.481 38.3266 251.118 39.3616 251.56 40.5117C252.003 41.644 252.224 42.8029 252.224 43.9884C252.224 45.2446 251.994 46.4389 251.534 47.5712C251.074 48.7036 250.419 49.7209 249.57 50.6233C248.721 51.5079 247.721 52.2157 246.571 52.7465C245.439 53.2596 244.191 53.5161 242.829 53.5161ZM237.919 43.9618C237.919 44.6872 238.025 45.395 238.238 46.085C238.45 46.7573 238.759 47.3589 239.166 47.8897C239.591 48.4205 240.113 48.8451 240.732 49.1636C241.352 49.4821 242.059 49.6413 242.855 49.6413C243.687 49.6413 244.412 49.4821 245.032 49.1636C245.651 48.8274 246.164 48.3851 246.571 47.8366C246.978 47.2881 247.279 46.6777 247.473 46.0054C247.686 45.3153 247.792 44.6165 247.792 43.9087C247.792 43.1833 247.686 42.4844 247.473 41.8121C247.261 41.1398 246.943 40.5382 246.518 40.0074C246.093 39.4589 245.571 39.0343 244.952 38.7335C244.333 38.4327 243.634 38.2823 242.855 38.2823C242.024 38.2823 241.298 38.4416 240.679 38.76C240.078 39.0785 239.565 39.512 239.14 40.0605C238.733 40.5913 238.423 41.2017 238.211 41.8917C238.016 42.5641 237.919 43.2541 237.919 43.9618Z" fill="white"/>
<path d="M230.168 34.5135V53.3567H225.815V45.6337H218.304V53.3567H213.952V34.5135H218.304V41.812H225.815V34.5135H230.168Z" fill="white"/>
<path d="M275.941 70.8122V69.1651H277.112V70.8122H275.941Z" fill="white"/>
<path d="M266.553 66.1797C266.553 65.6221 266.652 65.0774 266.849 64.5455C267.047 64.0051 267.334 63.5161 267.712 63.0786C268.098 62.6325 268.565 62.2808 269.114 62.0235C269.663 61.7575 270.285 61.6246 270.98 61.6246C271.803 61.6246 272.515 61.8133 273.116 62.1908C273.716 62.5596 274.163 63.0357 274.454 63.6191L273.322 64.3783C273.15 64.0094 272.932 63.7177 272.666 63.5033C272.408 63.2888 272.125 63.1387 271.816 63.0529C271.516 62.9671 271.22 62.9242 270.928 62.9242C270.448 62.9242 270.028 63.0229 269.667 63.2202C269.307 63.4089 269.003 63.662 268.754 63.9794C268.514 64.2968 268.329 64.6528 268.2 65.0474C268.08 65.442 268.02 65.8366 268.02 66.2312C268.02 66.6687 268.093 67.0934 268.239 67.5051C268.385 67.9083 268.587 68.2686 268.844 68.586C269.11 68.8948 269.423 69.1393 269.783 69.3195C270.144 69.4996 270.538 69.5897 270.967 69.5897C271.259 69.5897 271.563 69.5382 271.881 69.4353C272.198 69.3323 272.49 69.1736 272.756 68.9592C273.03 68.7361 273.245 68.4445 273.399 68.0842L274.596 68.7662C274.407 69.2208 274.111 69.6069 273.708 69.9243C273.313 70.2417 272.867 70.4819 272.37 70.6448C271.881 70.8078 271.396 70.8893 270.916 70.8893C270.272 70.8893 269.685 70.7564 269.153 70.4904C268.621 70.2159 268.162 69.8556 267.776 69.4095C267.39 68.9549 267.09 68.4488 266.875 67.8912C266.661 67.325 266.553 66.7545 266.553 66.1797Z" fill="white"/>
<path d="M258.452 64.3525V70.812H257.011V61.676H258.194L263.367 68.2771V61.6888H264.821V70.812H263.56L258.452 64.3525Z" fill="white"/>
<path d="M253.247 70.812V61.676H254.688V70.812H253.247Z" fill="white"/>
<path d="M241.13 64.3525V70.812H239.689V61.676H240.873L246.046 68.2771V61.6888H247.5V70.812H246.239L241.13 64.3525Z" fill="white"/>
<path d="M233.551 70.8766C232.891 70.8766 232.295 70.7479 231.763 70.4905C231.231 70.2332 230.772 69.8858 230.386 69.4483C230 69.0022 229.7 68.5046 229.485 67.9556C229.279 67.398 229.176 66.8275 229.176 66.2442C229.176 65.6351 229.288 65.0561 229.511 64.5071C229.734 63.9495 230.043 63.4562 230.437 63.0273C230.832 62.5898 231.295 62.2466 231.827 61.9978C232.368 61.7405 232.951 61.6118 233.577 61.6118C234.229 61.6118 234.821 61.7448 235.353 62.0107C235.893 62.2766 236.352 62.6327 236.73 63.0787C237.116 63.5248 237.412 64.0224 237.618 64.5714C237.832 65.1204 237.939 65.6823 237.939 66.2571C237.939 66.8661 237.828 67.4495 237.605 68.0071C237.39 68.5561 237.086 69.0494 236.691 69.4869C236.297 69.9158 235.829 70.2546 235.289 70.5034C234.757 70.7522 234.178 70.8766 233.551 70.8766ZM230.643 66.2442C230.643 66.6731 230.712 67.0892 230.849 67.4924C230.986 67.8956 231.179 68.2559 231.428 68.5733C231.686 68.8821 231.994 69.1266 232.355 69.3067C232.715 69.4869 233.118 69.5769 233.564 69.5769C234.028 69.5769 234.439 69.4826 234.8 69.2938C235.16 69.1051 235.46 68.8521 235.7 68.5347C235.949 68.2087 236.138 67.8484 236.267 67.4538C236.395 67.0506 236.46 66.6474 236.46 66.2442C236.46 65.8153 236.391 65.4035 236.254 65.0089C236.125 64.6057 235.932 64.2497 235.675 63.9409C235.417 63.6235 235.108 63.3747 234.748 63.1945C234.396 63.0144 234.002 62.9243 233.564 62.9243C233.101 62.9243 232.689 63.0187 232.329 63.2074C231.969 63.3961 231.664 63.6492 231.415 63.9666C231.167 64.284 230.974 64.64 230.836 65.0346C230.708 65.4292 230.643 65.8324 230.643 66.2442Z" fill="white"/>
<path d="M225.992 70.812V61.676H227.433V70.812H225.992Z" fill="white"/>
<path d="M224.51 62.9499H221.473V70.812H220.019V62.9499H216.969V61.676H224.51V62.9499Z" fill="white"/>
<path d="M208.173 66.1797C208.173 65.6221 208.272 65.0774 208.469 64.5455C208.666 64.0051 208.954 63.5161 209.331 63.0786C209.717 62.6325 210.185 62.2808 210.734 62.0235C211.283 61.7575 211.905 61.6246 212.6 61.6246C213.423 61.6246 214.135 61.8133 214.736 62.1908C215.336 62.5596 215.782 63.0357 216.074 63.6191L214.942 64.3783C214.77 64.0094 214.551 63.7177 214.285 63.5033C214.028 63.2888 213.745 63.1387 213.436 63.0529C213.136 62.9671 212.84 62.9242 212.548 62.9242C212.068 62.9242 211.647 63.0229 211.287 63.2202C210.927 63.4089 210.622 63.662 210.374 63.9794C210.133 64.2968 209.949 64.6528 209.82 65.0474C209.7 65.442 209.64 65.8366 209.64 66.2312C209.64 66.6687 209.713 67.0934 209.859 67.5051C210.005 67.9083 210.206 68.2686 210.464 68.586C210.73 68.8948 211.043 69.1393 211.403 69.3195C211.763 69.4996 212.158 69.5897 212.587 69.5897C212.878 69.5897 213.183 69.5382 213.5 69.4353C213.818 69.3323 214.109 69.1736 214.375 68.9592C214.65 68.7361 214.864 68.4445 215.019 68.0842L216.215 68.7662C216.027 69.2208 215.731 69.6069 215.328 69.9243C214.933 70.2417 214.487 70.4819 213.989 70.6448C213.5 70.8078 213.016 70.8893 212.535 70.8893C211.892 70.8893 211.304 70.7564 210.772 70.4904C210.241 70.2159 209.782 69.8556 209.396 69.4095C209.01 68.9549 208.709 68.4488 208.495 67.8912C208.28 67.325 208.173 66.7545 208.173 66.1797Z" fill="white"/>
<path d="M202.627 70.8764C201.898 70.8764 201.281 70.752 200.774 70.5032C200.277 70.2544 199.874 69.9156 199.565 69.4867C199.265 69.0577 199.042 68.5688 198.896 68.0198C198.758 67.4707 198.69 66.9003 198.69 66.3083V61.676H200.131V66.3083C200.131 66.7287 200.174 67.1362 200.26 67.5308C200.345 67.9168 200.483 68.2642 200.671 68.5731C200.86 68.8819 201.113 69.1264 201.431 69.3065C201.757 69.4867 202.156 69.5767 202.627 69.5767C203.108 69.5767 203.507 69.4867 203.824 69.3065C204.15 69.1178 204.403 68.869 204.583 68.5602C204.772 68.2428 204.909 67.8911 204.995 67.505C205.081 67.119 205.124 66.7201 205.124 66.3083V61.676H206.578V66.3083C206.578 66.9346 206.501 67.5265 206.346 68.0841C206.2 68.6331 205.969 69.1178 205.651 69.5381C205.342 69.9499 204.939 70.2759 204.442 70.5161C203.944 70.7563 203.339 70.8764 202.627 70.8764Z" fill="white"/>
<path d="M190.067 70.812V61.676H194.043C194.455 61.676 194.832 61.7617 195.175 61.9333C195.519 62.1049 195.814 62.3322 196.063 62.6153C196.321 62.8984 196.518 63.2158 196.655 63.5675C196.801 63.9192 196.874 64.2795 196.874 64.6484C196.874 65.0516 196.801 65.4376 196.655 65.8065C196.509 66.1754 196.299 66.4928 196.025 66.7587C195.759 67.0246 195.446 67.2177 195.085 67.3378L197.234 70.812H195.613L193.631 67.6337H191.508V70.812H190.067ZM191.508 66.3598H194.03C194.296 66.3598 194.532 66.2826 194.738 66.1282C194.944 65.9738 195.107 65.7679 195.227 65.5105C195.347 65.2446 195.407 64.9572 195.407 64.6484C195.407 64.331 195.338 64.0479 195.201 63.7991C195.064 63.5418 194.884 63.3359 194.661 63.1815C194.446 63.0271 194.21 62.9499 193.953 62.9499H191.508V66.3598Z" fill="white"/>
<path d="M188.584 62.9499H185.548V70.812H184.093V62.9499H181.044V61.676H188.584V62.9499Z" fill="white"/>
<path d="M179.161 63.8251C179.075 63.7307 178.951 63.632 178.788 63.5291C178.625 63.4176 178.432 63.3146 178.209 63.2203C177.986 63.1259 177.746 63.0487 177.488 62.9887C177.231 62.9286 176.965 62.8986 176.69 62.8986C176.09 62.8986 175.644 63.0101 175.352 63.2331C175.06 63.4562 174.915 63.765 174.915 64.1596C174.915 64.4513 174.996 64.6829 175.159 64.8545C175.322 65.0175 175.571 65.1547 175.905 65.2662C176.24 65.3778 176.66 65.4979 177.167 65.6265C177.784 65.7724 178.32 65.9482 178.775 66.1541C179.23 66.3514 179.577 66.6174 179.817 66.9519C180.057 67.2865 180.178 67.7283 180.178 68.2773C180.178 68.7405 180.092 69.1394 179.92 69.474C179.749 69.8086 179.508 70.0831 179.2 70.2975C178.891 70.5034 178.535 70.6578 178.132 70.7608C177.728 70.8551 177.295 70.9023 176.832 70.9023C176.377 70.9023 175.923 70.8551 175.468 70.7608C175.022 70.6664 174.593 70.5291 174.181 70.349C173.778 70.1603 173.405 69.9329 173.062 69.667L173.718 68.4317C173.829 68.5432 173.988 68.6676 174.194 68.8049C174.409 68.9336 174.653 69.0579 174.928 69.178C175.211 69.2981 175.515 69.4011 175.841 69.4869C176.176 69.5641 176.515 69.6027 176.858 69.6027C177.432 69.6027 177.87 69.504 178.17 69.3067C178.479 69.1008 178.633 68.8092 178.633 68.4317C178.633 68.1229 178.535 67.8784 178.337 67.6982C178.14 67.5095 177.853 67.3508 177.475 67.2221C177.098 67.0935 176.648 66.9648 176.124 66.8361C175.524 66.6731 175.022 66.4973 174.619 66.3085C174.216 66.1112 173.911 65.8625 173.705 65.5622C173.508 65.2534 173.409 64.8631 173.409 64.3912C173.409 63.7908 173.555 63.2846 173.847 62.8729C174.138 62.4525 174.533 62.1394 175.03 61.9335C175.537 61.719 176.103 61.6118 176.729 61.6118C177.141 61.6118 177.531 61.659 177.9 61.7534C178.269 61.8391 178.612 61.9592 178.929 62.1137C179.255 62.2681 179.551 62.4439 179.817 62.6412L179.161 63.8251Z" fill="white"/>
<path d="M165.076 64.3525V70.812H163.634V61.676H164.818L169.991 68.2771V61.6888H171.445V70.812H170.184L165.076 64.3525Z" fill="white"/>
<path d="M157.497 70.8766C156.837 70.8766 156.24 70.7479 155.709 70.4905C155.177 70.2332 154.718 69.8858 154.332 69.4483C153.946 69.0022 153.645 68.5046 153.431 67.9556C153.225 67.398 153.122 66.8275 153.122 66.2442C153.122 65.6351 153.234 65.0561 153.457 64.5071C153.68 63.9495 153.989 63.4562 154.383 63.0273C154.778 62.5898 155.241 62.2466 155.773 61.9978C156.313 61.7405 156.897 61.6118 157.523 61.6118C158.175 61.6118 158.767 61.7448 159.299 62.0107C159.839 62.2766 160.298 62.6327 160.675 63.0787C161.062 63.5248 161.357 64.0224 161.563 64.5714C161.778 65.1204 161.885 65.6823 161.885 66.2571C161.885 66.8661 161.774 67.4495 161.55 68.0071C161.336 68.5561 161.031 69.0494 160.637 69.4869C160.242 69.9158 159.775 70.2546 159.234 70.5034C158.702 70.7522 158.123 70.8766 157.497 70.8766ZM154.589 66.2442C154.589 66.6731 154.658 67.0892 154.795 67.4924C154.932 67.8956 155.125 68.2559 155.374 68.5733C155.631 68.8821 155.94 69.1266 156.3 69.3067C156.661 69.4869 157.064 69.5769 157.51 69.5769C157.973 69.5769 158.385 69.4826 158.745 69.2938C159.106 69.1051 159.406 68.8521 159.646 68.5347C159.895 68.2087 160.084 67.8484 160.212 67.4538C160.341 67.0506 160.405 66.6474 160.405 66.2442C160.405 65.8153 160.337 65.4035 160.199 65.0089C160.071 64.6057 159.878 64.2497 159.62 63.9409C159.363 63.6235 159.054 63.3747 158.694 63.1945C158.342 63.0144 157.948 62.9243 157.51 62.9243C157.047 62.9243 156.635 63.0187 156.275 63.2074C155.914 63.3961 155.61 63.6492 155.361 63.9666C155.112 64.284 154.919 64.64 154.782 65.0346C154.653 65.4292 154.589 65.8324 154.589 66.2442Z" fill="white"/>
<path d="M144.182 66.1794C144.182 65.6218 144.28 65.077 144.478 64.5452C144.675 64.0047 144.962 63.5158 145.34 63.0783C145.726 62.6322 146.193 62.2805 146.742 62.0231C147.291 61.7572 147.913 61.6242 148.608 61.6242C149.432 61.6242 150.144 61.8129 150.744 62.1904C151.345 62.5593 151.791 63.0354 152.082 63.6187L150.95 64.3779C150.778 64.009 150.56 63.7174 150.294 63.5029C150.036 63.2884 149.753 63.1383 149.445 63.0525C149.144 62.9667 148.848 62.9238 148.557 62.9238C148.076 62.9238 147.656 63.0225 147.296 63.2198C146.935 63.4085 146.631 63.6616 146.382 63.979C146.142 64.2964 145.957 64.6524 145.829 65.047C145.709 65.4416 145.649 65.8362 145.649 66.2309C145.649 66.6684 145.721 67.093 145.867 67.5048C146.013 67.9079 146.215 68.2682 146.472 68.5856C146.738 68.8945 147.051 69.139 147.411 69.3191C147.772 69.4993 148.166 69.5893 148.595 69.5893C148.887 69.5893 149.191 69.5379 149.509 69.4349C149.826 69.332 150.118 69.1733 150.384 68.9588C150.658 68.7358 150.873 68.4441 151.027 68.0838L152.224 68.7658C152.035 69.2205 151.739 69.6065 151.336 69.9239C150.941 70.2413 150.495 70.4815 149.998 70.6445C149.509 70.8075 149.024 70.889 148.544 70.889C147.9 70.889 147.313 70.756 146.781 70.4901C146.249 70.2156 145.79 69.8553 145.404 69.4092C145.018 68.9545 144.718 68.4484 144.503 67.8908C144.289 67.3246 144.182 66.7541 144.182 66.1794Z" fill="white"/>
<defs>
<filter id="filter0_d_20_190" x="0.5" y="21.4561" width="123.49" height="70.0438" filterUnits="userSpaceOnUse" color-interpolation-filters="sRGB">
<feFlood flood-opacity="0" result="BackgroundImageFix"/>
<feColorMatrix in="SourceAlpha" type="matrix" values="0 0 0 0 0 0 0 0 0 0 0 0 0 0 0 0 0 0 127 0" result="hardAlpha"/>
<feOffset dx="4" dy="4"/>
<feGaussianBlur stdDeviation="3.25"/>
<feComposite in2="hardAlpha" operator="out"/>
<feColorMatrix type="matrix" values="0 0 0 0 0.0627451 0 0 0 0 0.0823529 0 0 0 0 0.0941176 0 0 0 0.15 0"/>
<feBlend mode="normal" in2="BackgroundImageFix" result="effect1_dropShadow_20_190"/>
<feBlend mode="normal" in="SourceGraphic" in2="effect1_dropShadow_20_190" result="shape"/>
</filter>
<filter id="filter1_d_20_190" x="22.6679" y="0.9" width="88.4042" height="65.5352" filterUnits="userSpaceOnUse" color-interpolation-filters="sRGB">
<feFlood flood-opacity="0" result="BackgroundImageFix"/>
<feColorMatrix in="SourceAlpha" type="matrix" values="0 0 0 0 0 0 0 0 0 0 0 0 0 0 0 0 0 0 127 0" result="hardAlpha"/>
<feOffset dx="4" dy="4"/>
<feGaussianBlur stdDeviation="4.05"/>
<feComposite in2="hardAlpha" operator="out"/>
<feColorMatrix type="matrix" values="0 0 0 0 0.0627451 0 0 0 0 0.0823529 0 0 0 0 0.0941176 0 0 0 0.15 0"/>
<feBlend mode="normal" in2="BackgroundImageFix" result="effect1_dropShadow_20_190"/>
<feBlend mode="normal" in="SourceGraphic" in2="effect1_dropShadow_20_190" result="shape"/>
</filter>
</defs>
</svg>
