<svg width="323" height="292" viewBox="0 0 323 292" fill="none" xmlns="http://www.w3.org/2000/svg">
<path d="M55.2603 285.873C85.7798 285.873 110.521 280.493 110.521 273.856C110.521 267.219 85.7798 261.839 55.2603 261.839C24.7409 261.839 0 267.219 0 273.856C0 280.493 24.7409 285.873 55.2603 285.873Z" fill="#284063"/>
<path d="M267.635 282.17C298.154 282.17 322.895 277.618 322.895 272.004C322.895 266.39 298.154 261.839 267.635 261.839C237.116 261.839 212.375 266.39 212.375 272.004C212.375 277.618 237.116 282.17 267.635 282.17Z" fill="#284063"/>
<path d="M141.567 289.673C164.094 289.673 182.356 286.314 182.356 282.17C182.356 278.026 164.094 274.667 141.567 274.667C119.039 274.667 100.777 278.026 100.777 282.17C100.777 286.314 119.039 289.673 141.567 289.673Z" fill="#284063"/>
<path d="M45.3268 64.3945L162.005 6.1392C177.445 -1.5696 195.507 -2.04107 211.328 4.85171L245.645 19.8026C263.773 27.7005 276.661 44.2496 279.879 63.76L281.419 73.0993C283.116 83.3929 287.545 93.0423 294.243 101.041L307.072 116.361C324.141 136.744 325.256 166.096 309.781 187.715L296.634 206.084C284.675 222.792 264.803 231.97 244.329 230.243L145.095 221.868C142.964 221.688 140.825 221.626 138.687 221.681L84.7349 223.076C57.3464 223.784 33.161 205.323 26.6205 178.718L14.7584 130.465C8.25337 104.004 20.9476 76.5665 45.3268 64.3945Z" fill="#496DA1"/>
<mask id="mask0_72_1619" style="mask-type:luminance" maskUnits="userSpaceOnUse" x="13" y="0" width="308" height="231">
<path d="M45.3268 64.3945L162.005 6.1392C177.445 -1.5696 195.507 -2.04107 211.328 4.85171L245.645 19.8026C263.773 27.7005 276.661 44.2496 279.879 63.76L281.419 73.0993C283.116 83.3929 287.545 93.0423 294.243 101.041L307.072 116.361C324.141 136.744 325.256 166.096 309.781 187.715L296.634 206.084C284.675 222.792 264.803 231.97 244.329 230.243L145.095 221.868C142.964 221.688 140.825 221.626 138.687 221.681L84.7349 223.076C57.3464 223.784 33.161 205.323 26.6205 178.718L14.7584 130.465C8.25337 104.004 20.9476 76.5665 45.3268 64.3945Z" fill="white"/>
</mask>
<g mask="url(#mask0_72_1619)">
<path d="M139.836 81.2208L256.076 157.561L253.846 149.113H265.551L261.997 137.857L274.785 136.092L271.764 127.849L341.047 167.843L359.196 128.169L257.792 66.0223L249.516 76.4021L245.695 83.0346L234.31 77.9953L170.01 43.6709L139.836 81.2208Z" fill="#D1DBED"/>
<path d="M215.998 52.7412L307.058 102.352L319.272 78.9044L232.683 30.6641L231.272 36.1578L225.015 39.4407V42.8706L221.99 49.8831L215.998 52.7412Z" fill="#D1DBED"/>
<path d="M69.1613 100.792L160.221 150.403L172.435 126.956L85.8458 78.7153L84.4356 84.2091L78.178 87.492V90.9219L75.1532 97.9344L69.1613 100.792Z" fill="#D1DBED"/>
</g>
<path d="M251.28 172.254H190.703V243.565H251.28V172.254Z" fill="#89A3D1"/>
<path d="M217.808 197.596L218.604 196.566L219.4 197.596L220.196 196.566L220.992 197.596L221.788 196.566L222.584 197.596L223.38 196.566L224.176 197.596L224.972 196.566L225.825 197.67V172.254H216.158V197.67L217.012 196.566L217.808 197.596Z" fill="white"/>
<path d="M245.964 178.255H233.317V193.48H245.964V178.255Z" fill="white"/>
<path d="M251.28 243.566H285.549V172.255H251.28V243.566Z" fill="#BFCDE6"/>
<path d="M270.216 192.01L269.766 190.98L269.315 192.01L268.865 190.98L268.415 192.01L267.965 190.98L267.514 192.01L267.064 190.98L266.614 192.01L266.163 190.98L265.681 192.084V172.254H271.149V192.084L270.666 190.98L270.216 192.01Z" fill="white"/>
<path d="M33.9244 243.709H61.7822L61.7822 207.331H33.9244V243.709Z" fill="#BFCDE6"/>
<path d="M33.9244 207.332H18.1654V243.709H33.9244V207.332Z" fill="#89A3D1"/>
<path d="M37.1032 210.254H45.7434V220.655H39.3137L37.1032 218.445V210.254Z" fill="white"/>
<path d="M39.3138 220.656L37.1033 218.446H39.3138V220.656Z" fill="#89A3D1"/>
<path d="M90.1194 122.371H36.8753L48.3389 90.354H78.6557L90.1194 122.371Z" fill="#9DB7E0"/>
<path d="M90.1194 122.371L78.6558 90.354H69.4955L73.4164 104.233C75.3189 110.967 70.259 117.654 63.2609 117.654H38.564L36.8752 122.371H90.1194Z" fill="#90ABD3"/>
<path d="M66.1499 122.37H60.8448V235.643H66.1499V122.37Z" fill="#90ABD3"/>
<g opacity="0.4">
<path d="M66.1498 122.37L60.8191 127.701V122.37H66.1498Z" fill="black"/>
</g>
<path d="M60.8447 235.643L42.4591 239.879H84.5353L66.1498 235.643H60.8447Z" fill="#9DB7E0"/>
<path d="M84.5354 239.879H42.4591V243.62H84.5354V239.879Z" fill="#90ABD3"/>
<path d="M237.32 133.594L227.59 286.269C227.521 287.351 228.381 288.267 229.465 288.267H230.665C231.664 288.267 232.488 287.484 232.541 286.486L239.745 148.74C239.797 147.743 240.621 146.96 241.621 146.96C242.408 146.96 243.112 147.452 243.384 148.191L294.385 287.036C294.657 287.775 295.361 288.267 296.148 288.267H297.974C299.285 288.267 300.192 286.959 299.734 285.731L242.7 133.056C242.426 132.322 241.725 131.835 240.941 131.835H239.194C238.203 131.835 237.383 132.605 237.32 133.594Z" fill="#3F6B9E"/>
<path d="M273.87 225.182V226.091C273.87 227.375 272.816 228.428 271.53 228.428H206.125C204.842 228.428 203.789 227.375 203.789 226.091V225.182C203.789 225.067 203.797 224.952 203.814 224.839C203.981 223.714 204.957 222.842 206.125 222.842H271.53C272.698 222.842 273.677 223.714 273.847 224.839C273.861 224.952 273.87 225.067 273.87 225.182Z" fill="#3F6B9E"/>
<path d="M273.847 224.839H203.814C203.981 223.714 204.957 222.842 206.125 222.842H271.53C272.698 222.842 273.677 223.714 273.847 224.839Z" fill="#2A4268"/>
<path d="M286.932 260.587V261.497C286.932 262.783 285.878 263.833 284.595 263.833H206.125C204.842 263.833 203.789 262.783 203.789 261.497V260.587C203.789 260.259 203.858 259.945 203.981 259.661C204.341 258.832 205.17 258.25 206.125 258.25H284.595C285.55 258.25 286.379 258.832 286.739 259.661C286.862 259.945 286.932 260.259 286.932 260.587Z" fill="#3F6B9E"/>
<path d="M286.739 259.661H203.981C204.341 258.832 205.17 258.25 206.125 258.25H284.595C285.55 258.25 286.379 258.832 286.739 259.661Z" fill="#2A4268"/>
<path d="M172.082 46.6121L150.502 90.9232C150.369 91.1958 150.038 91.3102 149.765 91.1774L136.546 84.7398C136.274 84.6071 136.159 84.2754 136.292 84.0028L157.872 39.6917C158.417 38.5732 159.777 38.1037 160.896 38.6485L171.039 43.5881C172.157 44.1328 172.627 45.4936 172.082 46.6121Z" fill="#F19A6D"/>
<path d="M150.112 90.1387C150.749 88.8306 148.359 86.355 144.774 84.6094C141.189 82.8637 137.766 82.5089 137.129 83.817C136.492 85.1251 138.882 87.6007 142.467 89.3464C146.052 91.092 149.475 91.4467 150.112 90.1387Z" fill="#EF7C59"/>
<path d="M311.009 152.065C311.009 152.324 310.954 152.583 310.834 152.83C310.413 153.7 309.354 154.065 308.488 153.642L169.627 86.0155L155.238 98.3897C154.815 98.7552 154.286 98.9163 153.768 98.8876C153.405 98.9768 153.011 98.9452 152.651 98.7695L143.002 94.0701C142.755 93.9493 142.55 93.7737 142.398 93.5636C142.05 93.25 141.822 92.801 141.814 92.2975L141.785 90.9162L141.733 88.3983V88.3608C141.733 87.4112 142.498 86.6256 143.454 86.6054C143.946 86.5939 144.398 86.7925 144.726 87.1148C145.037 87.4255 145.235 87.8514 145.244 88.3263L145.261 89.1608L145.31 91.5061L152.677 95.0917L167.066 82.7175C167.512 81.9059 168.528 81.5721 169.371 81.9837L310.025 150.482C310.054 150.496 310.083 150.511 310.111 150.528C310.681 150.845 311.009 151.446 311.009 152.065Z" fill="#93493A"/>
<path d="M310.025 150.482L169.371 81.9836C168.528 81.5721 167.512 81.9059 167.066 82.7174L152.677 95.0916L145.31 91.506L145.261 89.1607L145.159 87.8176L144.726 87.1147C144.58 86.9714 144.409 86.8544 144.221 86.7676V92.3445L152.102 96.1823C152.461 96.3578 152.856 96.3895 153.218 96.3003C153.736 96.329 154.266 96.1679 154.689 95.8053L169.08 83.4283L307.939 151.055C308.675 151.414 309.546 151.205 310.052 150.602C310.041 150.554 310.036 150.531 310.025 150.482Z" fill="#814033"/>
<path d="M254.052 99.8814C251.711 103.979 237.369 110.272 226.393 109.394C221.9 109.034 217.58 108.332 214.044 107.629C208.939 106.611 205.465 105.589 205.465 105.589C205.465 105.589 204.294 106.613 202.099 107.492C199.904 108.37 196.099 106.028 195.367 104.272C194.635 102.516 194.05 104.126 192.148 102.662C190.245 101.199 195.367 99.5889 196.684 96.4102C198.002 93.2316 195.221 92.5641 196.684 91.6861C198.148 90.808 199.026 89.0518 202.392 91.6861C205.758 94.3204 204.294 94.3204 206.636 95.0521C207.602 95.3536 210.365 95.7809 213.76 96.0737C218.587 96.4922 224.695 96.6445 228.735 95.7839C235.613 94.3204 246.15 84.5151 246.15 84.5151C246.15 84.5151 256.394 95.7838 254.052 99.8814Z" fill="#F5B0A6"/>
<mask id="mask1_72_1619" style="mask-type:luminance" maskUnits="userSpaceOnUse" x="191" y="84" width="64" height="26">
<path d="M254.053 99.88C251.711 103.978 237.369 110.271 226.393 109.393C221.9 109.033 217.58 108.33 214.044 107.628C208.939 106.609 205.465 105.588 205.465 105.588C205.465 105.588 204.294 106.612 202.099 107.49C199.904 108.368 196.099 106.027 195.367 104.27C194.636 102.514 194.05 104.124 192.148 102.661C190.245 101.197 195.367 99.5874 196.684 96.4088C198.002 93.2301 195.221 92.5627 196.684 91.6846C198.148 90.8066 199.026 89.0503 202.392 91.6846C205.758 94.3189 204.295 94.3189 206.636 95.0507C207.602 95.3521 210.365 95.7794 213.76 96.0722C218.587 96.4908 224.695 96.643 228.735 95.7824C235.613 94.3189 246.15 84.5137 246.15 84.5137C246.15 84.5137 256.394 95.7823 254.053 99.88Z" fill="white"/>
</mask>
<g mask="url(#mask1_72_1619)">
<path d="M253.701 86.7021C250.85 82.3122 246.032 79.1408 240.815 78.707L235.013 88.3441C237.436 95.8161 243.546 101.992 250.992 104.495C252.713 105.073 254.939 105.324 256.048 103.886C256.51 103.287 256.664 102.511 256.77 101.761C257.507 96.5787 256.552 91.092 253.701 86.7021Z" fill="#F18A8B"/>
<path d="M237.393 105.742C235.063 105.737 232.716 105.806 230.441 106.31C228.166 106.813 225.95 107.777 224.25 109.371L230.298 111.524C232.324 112.841 234.806 113.442 237.211 113.199C238.758 113.042 240.343 112.496 241.356 111.316C242.369 110.137 242.62 108.227 241.619 107.036C240.639 105.87 238.917 105.746 237.393 105.742Z" fill="#F18A8B"/>
</g>
<path d="M214.044 107.629C208.939 106.61 205.465 105.589 205.465 105.589C205.465 105.589 204.294 106.613 202.099 107.491C199.904 108.369 196.099 106.028 195.367 104.272C194.636 102.515 194.05 104.125 192.148 102.662C190.245 101.198 195.367 99.5885 196.684 96.4099C198.002 93.2312 195.221 92.5638 196.684 91.6857C198.148 90.8077 199.026 89.0514 202.392 91.6857C205.758 94.32 204.295 94.32 206.636 95.0518C207.602 95.3532 210.365 95.7805 213.76 96.0733C212.885 99.4421 212.285 104.04 214.044 107.629Z" fill="#89A3D1"/>
<mask id="mask2_72_1619" style="mask-type:luminance" maskUnits="userSpaceOnUse" x="191" y="90" width="24" height="18">
<path d="M214.044 107.628C208.939 106.609 205.465 105.588 205.465 105.588C205.465 105.588 204.294 106.612 202.099 107.49C199.904 108.368 196.099 106.027 195.367 104.271C194.635 102.515 194.05 104.124 192.148 102.661C190.245 101.197 195.367 99.5876 196.684 96.4089C198.001 93.2302 195.221 92.5628 196.684 91.6848C198.148 90.8067 199.026 89.0505 202.392 91.6848C205.758 94.3191 204.294 94.3191 206.636 95.0508C207.602 95.3522 210.365 95.7796 213.76 96.0723C212.885 99.4411 212.285 104.039 214.044 107.628Z" fill="white"/>
</mask>
<g mask="url(#mask2_72_1619)">
<path d="M194.791 100.451C195.862 99.727 196.883 98.93 197.845 98.0672C198.545 97.4402 199.27 96.6165 199.114 95.6903C198.977 94.8779 198.22 94.3488 197.638 93.7652C196.981 93.1058 196.494 92.2778 196.237 91.3828L193.008 91.2354C193.487 92.3725 193.936 93.6075 193.683 94.8154C193.48 95.7855 192.849 96.6024 192.237 97.3819C191.722 98.038 191.206 98.6942 190.691 99.3503C190.336 99.8027 189.962 100.398 190.224 100.911C190.341 101.141 190.568 101.296 190.805 101.401C192.111 101.982 193.607 101.251 194.791 100.451Z" fill="#7795CA"/>
<path d="M202.328 107.338C201.915 107.254 201.411 107.189 201.24 106.804C201.044 106.364 201.369 105.666 200.93 105.47C200.667 105.353 200.388 105.572 200.149 105.732C199.089 106.446 197.435 105.982 196.902 104.82C196.712 104.406 196.654 103.946 196.509 103.515C196.363 103.084 196.092 102.654 195.662 102.509C195.049 102.303 194.429 102.741 193.899 103.111C193.369 103.481 192.629 103.802 192.118 103.405L191.582 105.236C192.058 105.78 192.065 106.586 192.392 107.231C192.878 108.186 193.978 108.642 195.012 108.919C196.571 109.336 198.191 109.523 199.804 109.474C200.925 109.439 202.135 109.246 202.915 108.442C203 108.354 203.08 108.257 203.113 108.14C203.226 107.734 202.741 107.422 202.328 107.338Z" fill="#7795CA"/>
</g>
<path d="M300.795 79.8203C300.795 79.8203 310.942 90.3573 313.283 97.7723C315.625 105.187 299.854 128.408 299.854 128.408L287.136 97.1869L300.795 79.8203Z" fill="#F18A8B"/>
<path d="M260.152 191.19L264.509 210.284L247.62 212.027L243.692 194.016L260.152 191.19Z" fill="#F18A8B"/>
<path d="M263.997 206.595L267.162 217.349L223.804 220.138L223.783 219.82C223.622 217.306 224.92 214.924 227.119 213.698L246.725 204.374C247.427 203.983 248.358 203.938 248.947 204.484C251.724 207.062 254.867 211.348 262.494 205.987C263.047 205.599 263.826 205.941 263.997 206.595Z" fill="#EA5D01"/>
<path d="M224.002 223.011L267.358 220.221L267.174 217.358L223.818 220.147L224.002 223.011Z" fill="#141D30"/>
<path d="M245.849 211.987L245.424 212.223L249.73 219.956L250.154 219.719L245.849 211.987Z" fill="white"/>
<path d="M241.175 214.136L240.751 214.372L243.961 220.138L244.386 219.902L241.175 214.136Z" fill="white"/>
<path d="M298.048 229.018L297.474 248.679L280.497 248.874L281.807 230.298L298.048 229.018Z" fill="#F18A8B"/>
<path d="M297.301 244.96L299.471 255.957L256.04 254.778L256.048 254.459C256.117 251.941 257.627 249.688 259.929 248.667L280.304 241.172C281.038 240.846 281.969 240.886 282.506 241.484C285.036 244.304 287.775 248.86 295.859 244.217C296.446 243.881 297.191 244.293 297.301 244.96Z" fill="#EA5D01"/>
<path d="M255.964 257.669L299.394 258.847L299.472 255.979L256.042 254.801L255.964 257.669Z" fill="#141D30"/>
<path d="M278.708 248.671L278.263 248.868L281.845 256.96L282.289 256.764L278.708 248.671Z" fill="white"/>
<path d="M273.856 250.389L273.412 250.585L276.083 256.62L276.527 256.424L273.856 250.389Z" fill="white"/>
<path d="M277.423 35.5524C277.423 35.5524 270.331 30.8112 265.29 32.9325C260.249 35.0538 257.165 36.7717 256.531 40.277C255.897 43.7822 257.467 46.1836 259.881 47.0816C262.295 47.9797 268.298 58.0855 268.298 58.0855L274.291 62.8757L276.787 58.4973C276.787 58.4973 279.471 58.5356 280.203 57.2386C280.936 55.9416 280.488 56.5283 281.302 53.5219C282.116 50.5154 285.283 50.6563 284.218 48.0341C283.153 45.4118 285.07 35.0535 277.423 35.5524Z" fill="black"/>
<path d="M276.786 58.4977C274.889 60.2418 274.079 59.8038 273.911 59.5742C273.775 59.3893 271.772 58.1608 270.998 57.6896C271.183 57.0115 271.225 56.3447 271.012 55.7672C271.073 55.6823 271.127 55.5983 271.181 55.5143C272.092 55.3808 273.033 54.9315 273.816 54.1762C275.495 52.5575 275.814 50.1659 274.53 48.8343C273.271 47.5293 270.941 47.73 269.269 49.2617C269.268 49.2628 269.267 49.2635 269.265 49.2626C264.133 51.063 261.866 44.3068 261.866 44.3068C261.866 44.3068 261.584 45.4257 261.658 47.0819C259.133 45.5564 259.567 42.9563 260.077 41.4952C260.136 41.3273 259.904 41.2179 259.811 41.3693C258.954 42.7605 258.202 45.2273 258.867 49.4337C258.866 49.4356 258.865 49.4369 258.863 49.4389C257.586 49.7594 258.033 51.0023 258.036 51.0109C258.036 51.0109 258.036 51.011 258.036 51.0109C258.035 51.015 256.308 61.4003 267.033 59.9577C267.026 61.2213 266.834 62.8304 266.046 63.9551C269.435 65.5424 272.774 64.9445 275.338 63.9609C277.902 62.9774 277.852 62.3453 277.852 62.3453C277.852 62.3453 276.727 60.7129 276.786 58.4977Z" fill="#F5B0A6"/>
<mask id="mask3_72_1619" style="mask-type:luminance" maskUnits="userSpaceOnUse" x="257" y="41" width="21" height="24">
<path d="M276.786 58.4977C274.889 60.2418 274.079 59.8038 273.911 59.5742C273.775 59.3893 271.772 58.1608 270.998 57.6896C271.183 57.0115 271.225 56.3447 271.012 55.7672C271.073 55.6823 271.127 55.5983 271.181 55.5143C272.092 55.3808 273.033 54.9315 273.816 54.1762C275.495 52.5575 275.814 50.1659 274.53 48.8343C273.271 47.5293 270.941 47.73 269.269 49.2617C269.268 49.2628 269.267 49.2635 269.265 49.2626C264.133 51.063 261.866 44.3068 261.866 44.3068C261.866 44.3068 261.584 45.4257 261.658 47.0819C259.133 45.5564 259.567 42.9563 260.077 41.4952C260.136 41.3273 259.904 41.2179 259.811 41.3693C258.954 42.7605 258.202 45.2273 258.867 49.4337C258.866 49.4356 258.865 49.4369 258.863 49.4389C257.586 49.7594 258.033 51.0023 258.036 51.0109C258.036 51.0109 258.036 51.011 258.036 51.0109C258.035 51.015 256.308 61.4003 267.033 59.9577C267.026 61.2213 266.834 62.8304 266.046 63.9551C269.435 65.5424 272.774 64.9445 275.338 63.9609C277.902 62.9774 277.852 62.3453 277.852 62.3453C277.852 62.3453 276.727 60.7129 276.786 58.4977Z" fill="white"/>
</mask>
<g mask="url(#mask3_72_1619)">
<path d="M261.604 48.3298C261.554 47.6673 261.505 47.0048 261.456 46.3423C262.147 48.727 264.953 50.2062 267.357 49.583C267.937 49.4325 268.502 49.1711 268.922 48.7437C269.865 47.7838 269.868 46.2476 269.592 44.9307C268.917 41.7073 266.891 38.7892 264.107 37.0305C263.129 36.4127 262.028 35.925 260.871 35.8989C259.714 35.8728 258.498 36.3819 257.91 37.3779L259.125 40.6349C258.389 43.3862 259.4 46.5257 261.604 48.3298Z" fill="#F18A8B"/>
<path d="M268.13 58.2379C268.026 58.2494 267.94 58.3203 267.859 58.3864C266.03 59.8847 263.431 60.3866 261.175 59.6774L264.014 64.4964C264.846 64.7584 265.777 64.4788 266.477 63.9564C267.176 63.434 267.681 62.6959 268.132 61.9486C268.459 61.4081 268.769 60.8428 268.889 60.2226C269.008 59.6024 268.911 58.9116 268.498 58.4346C268.403 58.3253 268.274 58.2221 268.13 58.2379Z" fill="#F18A8B"/>
<path d="M271.118 48.1969C272.255 47.8814 273.508 48.6375 273.991 49.7137C274.475 50.79 274.297 52.074 273.779 53.1338C273.26 54.1937 272.436 55.0693 271.597 55.8992C272.469 55.7203 273.369 55.7136 274.238 55.5218C275.107 55.3301 275.985 54.9079 276.43 54.1373C276.614 53.8193 276.713 53.4608 276.81 53.1067C277.07 52.1539 277.327 51.1608 277.147 50.1897C276.973 49.2466 276.389 48.4087 275.636 47.8149C274.882 47.2211 273.97 46.8557 273.037 46.6348L271.118 48.1969Z" fill="#FFC5C5"/>
</g>
<path d="M270.041 52.8102C269.941 52.5214 269.96 52.2005 270.048 51.9036C270.138 51.6052 270.306 51.3265 270.526 51.1009C270.642 50.9965 270.757 50.8869 270.892 50.8099C270.96 50.7713 271.022 50.7233 271.093 50.6944C271.163 50.6626 271.234 50.6328 271.305 50.6044C271.374 50.5728 271.449 50.5561 271.523 50.538C271.596 50.5201 271.67 50.5043 271.743 50.4902C271.894 50.4756 272.044 50.4668 272.194 50.4773C272.071 50.5715 271.945 50.6397 271.825 50.7144C271.766 50.7551 271.708 50.7941 271.65 50.8309C271.592 50.8682 271.532 50.9011 271.479 50.9443C271.425 50.9847 271.37 51.0238 271.315 51.0607C271.26 51.0975 271.213 51.1442 271.161 51.1843C271.11 51.2259 271.056 51.2623 271.013 51.3105L270.871 51.442C270.692 51.6262 270.535 51.8276 270.398 52.0538C270.259 52.2805 270.143 52.5272 270.041 52.8102Z" fill="#F18A8B"/>
<path d="M272.615 52.172C272.394 52.0963 272.201 52.0268 272.012 51.9675C271.823 51.9082 271.642 51.8637 271.461 51.8351C271.371 51.8154 271.281 51.8146 271.189 51.802C271.098 51.8035 271.004 51.7923 270.909 51.8011C270.714 51.7996 270.518 51.8382 270.28 51.8537C270.413 51.6646 270.601 51.5096 270.826 51.4282C270.936 51.3778 271.056 51.3617 271.176 51.3414C271.297 51.336 271.42 51.3325 271.539 51.3555C271.778 51.394 272.003 51.4915 272.19 51.6309C272.375 51.7721 272.533 51.9498 272.615 52.172Z" fill="#F18A8B"/>
<path d="M260.214 54.3555C260.214 54.3555 261.112 54.6789 263.54 54.4275C265.088 54.5801 263.249 57.0168 261.675 56.7608C260.101 56.5048 260.214 54.3555 260.214 54.3555Z" fill="white"/>
<path d="M262.955 49.1216C262.881 49.6949 262.464 50.1131 262.024 50.0559C261.585 49.9986 261.289 49.4875 261.364 48.9141C261.438 48.3409 261.855 47.9226 262.295 47.9799C262.734 48.0371 263.03 48.5483 262.955 49.1216Z" fill="black"/>
<path d="M266.133 53.7269C267.174 53.7269 268.017 52.8833 268.017 51.8427C268.017 50.8021 267.174 49.9585 266.133 49.9585C265.093 49.9585 264.249 50.8021 264.249 51.8427C264.249 52.8833 265.093 53.7269 266.133 53.7269Z" fill="#F18A8B"/>
<path d="M264.971 64.6017C264.971 64.6017 265.378 60.8003 271.106 60.8942C276.833 60.9881 278.601 60.2139 279.136 62.0834C279.67 63.9529 288.112 60.8942 293.965 66.1627C299.819 71.4312 310.161 83.5293 310.161 83.5293L297.088 96.2128L261.85 122.165L259.493 97.7738L253.911 104.213C253.911 104.213 244.402 100.506 240.695 89.1881C248.695 79.8218 253.769 70.0653 256.305 68.5042C258.842 66.9433 264.971 64.6017 264.971 64.6017Z" fill="#F3CE90"/>
<mask id="mask4_72_1619" style="mask-type:luminance" maskUnits="userSpaceOnUse" x="240" y="60" width="71" height="63">
<path d="M264.97 64.6032C264.97 64.6032 265.378 60.8018 271.106 60.8957C276.833 60.9895 278.601 60.2154 279.135 62.0849C279.67 63.9544 288.111 60.8957 293.965 66.1642C299.819 71.4327 310.161 83.5308 310.161 83.5308L297.087 96.2143L261.85 122.167L259.493 97.7753L253.911 104.215C253.911 104.215 244.402 100.507 240.695 89.1895C248.695 79.8233 253.768 70.0668 256.305 68.5057C258.842 66.9447 264.97 64.6032 264.97 64.6032Z" fill="white"/>
</mask>
<g mask="url(#mask4_72_1619)">
<path d="M311.256 76.9843C305.455 67.4183 294.06 61.5448 282.903 62.3693C283.207 63.0583 283.511 63.7473 283.815 64.4361C283.549 64.096 283.285 63.7547 283.019 63.4148C284.04 66.7001 284.729 70.0881 285.074 73.511C285.218 74.9369 285.274 76.4828 284.494 77.685C283.535 79.1621 281.517 79.6724 279.798 79.2893C278.079 78.9063 276.614 77.7995 275.322 76.6041C270.687 72.3187 267.432 66.4977 262.066 63.174L264.569 68.4007C266.815 72.2369 269.011 76.1197 270.686 80.2375C272.216 84.0008 273.304 87.9445 275.061 91.6075C276.818 95.2705 279.369 98.7324 282.991 100.572C286.725 102.469 291.131 102.43 295.297 102.003C298.2 101.707 301.503 100.961 302.859 98.3778C303.96 96.2797 303.339 93.7592 302.4 91.5348C305.318 89.6554 308.069 87.518 310.6 85.1431C311.339 84.4494 312.08 83.7075 312.457 82.7665C313.217 80.8694 312.316 78.7316 311.256 76.9843Z" fill="#F3CE90"/>
<path d="M293.448 94.7684C293.448 93.7612 292.153 72.1782 292.153 72.1782L301.445 94.1928L293.448 94.7684Z" fill="#EFBA62"/>
<path d="M294.883 89.4833C294.378 88.7334 293.797 87.9683 292.956 87.6356C291.924 87.227 290.763 87.5644 289.702 87.892C282.496 90.1158 275.12 91.7864 267.659 92.8842C266.406 93.0685 264.842 93.0966 264.204 92.0028C263.986 91.6281 263.927 91.1843 263.881 90.7531C263.69 88.9626 263.636 87.1573 263.72 85.3584C262.021 89.4483 259.415 93.1589 256.145 96.1462C255.45 96.7817 254.709 97.3947 253.835 97.7462C251.56 98.6611 248.962 97.6082 246.964 96.1864C244.236 94.245 242.027 91.5815 240.623 88.5415L244.368 112.096C246.599 117.85 247.237 124.077 247.902 130.213C248.06 131.677 248.366 133.367 249.661 134.067C250.592 134.571 251.735 134.376 252.757 134.098C256.513 133.079 259.951 131.15 263.292 129.155C273.876 122.832 283.922 115.656 293.954 108.489C296.141 106.926 298.475 105.16 299.179 102.565C299.711 100.599 299.194 98.5051 298.498 96.5902C297.589 94.0858 296.372 91.6932 294.883 89.4833Z" fill="#EFBA62"/>
</g>
<path d="M303.536 150.541C299.578 160.037 297.049 167.749 297.711 176.571C297.714 176.574 297.711 176.574 297.711 176.574C297.784 177.54 297.895 178.52 298.047 179.518C298.621 183.294 299.411 192.561 300.175 202.688V202.691C301.454 219.623 302.657 238.944 302.657 238.944L276.33 240.97C276.33 240.97 275.261 217.873 274.459 200.191C274.093 192.189 273.786 185.296 273.657 182.15C273.242 172.055 275.566 147.907 275.566 147.907C275.566 147.907 275.007 148.016 274.088 148.218C271.805 148.709 267.294 149.751 263.562 151.027C260.843 151.952 258.54 153.003 257.811 154.054C255.683 157.127 266.679 201.608 266.679 201.608H240.954C240.954 201.608 228.023 147.468 232.853 136.931C237.682 126.394 261.343 120.251 261.343 120.251C261.343 120.251 261.276 118.164 259.473 101.48C259.093 97.9588 270.013 105.139 267.847 85.4315C266.99 79.1795 264.044 70.4088 260.213 66.5599C262.188 64.0252 264.97 64.6004 264.97 64.6004L275.563 79.7181C275.566 79.721 275.571 79.721 275.574 79.7239C275.776 79.7269 281.244 79.7941 283.582 78.4536C285.965 77.0897 280.36 62.2412 280.36 62.2412C280.36 62.2412 283.562 62.2588 284.276 62.8442C284.987 63.4296 292.085 78.7756 294.523 83.4295C297.172 88.2209 299.853 94.066 299.853 94.066C299.853 94.066 301.779 106.64 304.414 115.86C307.048 125.077 307.926 140.004 303.536 150.541Z" fill="#EA5D01"/>
<mask id="mask5_72_1619" style="mask-type:luminance" maskUnits="userSpaceOnUse" x="231" y="62" width="76" height="179">
<path d="M303.536 150.541C299.578 160.037 297.049 167.749 297.711 176.571C297.714 176.574 297.711 176.574 297.711 176.574C297.784 177.54 297.895 178.52 298.047 179.518C298.621 183.294 299.411 192.561 300.175 202.688V202.691C301.454 219.623 302.657 238.944 302.657 238.944L276.33 240.97C276.33 240.97 275.261 217.873 274.459 200.191C274.093 192.189 273.786 185.296 273.657 182.15C273.242 172.055 275.566 147.907 275.566 147.907C275.566 147.907 275.007 148.016 274.088 148.218C271.805 148.709 267.294 149.751 263.562 151.027C260.843 151.952 258.54 153.003 257.811 154.054C255.683 157.127 266.679 201.608 266.679 201.608H240.954C240.954 201.608 228.023 147.468 232.853 136.931C237.682 126.394 261.343 120.251 261.343 120.251C261.343 120.251 261.276 118.164 259.473 101.48C259.093 97.9588 270.013 105.139 267.847 85.4315C266.99 79.1795 264.044 70.4088 260.213 66.5599C262.188 64.0252 264.97 64.6004 264.97 64.6004L275.563 79.7181C275.566 79.721 275.571 79.721 275.574 79.7239C275.776 79.7269 281.244 79.7941 283.582 78.4536C285.965 77.0897 280.36 62.2412 280.36 62.2412C280.36 62.2412 283.562 62.2588 284.276 62.8442C284.987 63.4296 292.085 78.7756 294.523 83.4295C297.172 88.2209 299.853 94.066 299.853 94.066C299.853 94.066 301.779 106.64 304.414 115.86C307.048 125.077 307.926 140.004 303.536 150.541Z" fill="white"/>
</mask>
<g mask="url(#mask5_72_1619)">
<path d="M312.988 118.616C311.906 107.238 307.082 96.6005 302.326 86.2084L297.885 85.0679C299.297 95.5384 300.708 106.009 302.119 116.479C302.772 121.318 303.425 126.171 303.505 131.053C303.711 143.541 300.171 155.814 299.735 168.295C301.181 158.189 307.321 149.427 310.563 139.747C312.832 132.975 313.664 125.726 312.988 118.616Z" fill="#EA5D01"/>
<path d="M263.201 168.025C263.503 163.414 264.943 158.734 268.065 155.328L271.996 149.312C268.217 149.537 264.478 150.425 261.002 151.923C259.672 152.496 258.35 153.166 256.912 153.337C252.661 153.843 249.271 150.034 245.359 148.295C244.481 150.198 245.277 152.537 246.724 154.053C248.17 155.57 250.146 156.444 252.067 157.282C250.625 157.932 249.183 158.583 247.74 159.234C252.688 162.851 253.906 169.559 255.322 175.522C257.867 186.25 262.26 196.538 268.247 205.797C266.956 197.8 265.665 189.803 264.374 181.806C263.637 177.245 262.898 172.636 263.201 168.025Z" fill="#EA5D01"/>
<path d="M257.728 123.792C259.345 123.764 260.99 123.845 262.552 123.425C264.114 123.005 265.622 121.964 266.091 120.416C267.092 117.111 263.104 114.344 262.658 110.919C262.219 107.546 265.215 104.852 266.89 101.891C270.101 96.2196 268.438 89.071 265.945 83.0488C265.826 86.0587 263.875 88.7241 261.538 90.6256C259.202 92.527 256.455 93.8458 253.941 95.5058C248.572 99.0518 244.127 104.582 243.514 110.988C243.474 111.404 243.52 111.935 243.91 112.082L237.838 130.441C243.584 126.27 250.629 123.915 257.728 123.792Z" fill="#EA5D01"/>
<path d="M276.429 79.4797C278.165 79.6371 279.909 79.7064 281.652 79.6871C282.667 79.6759 283.706 79.63 284.65 79.257C285.595 78.8841 286.443 78.1239 286.663 77.1324C286.834 76.363 286.615 75.5667 286.398 74.8091C285.163 70.4988 283.927 66.1886 282.692 61.8782C282.438 60.9933 282.149 60.0526 281.439 59.4673C280.149 58.4045 278.028 59.1349 277.15 60.5577C276.273 61.9804 276.346 63.7892 276.666 65.4299C276.985 67.0707 277.524 68.6935 277.482 70.3644C277.461 71.1904 277.249 72.0911 276.584 72.5816C275.919 73.072 274.734 72.8186 274.597 72.0037L274.859 80.0747C275.016 79.4839 275.82 79.4246 276.429 79.4797Z" fill="#EA5D01"/>
<path d="M274.187 148.216C281.139 146.145 286.921 140.5 289.158 133.599C289.791 139.11 288.539 144.82 285.658 149.561C284.278 151.832 282.529 153.904 281.531 156.368C280.537 158.821 280.349 161.514 280.172 164.155C279.858 168.84 279.544 173.524 279.231 178.208C279.134 179.655 279.048 181.168 279.636 182.494C280.708 184.913 283.57 185.876 286.12 186.582C283.745 188.404 281.371 190.225 278.996 192.047C280.861 193.128 282.725 194.21 284.589 195.291C281.917 195.101 279.484 197.129 278.358 199.559C277.232 201.989 277.136 204.753 277.085 207.431C276.846 219.954 277.146 232.492 276.472 244.999C271.669 218.918 269.437 192.365 269.818 165.848L274.187 148.216Z" fill="#EA5D01"/>
</g>
<path d="M306.519 111.667L259.124 115.73L259.615 121.449L307.009 117.387L306.519 111.667Z" fill="#1C3166"/>
<path d="M278.127 119.825L283.037 119.404L282.525 113.437L277.615 113.858L278.127 119.825Z" fill="#EA5D01"/>
<path d="M271.223 121.227L273.474 121.034L272.851 113.764L270.599 113.957L271.223 121.227Z" fill="#EA5D01"/>
<path d="M291.361 119.5L293.613 119.307L292.99 112.037L290.738 112.23L291.361 119.5Z" fill="#EA5D01"/>
<path d="M295.999 123.967L310.918 122.688C311.242 122.66 311.482 122.375 311.454 122.052L310.594 112.022L295.089 113.352L295.999 123.967Z" fill="#5F81D3"/>
<path d="M304.558 117.586C304.153 117.586 303.764 117.444 303.45 117.18C303.097 116.883 302.881 116.467 302.842 116.007C302.758 115.034 301.896 114.309 300.924 114.392L295.22 114.882L295.215 114.822L300.919 114.333C301.925 114.247 302.815 114.995 302.901 116.002C302.939 116.446 303.148 116.848 303.488 117.134C303.829 117.421 304.26 117.558 304.704 117.52L311.019 116.978L311.024 117.038L304.709 117.579C304.658 117.584 304.608 117.586 304.558 117.586Z" fill="#343434"/>
<path d="M283.446 52.9919L276.5 49.4463L257.929 39.9609C258.095 39.5465 264.46 26.7165 275.41 31.4413C277.609 32.3902 279.451 33.5113 280.924 34.8081C285.707 39.0097 286.631 45.0399 283.446 52.9919Z" fill="#F3CE90"/>
<path d="M283.446 52.991L276.5 49.4453C277.703 48.8361 278.753 47.7296 279.502 46.5744C281.067 44.1598 281.959 41.2688 281.772 38.3982C281.692 37.1697 281.405 35.9452 280.924 34.8071C285.707 39.0088 286.631 45.0389 283.446 52.991Z" fill="#F1C479"/>
<path d="M266.898 44.3671C270.473 39.4326 276.531 38.5322 279.214 38.5521C281.585 38.5726 283.466 39.3306 284.911 40.8621C286.051 42.0764 285.891 43.3693 285.314 44.1139C283.919 42.0495 281.208 40.8009 278.796 40.8148C272.861 40.8494 268.298 43.5619 266.898 44.3671Z" fill="#F19A6D"/>
<path d="M260.905 40.0946C262.491 37.1795 264.625 34.4513 267.712 32.9045C270.799 31.3576 276.013 31.8338 279.439 33.6196C279.47 32.196 277.479 30.6689 274.761 29.8913C272.629 29.2838 268.92 29.68 267.22 30.7461C263.953 32.7975 261.44 36.5308 260.905 40.0946Z" fill="#F19A6D"/>
<path d="M258.987 40.4262C258.882 37.1265 261.794 34.4268 264.087 32.6127C261.915 32.3744 260.176 34.0109 259.446 35.2194C258.446 36.8683 257.829 38.8146 258.987 40.4262Z" fill="#F19A6D"/>
<path d="M272.069 47.2376C272.069 47.2376 252.31 40.0331 252.625 38.6111C252.628 38.5811 252.642 38.5547 252.665 38.532C253.819 37.3188 259.443 35.9861 262.168 37.3783C264.412 38.526 267.749 42.1283 269.918 44.6472C271.196 46.1311 272.069 47.2376 272.069 47.2376Z" fill="#F19A6D"/>
<path d="M272.069 47.2379C272.069 47.2379 252.31 40.0334 252.625 38.6113C255.386 40.1524 258.238 41.5158 261.169 42.698C263.252 43.5357 265.393 44.289 267.623 44.558C268.383 44.6494 269.151 44.6856 269.918 44.6476C271.196 46.1314 272.069 47.2379 272.069 47.2379Z" fill="#F1C479"/>
<path d="M209.476 133.594L199.747 286.269C199.678 287.351 200.537 288.267 201.621 288.267H202.821C203.82 288.267 204.645 287.484 204.697 286.486L211.901 148.74C211.954 147.743 212.778 146.96 213.777 146.96C214.565 146.96 215.269 147.452 215.54 148.191L266.542 287.036C266.813 287.775 267.517 288.267 268.305 288.267H270.131C271.441 288.267 272.349 286.959 271.89 285.731L214.857 133.056C214.582 132.322 213.881 131.835 213.097 131.835H211.351C210.36 131.835 209.539 132.605 209.476 133.594Z" fill="#90ABD3"/>
<path d="M183.639 253.603L171.574 260.323L167.124 254.994C167.124 254.994 162.167 251.361 156.803 247.603C152.96 244.913 148.908 242.157 146.322 240.632C140.129 236.98 129.297 224.435 129.297 224.435L139.472 214.59C139.472 214.59 149.975 225.229 151.404 226.922C152.255 227.932 159.436 233.595 165.114 238.012C168.982 241.026 172.152 243.462 172.152 243.462C172.152 243.462 176.519 244.285 178.808 246.667C181.098 249.048 183.639 253.603 183.639 253.603Z" fill="#F5B0A6"/>
<mask id="mask6_72_1619" style="mask-type:luminance" maskUnits="userSpaceOnUse" x="129" y="214" width="55" height="47">
<path d="M183.639 253.603L171.574 260.323L167.124 254.994C167.124 254.994 162.167 251.361 156.803 247.603C152.96 244.913 148.908 242.157 146.322 240.632C140.129 236.98 129.297 224.435 129.297 224.435L139.472 214.59C139.472 214.59 149.975 225.229 151.404 226.922C152.255 227.932 159.436 233.595 165.114 238.012C168.982 241.026 172.152 243.462 172.152 243.462C172.152 243.462 176.519 244.285 178.808 246.667C181.098 249.048 183.639 253.603 183.639 253.603Z" fill="white"/>
</mask>
<g mask="url(#mask6_72_1619)">
<path d="M138.027 212.153C135.148 211.887 132.295 212.983 129.837 214.506C127.1 216.202 124.707 218.451 122.845 221.078L129.577 229.698C135.906 225.962 142.32 222.371 148.812 218.927C145.769 215.833 142.348 212.552 138.027 212.153Z" fill="#F18A8B"/>
<path d="M171.031 237.108C169.921 235.596 167.615 235.702 165.85 236.339C162.811 237.435 160.286 239.574 157.6 241.371C154.915 243.168 151.786 244.695 148.579 244.3L147.411 248.567C147.888 249.536 149.211 249.63 150.288 249.562C152.857 249.402 155.417 249.097 157.951 248.649C162.919 247.772 168.278 245.981 170.777 241.598C171.563 240.219 171.969 238.388 171.031 237.108Z" fill="#F18A8B"/>
</g>
<path d="M183.639 253.604L171.574 260.324L167.124 254.995C167.124 254.995 162.167 251.362 156.803 247.605C157.46 244.708 159.41 240.367 165.114 238.014C168.982 241.028 172.152 243.463 172.152 243.463C172.152 243.463 176.518 244.286 178.808 246.668C181.098 249.05 183.639 253.604 183.639 253.604Z" fill="#7795CA"/>
<path d="M41.3031 286.813C39.9364 288.658 26.2683 288.843 21.2556 286.813C20.1314 286.359 19.2738 285.798 18.6108 285.142C18.6074 285.142 18.6074 285.142 18.6074 285.142C16.3248 282.88 16.4205 279.518 16.2462 275.636C16.0891 272.171 18.8739 264.777 20.6063 260.547C21.2385 259.002 22.6327 257.94 24.2387 257.704C24.5804 257.652 24.9323 257.642 25.2877 257.67L39.253 258.773L37.2027 271.443H32.6478V279.128C32.6478 279.128 38.4671 282.521 40.63 284.951C41.31 285.71 41.6277 286.376 41.3031 286.813Z" fill="#EA5D01"/>
<path d="M41.3032 286.811C39.9365 288.656 26.2684 288.841 21.2557 286.811C20.1315 286.356 19.2739 285.796 18.6109 285.14C21.0814 282.731 26.4358 278.648 32.6479 278.74V279.126C32.6479 279.126 38.4672 282.519 40.6301 284.948C41.3101 285.707 41.6278 286.373 41.3032 286.811Z" fill="white"/>
<path d="M41.3031 286.812C39.9364 288.657 26.2683 288.841 21.2556 286.812C16.2463 284.785 16.4718 280.64 16.2462 275.635C16.0891 272.17 18.8739 264.775 20.6063 260.545C21.2385 259.001 22.6327 257.938 24.2387 257.702C21.7204 263.62 16.899 276.673 21.03 281.549C25.9745 287.386 34.1274 287.772 40.63 284.949C41.31 285.708 41.6277 286.374 41.3031 286.812Z" fill="#141D30"/>
<path d="M27.6895 275.152C29.3273 274.867 30.9709 275.284 32.2924 276.287C32.4792 276.428 32.661 276.112 32.4763 275.972C31.0731 274.908 29.3241 274.5 27.5926 274.801C27.362 274.841 27.4598 275.192 27.6895 275.152Z" fill="white"/>
<path d="M29.0586 272.195C30.2132 271.959 31.3477 272.173 32.3439 272.799C32.5431 272.924 32.7261 272.609 32.5278 272.484C31.4499 271.807 30.2077 271.589 28.9617 271.844C28.7321 271.891 28.8293 272.242 29.0586 272.195Z" fill="white"/>
<path d="M98.4781 274.485C101.179 275.649 104.347 276.144 108.02 274.276C108.02 274.276 109.426 269.737 113.561 272.304C113.561 272.304 118.371 277.529 125.425 278.853C135.207 280.689 135.711 285.224 135.711 285.224L95.6821 285.804C95.6821 285.804 95.7379 279.636 96.3332 275.734C96.4869 274.725 97.5412 274.081 98.4781 274.485Z" fill="#EA5D01"/>
<mask id="mask7_72_1619" style="mask-type:luminance" maskUnits="userSpaceOnUse" x="95" y="271" width="41" height="15">
<path d="M98.4781 274.485C101.179 275.649 104.347 276.144 108.02 274.276C108.02 274.276 109.426 269.737 113.561 272.304C113.561 272.304 118.371 277.529 125.425 278.853C135.207 280.689 135.711 285.224 135.711 285.224L95.6821 285.804C95.6821 285.804 95.7379 279.636 96.3332 275.734C96.4869 274.725 97.5412 274.081 98.4781 274.485Z" fill="white"/>
</mask>
<g mask="url(#mask7_72_1619)">
<path d="M126.774 277.487C126.774 277.487 122.366 279.593 120.435 287.704L137.038 286.784C137.038 286.784 137.386 279.382 126.774 277.487Z" fill="white"/>
</g>
<path d="M135.716 285.224L95.6865 285.804L95.752 290.322L135.781 289.741L135.716 285.224Z" fill="#141D30"/>
<path d="M118.764 280.089C118.724 280.089 118.684 280.079 118.646 280.058C118.529 279.993 118.486 279.846 118.551 279.728C119.803 277.466 121.457 277.438 121.527 277.438H121.527C121.661 277.438 121.77 277.546 121.77 277.68C121.771 277.814 121.663 277.922 121.529 277.923C121.468 277.924 120.08 277.969 118.977 279.963C118.932 280.043 118.849 280.089 118.764 280.089Z" fill="white"/>
<path d="M116.759 279.055C116.72 279.055 116.679 279.045 116.642 279.025C116.524 278.96 116.482 278.812 116.547 278.694C117.798 276.432 119.453 276.404 119.523 276.404H119.523C119.657 276.404 119.766 276.512 119.766 276.646C119.766 276.78 119.658 276.889 119.525 276.89C119.463 276.891 118.075 276.935 116.972 278.93C116.928 279.01 116.845 279.055 116.759 279.055Z" fill="white"/>
<path d="M114.71 277.821C114.67 277.821 114.63 277.811 114.593 277.79C114.475 277.725 114.433 277.577 114.498 277.46C115.749 275.198 117.404 275.17 117.474 275.169H117.474C117.608 275.169 117.717 275.278 117.717 275.412C117.717 275.546 117.609 275.654 117.476 275.655C117.414 275.656 116.026 275.701 114.923 277.695C114.878 277.775 114.796 277.821 114.71 277.821Z" fill="white"/>
<path d="M127.212 194.331L143.358 215.49L130.883 230.31L115.834 219.089L119.521 198.128L127.212 194.331Z" fill="#6FC183"/>
<mask id="mask8_72_1619" style="mask-type:luminance" maskUnits="userSpaceOnUse" x="115" y="194" width="29" height="37">
<path d="M127.212 194.33L143.358 215.489L130.882 230.309L115.834 219.088L119.521 198.127L127.212 194.33Z" fill="white"/>
</mask>
<g mask="url(#mask8_72_1619)">
<path d="M115.022 221.86C120.947 220.331 126.98 219.216 133.06 218.528C129.235 218.341 125.427 217.826 121.689 216.992C124.993 215.687 128.375 214.58 131.811 213.679C130.179 213.625 128.556 213.323 127.014 212.786C129.306 209.228 131.201 205.415 132.654 201.44C132.78 201.093 132.906 200.732 132.871 200.365C132.837 199.999 132.648 199.668 132.464 199.35C131.685 198.007 130.906 196.665 130.128 195.323C129.301 196.999 127.702 198.273 125.885 198.705C124.068 199.138 122.066 198.72 120.574 197.595C120.039 197.192 119.436 196.671 118.79 196.85C118.442 196.946 118.182 197.23 117.949 197.506C113.785 202.427 111.463 208.869 111.528 215.314C111.532 215.731 111.556 216.178 111.812 216.507C112.068 216.836 112.642 216.939 112.883 216.599L115.022 221.86Z" fill="#5DB474"/>
</g>
<path d="M196.452 256.989H189.351C189.15 256.989 188.985 256.824 188.985 256.622V255.314C188.985 255.112 189.15 254.947 189.351 254.947H196.452C196.654 254.947 196.819 255.112 196.819 255.314V256.622C196.819 256.824 196.654 256.989 196.452 256.989Z" fill="#93493A"/>
<path d="M192.902 252.262L190.396 278.073L189.757 284.662L189.092 291.5H155.639L151.403 252.262H192.902Z" fill="#F3CE90"/>
<g opacity="0.3">
<path d="M189.757 284.662L189.092 291.5H155.638L151.402 252.262H154.841C155.823 256.467 157.88 260.478 160.312 264.084C167.187 274.274 177.716 282.378 189.757 284.662Z" fill="#F19A6D"/>
</g>
<path d="M192.903 252.262L190.397 278.072C189.832 272.931 189.962 267.649 188.761 262.612C188.561 261.771 187.894 260.716 187.123 261.091C186.494 261.396 186.122 262.562 185.528 262.187C185.325 262.057 185.265 261.79 185.224 261.548C185.065 260.618 184.903 259.687 184.744 258.76C184.309 260.396 183.721 261.99 182.994 263.514C182.676 264.178 182.168 264.924 181.444 264.858C180.685 264.788 180.33 263.889 180.155 263.136C179.335 259.573 178.884 255.921 178.808 252.262H192.903Z" fill="#E1F1FF"/>
<path d="M192.903 252.262C192.903 252.751 191.893 253.211 190.13 253.605C186.545 254.405 179.834 254.945 172.152 254.945C164.469 254.945 157.762 254.405 154.176 253.605C152.414 253.211 151.404 252.751 151.404 252.262C151.404 250.779 160.693 249.578 172.152 249.578C183.614 249.578 192.903 250.779 192.903 252.262Z" fill="#93493A"/>
<path d="M192.903 252.262C192.902 252.375 192.844 252.477 192.774 252.561L192.719 252.623L192.656 252.677C192.615 252.715 192.568 252.745 192.523 252.777C192.339 252.9 192.137 252.994 191.932 253.079C191.522 253.247 191.096 253.372 190.667 253.482C189.807 253.699 188.935 253.861 188.059 253.995C186.308 254.268 184.544 254.454 182.778 254.602C179.245 254.895 175.7 255.035 172.153 255.067C168.607 255.092 165.058 255.021 161.516 254.776C160.63 254.709 159.745 254.639 158.861 254.545C157.977 254.456 157.094 254.35 156.214 254.217C155.333 254.085 154.455 253.925 153.583 253.708C153.147 253.598 152.713 253.472 152.285 253.3C152.071 253.211 151.858 253.114 151.65 252.977C151.598 252.94 151.546 252.908 151.496 252.862L151.42 252.797L151.348 252.717C151.257 252.609 151.163 252.457 151.161 252.263C151.163 252.071 151.255 251.914 151.347 251.807C151.442 251.697 151.546 251.616 151.649 251.548C151.857 251.41 152.071 251.314 152.285 251.226C152.713 251.053 153.147 250.929 153.583 250.818C154.455 250.599 155.333 250.442 156.213 250.308C157.975 250.042 159.745 249.878 161.515 249.748C165.058 249.502 168.607 249.43 172.153 249.457C175.7 249.488 179.245 249.628 182.778 249.923C184.544 250.068 186.308 250.257 188.059 250.53C188.934 250.667 189.807 250.826 190.666 251.044C191.095 251.156 191.522 251.279 191.932 251.447C192.137 251.531 192.339 251.624 192.523 251.748C192.616 251.809 192.703 251.879 192.775 251.963C192.846 252.047 192.902 252.15 192.903 252.262ZM192.903 252.262C192.901 252.15 192.846 252.047 192.774 251.964C192.702 251.88 192.614 251.81 192.522 251.75C192.337 251.627 192.135 251.534 191.93 251.451C191.519 251.285 191.092 251.163 190.664 251.053C189.804 250.838 188.931 250.682 188.056 250.548C186.304 250.284 184.539 250.12 182.772 249.991C179.238 249.746 175.694 249.674 172.153 249.701C168.612 249.732 165.072 249.873 161.547 250.166C159.786 250.311 158.027 250.5 156.285 250.77C155.414 250.906 154.547 251.065 153.7 251.28C153.279 251.39 152.859 251.511 152.466 251.672C152.271 251.752 152.079 251.842 151.919 251.95C151.838 252.003 151.766 252.063 151.717 252.121C151.666 252.181 151.648 252.23 151.647 252.263C151.646 252.295 151.669 252.346 151.718 252.405L151.757 252.449L151.808 252.492C151.838 252.522 151.881 252.548 151.919 252.576C152.081 252.684 152.272 252.774 152.467 252.855C152.86 253.015 153.278 253.139 153.7 253.247C154.547 253.46 155.414 253.622 156.285 253.755C158.027 254.028 159.786 254.212 161.548 254.36C165.072 254.654 168.613 254.793 172.154 254.825C175.694 254.85 179.238 254.779 182.773 254.534C183.656 254.468 184.539 254.397 185.42 254.304C186.301 254.216 187.181 254.11 188.056 253.976C188.932 253.845 189.805 253.686 190.664 253.473C191.094 253.364 191.52 253.241 191.931 253.075C192.135 252.991 192.337 252.898 192.522 252.775C192.567 252.743 192.614 252.714 192.655 252.676L192.718 252.622L192.773 252.56C192.844 252.477 192.902 252.375 192.903 252.262Z" fill="#EF7C59"/>
<path d="M190.13 253.606C186.545 254.406 179.834 254.946 172.152 254.946C164.469 254.946 158.357 253.936 154.771 253.136C158.357 252.332 164.469 252.262 172.152 252.262C179.834 252.262 186.545 252.802 190.13 253.606Z" fill="#CBE3F4"/>
<path d="M153.79 256.989H146.689C146.487 256.989 146.322 256.824 146.322 256.622V255.314C146.322 255.112 146.487 254.947 146.689 254.947H153.79C153.991 254.947 154.156 255.112 154.156 255.314V256.622C154.156 256.824 153.991 256.989 153.79 256.989Z" fill="#93493A"/>
<path d="M172.997 279.94C169.236 279.94 165.732 279.182 162.53 277.672C158.794 275.91 155.465 273.126 152.635 269.399C147.827 263.067 146.103 256.096 146.086 256.026C146.055 255.896 146.135 255.765 146.265 255.733C146.395 255.702 146.527 255.781 146.559 255.912C146.575 255.981 148.28 262.866 153.031 269.117C155.814 272.778 159.082 275.51 162.745 277.236C167.322 279.393 172.539 279.98 178.251 278.981C182.621 278.217 186.303 276.536 189.193 273.983C191.504 271.942 193.32 269.339 194.59 266.248C196.759 260.968 196.578 256.029 196.576 255.979C196.57 255.845 196.674 255.732 196.808 255.726C196.946 255.721 197.055 255.825 197.061 255.959C197.063 256.009 197.25 261.04 195.046 266.417C193.749 269.581 191.891 272.246 189.522 274.34C186.563 276.957 182.799 278.679 178.335 279.46C176.505 279.78 174.724 279.94 172.997 279.94Z" fill="black"/>
<path d="M181.907 280.454L173.056 281.759C172.725 281.808 172.414 281.577 172.366 281.246L172.049 279.099C172 278.768 172.231 278.457 172.562 278.408L181.412 277.102C181.743 277.053 182.054 277.284 182.103 277.615L182.42 279.763C182.468 280.094 182.238 280.405 181.907 280.454Z" fill="#93493A"/>
<path d="M137.959 167.573C137.944 165.991 139.319 164.661 140.864 164.253C142.409 163.846 144.066 164.179 145.596 164.679C147.125 165.179 150.005 170.811 150.565 171.437C151.125 172.063 151.926 172.412 152.656 172.834C153.987 173.604 153.328 180.467 153.129 180.867C152.884 181.358 153.222 181.932 153.281 182.481C153.349 183.105 153.007 183.748 152.451 184.044C152.164 184.197 151.818 184.273 151.608 184.518C151.426 184.731 151.387 185.025 151.273 185.28C150.949 186.006 150.042 186.32 149.235 186.249C148.428 186.177 147.681 185.808 146.926 185.51C144.887 184.705 142.694 184.393 140.525 184.087C138.747 183.837 136.957 183.585 135.166 183.652C133.291 183.722 131.44 184.14 129.563 184.097C127.686 184.054 125.672 183.444 124.575 181.929C123.97 181.094 123.706 180.075 123.456 179.083C122.927 176.991 122.399 174.867 122.464 172.72C122.529 170.574 123.264 168.365 124.898 166.964C125.487 166.459 126.173 166.074 126.88 165.747C128.875 164.824 131.123 164.338 133.322 164.637C135.06 164.874 136.732 165.602 138.086 166.713L137.959 167.573Z" fill="black"/>
<path d="M124.387 185.882L119.521 190.24C119.521 190.24 122.94 199.978 124.25 203.792C125.561 207.604 127.323 202.357 127.323 202.357C127.323 202.357 127.83 201.051 128.845 199.105C129.38 198.076 130.06 196.864 130.883 195.575C137.232 202.376 141.279 193.745 142.083 193.539C145.214 196.174 143.892 191.323 145.107 190.059C146.153 188.968 148.086 185.19 148.602 184.163C148.657 184.054 148.601 183.917 148.482 183.89C148.201 183.821 147.685 183.571 146.923 182.706C145.705 181.325 144.955 181.924 143.495 179.393C142.033 176.865 142.33 178.839 140.82 178.666C139.312 178.496 139.36 175.311 136.186 177.904C133.012 180.494 130.769 179.726 130.769 179.726L130.65 179.841C129.322 177.638 126.913 176.564 124.953 177.431C122.781 178.389 121.987 181.354 123.178 184.053C123.49 184.76 123.906 185.373 124.387 185.882Z" fill="#F5B0A6"/>
<mask id="mask9_72_1619" style="mask-type:luminance" maskUnits="userSpaceOnUse" x="119" y="176" width="30" height="30">
<path d="M124.387 185.881L119.521 190.239C119.521 190.239 122.94 199.977 124.25 203.791C125.561 207.603 127.323 202.356 127.323 202.356C127.323 202.356 127.83 201.05 128.845 199.104C129.38 198.075 130.06 196.863 130.883 195.574C137.232 202.375 141.279 193.744 142.083 193.538C145.214 196.173 143.892 191.322 145.107 190.058C146.153 188.967 148.086 185.189 148.602 184.162C148.657 184.053 148.601 183.916 148.482 183.889C148.201 183.82 147.685 183.57 146.923 182.705C145.705 181.325 144.955 181.923 143.495 179.392C142.033 176.864 142.33 178.838 140.82 178.665C139.312 178.495 139.36 175.31 136.185 177.903C133.012 180.493 130.768 179.725 130.768 179.725L130.649 179.84C129.322 177.637 126.913 176.563 124.952 177.43C122.78 178.388 121.987 181.353 123.178 184.052C123.49 184.759 123.906 185.372 124.387 185.881Z" fill="white"/>
</mask>
<g mask="url(#mask9_72_1619)">
<path d="M151.038 180.624C149.63 177.523 146.874 175.161 143.769 173.759C140.666 172.357 137.226 171.844 133.821 171.736C132.664 171.699 131.475 171.713 130.394 172.126L130.612 179.535C132.591 180.596 135.041 179.69 136.962 178.527C137.322 178.309 137.783 178.08 138.135 178.311C138.301 178.421 138.395 178.608 138.496 178.779C139.039 179.691 140.047 180.309 141.106 180.379C141.55 180.408 142.015 180.35 142.426 180.52C142.955 180.74 143.265 181.278 143.564 181.766C144.259 182.904 145.095 183.955 146.047 184.888C146.982 185.806 148.218 186.659 149.502 186.398C150.626 186.169 151.441 185.092 151.637 183.962C151.833 182.831 151.513 181.669 151.038 180.624Z" fill="#F18A8B"/>
<path d="M124.237 186.007L121.133 185.573C119.728 186.457 118.217 187.476 117.747 189.068C117.358 190.383 117.777 191.786 118.207 193.088C119.435 196.804 120.777 200.482 122.231 204.116C121.708 201.648 121.617 199.109 121.614 196.586C121.612 195.129 121.64 193.664 121.91 192.233C122.322 190.05 123.284 188.015 124.237 186.007Z" fill="#F18A8B"/>
</g>
<path d="M127.472 183.835C127.564 183.473 127.61 183.127 127.613 182.787C127.617 182.447 127.576 182.117 127.496 181.795L127.422 181.556C127.404 181.474 127.366 181.398 127.336 181.32C127.303 181.242 127.279 181.16 127.239 181.084C127.201 181.008 127.164 180.931 127.127 180.853C127.094 180.772 127.047 180.699 127.004 180.623C126.96 180.546 126.918 180.468 126.877 180.389C126.785 180.235 126.684 180.086 126.599 179.915C126.76 180.009 126.911 180.119 127.06 180.236C127.127 180.3 127.195 180.366 127.261 180.433C127.327 180.501 127.395 180.567 127.448 180.646C127.505 180.723 127.561 180.8 127.616 180.879C127.673 180.956 127.709 181.047 127.756 181.131C127.852 181.299 127.906 181.488 127.966 181.673C128.061 182.052 128.072 182.454 127.99 182.832C127.909 183.209 127.742 183.569 127.472 183.835Z" fill="#F18A8B"/>
<path d="M125.063 181.5C125.3 181.336 125.583 181.257 125.87 181.229C126.158 181.205 126.458 181.244 126.736 181.351C126.878 181.4 127.006 181.479 127.133 181.558C127.249 181.652 127.369 181.741 127.458 181.861C127.559 181.969 127.63 182.098 127.695 182.226C127.729 182.289 127.749 182.36 127.77 182.428C127.79 182.497 127.808 182.566 127.82 182.636C127.76 182.592 127.708 182.546 127.656 182.501C127.604 182.457 127.563 182.407 127.505 182.371C127.452 182.33 127.402 182.29 127.353 182.25C127.308 182.206 127.248 182.179 127.199 182.141C127.102 182.066 126.991 182.013 126.89 181.95C126.78 181.901 126.677 181.842 126.562 181.805C126.339 181.719 126.104 181.655 125.855 181.61C125.605 181.564 125.347 181.532 125.063 181.5Z" fill="#F18A8B"/>
<path d="M140.233 186.055C139.951 186.73 140.141 187.452 140.658 187.669C141.175 187.885 141.823 187.514 142.106 186.839C142.388 186.165 142.198 185.442 141.681 185.226C141.164 185.009 140.516 185.38 140.233 186.055Z" fill="black"/>
<path d="M137.138 187.465C138.303 186.205 138.227 184.239 136.967 183.074C135.707 181.908 133.741 181.985 132.576 183.244C131.41 184.504 131.487 186.47 132.747 187.635C134.006 188.801 135.972 188.724 137.138 187.465Z" fill="#F18A8B"/>
<path d="M139.473 194.83C139.447 194.83 139.42 194.827 139.394 194.821C139.257 194.791 136.045 194.048 135.689 191.012C135.666 190.812 135.809 190.631 136.009 190.607C136.208 190.584 136.389 190.727 136.413 190.927C136.535 191.973 137.091 192.823 138.063 193.454C138.814 193.941 139.544 194.108 139.552 194.11C139.748 194.154 139.871 194.348 139.828 194.545C139.79 194.714 139.64 194.83 139.473 194.83Z" fill="#F18A8B"/>
<path d="M139.822 181.438C139.805 181.356 143.33 182.349 144.556 183.817C144.549 183.856 145.8 182.647 143.427 181.371C141.031 180.222 139.816 181.473 139.822 181.438Z" fill="black"/>
<path d="M128.152 189.56C127.201 193.467 127.956 196.843 128.845 199.106C129.38 198.077 130.06 196.866 130.883 195.577C130.883 195.577 129.119 192.931 128.152 189.56Z" fill="#F18A8B"/>
<path d="M105.248 213.373C105.248 213.373 116.465 216.761 121.972 213.373C127.479 209.986 129.596 197.721 129.596 197.721L131.737 200.262C131.737 200.262 129.384 215.49 115.834 222.901C125.063 225.972 130.052 226.712 130.883 235.181C131.713 243.65 123.48 254.236 118.492 262.917C113.505 271.597 115.834 274.138 115.834 274.138C115.834 274.138 112.023 277.737 105.248 277.737C98.4728 277.737 96.3556 275.62 96.3556 275.62L99.8448 250.848C99.8448 250.848 93.6031 251.06 91.4859 256.988C89.3687 262.917 94.45 269.692 92.968 277.737C91.4859 285.783 91.4859 288.323 84.2872 289.17C77.0886 290.017 62.6914 287.053 53.5873 282.395C44.4833 277.737 32.2032 275.408 32.2032 275.408L34.3204 258.047C34.3204 258.047 45.5418 256.141 54.2225 258.47C62.9032 260.799 62.9032 260.799 62.9032 260.799C62.9032 260.799 50.6232 253.601 54.0108 236.451C57.3984 219.301 67.6927 206.364 76.877 199.105C86.0614 191.846 105.248 213.373 105.248 213.373Z" fill="#EA5D01"/>
<path d="M91.9891 218.447L90.1267 220.624L88.2947 222.787L86.4812 224.925C85.878 225.634 85.2751 226.339 84.6679 227.04L84.5987 226.758C84.9461 226.88 85.3202 226.981 85.6888 227.069C86.0593 227.159 86.4336 227.234 86.8099 227.299C87.5624 227.428 88.3216 227.522 89.0841 227.577C90.6092 227.693 92.1433 227.65 93.6657 227.511C95.1875 227.358 96.6995 227.098 98.1819 226.716C99.6663 226.344 101.126 225.87 102.549 225.302L102.45 225.377C102.751 224.986 103.044 224.586 103.337 224.186C103.63 223.786 103.92 223.383 104.208 222.979C104.784 222.171 105.355 221.357 105.919 220.541L106.097 220.864C104.869 220.891 103.646 220.881 102.42 220.85C101.196 220.82 99.972 220.753 98.7509 220.649C97.5303 220.543 96.3113 220.387 95.1107 220.13C94.5118 219.999 93.9154 219.842 93.3455 219.608C93.0611 219.491 92.7852 219.349 92.5359 219.167C92.2896 218.988 92.0671 218.746 91.9891 218.447ZM91.9891 218.447C92.0814 218.742 92.3105 218.967 92.5609 219.132C92.8135 219.3 93.0921 219.425 93.3761 219.531C93.9459 219.742 94.5418 219.877 95.1398 219.987C96.3382 220.204 97.5551 220.304 98.7709 220.384C99.9875 220.46 101.207 220.488 102.427 220.5C103.646 220.51 104.868 220.494 106.083 220.45L106.489 220.436L106.261 220.774C105.704 221.599 105.142 222.42 104.573 223.237C104.003 224.054 103.429 224.867 102.823 225.663L102.784 225.714L102.724 225.738C101.285 226.318 99.8065 226.805 98.3004 227.187C96.7942 227.569 95.2572 227.828 93.7099 227.977C92.1617 228.117 90.6009 228.134 89.0507 228.002C88.2758 227.937 87.5032 227.836 86.7388 227.688C86.3564 227.615 85.976 227.531 85.5985 227.433C85.2194 227.334 84.8493 227.229 84.4714 227.088L84.2304 226.999L84.4022 226.806C85.0373 226.095 85.6769 225.387 86.316 224.683L88.2296 222.583L90.1246 220.507L91.9891 218.447Z" fill="#3B6B93"/>
<mask id="mask10_72_1619" style="mask-type:luminance" maskUnits="userSpaceOnUse" x="32" y="197" width="100" height="93">
<path d="M105.248 213.373C105.248 213.373 116.465 216.761 121.972 213.373C127.479 209.986 129.596 197.721 129.596 197.721L131.737 200.262C131.737 200.262 129.384 215.49 115.834 222.901C125.063 225.972 130.052 226.712 130.883 235.181C131.713 243.65 123.48 254.236 118.492 262.917C113.505 271.597 115.834 274.138 115.834 274.138C115.834 274.138 112.023 277.737 105.248 277.737C98.4728 277.737 96.3556 275.62 96.3556 275.62L99.8448 250.848C99.8448 250.848 93.6031 251.06 91.4859 256.988C89.3687 262.917 94.45 269.692 92.968 277.737C91.4859 285.783 91.4859 288.323 84.2872 289.17C77.0886 290.017 62.6914 287.053 53.5873 282.395C44.4833 277.737 32.2032 275.408 32.2032 275.408L34.3204 258.047C34.3204 258.047 45.5418 256.141 54.2225 258.47C62.9032 260.799 62.9032 260.799 62.9032 260.799C62.9032 260.799 50.6232 253.601 54.0108 236.451C57.3984 219.301 67.6927 206.364 76.877 199.105C86.0614 191.846 105.248 213.373 105.248 213.373Z" fill="white"/>
</mask>
<g mask="url(#mask10_72_1619)">
<g opacity="0.7">
<path d="M76.3511 196.405C74.7354 204.261 78.6453 212.943 85.5993 216.94C86.9432 217.713 88.4 218.336 89.5367 219.39C90.5305 220.312 91.2193 221.509 91.8661 222.7C93.8975 226.442 95.6676 230.326 97.1592 234.314C98.5586 231.081 100.745 228.192 103.475 225.967C105.081 224.658 106.861 223.583 108.635 222.512C110.948 221.116 113.262 219.719 115.575 218.323C119.477 215.968 123.429 213.573 126.574 210.274C129.719 206.976 132.013 202.607 131.845 198.053C131.78 196.29 131.205 194.346 129.663 193.488C128.378 192.773 126.759 193.017 125.405 193.591C122.425 194.855 120.285 197.477 117.815 199.569C113.425 203.287 107.72 205.421 101.968 205.494C96.2156 205.568 90.4582 203.582 85.9749 199.977C83.8431 198.262 81.5043 196.046 78.8226 196.586L76.3511 196.405Z" fill="#EA5D01"/>
</g>
<path d="M129.516 223.45C127.161 222.399 124.486 222.332 122.038 221.523L116.676 222.618C109.111 225.63 101.322 228.792 95.3729 234.279C92.8665 235.486 90.0298 236.173 87.3588 237.046C84.833 237.871 82.3679 238.911 79.77 239.469C77.8614 239.879 75.907 240.022 73.9602 240.165C70.1213 240.446 66.1783 241.11 70.2623 241.75C74.3214 242.386 86.4256 242.31 89.8827 240.09C92.639 238.319 95.0121 236.038 97.2774 233.659C102.154 230.833 107.254 228.331 112.81 227.672C119.614 226.865 127.319 229.567 130.29 235.741C132.614 240.57 131.619 246.265 130.563 251.519C133.098 246.87 135.687 242.05 136.145 236.775C136.604 231.5 134.352 225.607 129.516 223.45Z" fill="#EA5D01"/>
<path d="M60.5797 239.082C58.3153 239.605 56.0476 236.875 56.9778 234.745C60.8513 234.522 64.725 234.3 68.5987 234.078C65.6727 233.271 62.8736 232.007 60.3345 230.344C59.8191 230.007 59.2861 229.618 59.0692 229.042C58.8172 228.372 59.0539 227.628 59.2958 226.954C61.5243 220.747 64.2183 214.708 67.3474 208.903L57.3831 213.406C50.5357 223.361 48.595 236.528 52.279 248.034C54.3509 244.494 57.2059 241.415 60.5797 239.082Z" fill="#EA5D01"/>
<path d="M112.913 263.611C112.391 263.933 111.806 264.338 111.751 264.949C111.717 265.318 111.892 265.67 112.062 265.999C112.616 267.071 113.17 268.143 113.724 269.216C111.319 267.54 108.123 267.059 105.332 267.953C107.883 268.639 110.434 269.324 112.985 270.01C108.317 270.056 103.685 271.821 100.168 274.891C99.3255 275.627 98.0171 276.445 97.2439 275.636C97.0087 275.39 96.9088 275.048 96.8319 274.717C96.1502 271.779 96.6761 268.706 97.3116 265.758C98.4675 260.395 99.9797 255.116 101.491 249.842C101.704 249.098 101.932 248.326 102.446 247.747C103.051 247.065 103.958 246.751 104.823 246.464C107.228 245.667 109.632 244.87 112.037 244.073C109.127 243.962 106.201 244.27 103.378 244.983C104.955 243.078 106.533 241.173 108.11 239.268C102.106 241.462 97.0483 245.603 92.1168 249.671C91.5047 250.176 90.8687 250.712 90.5744 251.449C90.3123 252.105 90.355 252.838 90.4017 253.543C90.5499 255.779 90.6981 258.015 90.8463 260.251L93.6302 262.162C93.8219 265.908 94.0136 269.653 94.2052 273.398C94.372 276.657 94.7043 280.28 97.134 282.457C99.8449 284.887 103.99 284.492 107.567 283.82C111.761 283.033 115.982 282.045 119.73 280.007C120.879 279.382 122.041 278.587 122.532 277.375C122.84 276.614 122.848 275.77 122.855 274.949C122.921 266.285 123.45 256.976 128.766 250.134C124.201 255.39 118.836 259.951 112.913 263.611Z" fill="#EA5D01"/>
<path d="M67.5002 270.29C70.6933 271.532 74.219 271.905 77.6012 271.36C69.3701 268.878 63.9315 261.097 57.0249 256.589L49.5102 252.745C46.1281 251.603 42.4724 251.003 38.9756 251.722C35.479 252.442 32.1685 254.637 30.7231 257.902C35.5551 257.634 40.4048 257.689 45.2294 258.065C50.1013 258.445 55.2669 259.296 58.8921 262.572C61.8148 265.214 63.2983 269.042 65.3507 272.405C67.4031 275.768 70.6192 278.987 74.5583 278.924C71.7123 276.501 69.3086 273.561 67.5002 270.29Z" fill="#EA5D01"/>
<path d="M92.9635 285.891C91.6558 285.285 90.1722 285.2 88.731 285.198C83.8647 285.19 78.9979 286.013 74.4052 287.622C72.5006 288.289 70.5172 289.197 69.4917 290.935L81.1817 293.64C84.216 294.375 87.4199 294.399 90.4648 293.71C91.6551 293.44 92.8479 293.05 93.8122 292.301C94.7763 291.553 95.4849 290.393 95.4351 289.174C95.3761 287.734 94.2711 286.497 92.9635 285.891Z" fill="#EA5D01"/>
</g>
<path d="M152.374 269.626C151.465 269.393 148.969 268.676 147.611 268.29C149.63 268.881 154.296 270.299 154.313 270.671C154.334 271.148 150.32 271.354 149.223 271.005C148.13 270.661 146.528 271.608 144.074 270.508C142.396 269.752 137.305 266.03 133.542 263.095C133.375 263.004 133.201 262.869 133.02 262.684C131.954 261.845 131.025 261.093 130.349 260.515C128.208 259.192 125.001 257.625 121.37 255.93C110.528 250.881 95.9155 244.701 94.6446 240.433C92.7297 233.992 95.8807 222.589 95.8807 222.589L114.842 226.311L114.142 233.644L127.79 244.308L136.641 251.226C136.825 251.125 141.208 248.225 144.387 250.867C147.597 253.538 152.726 254.927 153.234 255.85C153.739 256.776 152.291 258.106 150.389 257.705C148.488 257.305 143.444 256.929 144.067 258.934C144.687 260.94 145.902 262.656 148.287 263.802C150.675 264.947 154.982 266.671 155.929 268.565C156.872 270.455 153.648 269.954 152.374 269.626Z" fill="#F5B0A6"/>
<mask id="mask11_72_1619" style="mask-type:luminance" maskUnits="userSpaceOnUse" x="94" y="222" width="63" height="50">
<path d="M152.374 269.625C151.465 269.392 148.969 268.675 147.611 268.289C149.631 268.88 154.296 270.298 154.313 270.67C154.334 271.147 150.32 271.353 149.223 271.004C148.13 270.66 146.529 271.607 144.074 270.507C142.396 269.751 137.306 266.029 133.542 263.094C133.375 263.003 133.201 262.868 133.02 262.683C131.954 261.844 131.025 261.092 130.349 260.514C128.208 259.191 125.001 257.624 121.37 255.929C110.528 250.88 95.9156 244.7 94.6447 240.432C92.7298 233.991 95.8808 222.588 95.8808 222.588L114.842 226.31L114.142 233.643L127.79 244.307L136.641 251.225C136.825 251.124 141.208 248.224 144.387 250.866C147.597 253.537 152.726 254.926 153.234 255.849C153.739 256.775 152.291 258.105 150.39 257.704C148.489 257.304 143.444 256.928 144.067 258.933C144.687 260.939 145.902 262.655 148.287 263.801C150.675 264.946 154.982 266.67 155.929 268.564C156.872 270.454 153.648 269.953 152.374 269.625Z" fill="white"/>
</mask>
<g mask="url(#mask11_72_1619)">
<path d="M86.7613 231.455C86.7613 231.455 120.143 226.466 120.915 225.631L126.114 217.822L94.9154 216.765L86.7613 231.455Z" fill="#F18A8B"/>
<path d="M89.639 237.454C88.6797 240.192 98.8476 252.26 98.8476 252.26C98.8476 252.26 102.445 247.742 98.8476 240.664C95.2501 233.585 89.639 237.454 89.639 237.454Z" fill="#F18A8B"/>
</g>
<path d="M152.374 269.627C151.465 269.393 148.969 268.676 147.611 268.29C149.63 268.882 154.296 270.299 154.313 270.671C154.334 271.148 150.32 271.354 149.223 271.005C148.13 270.661 146.528 271.608 144.074 270.508C142.396 269.752 137.305 266.03 133.542 263.095C133.375 263.005 133.201 262.869 133.02 262.684C131.954 261.845 131.025 261.093 130.349 260.515C128.208 259.192 125.001 257.625 121.37 255.93C121.415 250.899 124.747 246.909 127.79 244.308L136.641 251.226C136.825 251.125 141.208 248.225 144.387 250.868C147.597 253.538 152.726 254.927 153.234 255.85C153.739 256.776 152.291 258.106 150.389 257.705C148.489 257.305 143.444 256.929 144.067 258.934C144.687 260.94 145.902 262.656 148.287 263.802C150.675 264.947 154.982 266.671 155.929 268.565C156.872 270.455 153.648 269.954 152.374 269.627Z" fill="#89A3D1"/>
<mask id="mask12_72_1619" style="mask-type:luminance" maskUnits="userSpaceOnUse" x="121" y="244" width="36" height="28">
<path d="M152.374 269.625C151.465 269.392 148.969 268.675 147.611 268.288C149.631 268.88 154.296 270.297 154.313 270.67C154.334 271.147 150.32 271.352 149.223 271.004C148.13 270.659 146.529 271.606 144.074 270.506C142.396 269.751 137.306 266.029 133.542 263.094C133.375 263.003 133.201 262.867 133.02 262.683C131.954 261.844 131.025 261.092 130.349 260.514C128.208 259.191 125.001 257.624 121.37 255.928C121.415 250.897 124.747 246.907 127.79 244.307L136.641 251.225C136.825 251.124 141.209 248.224 144.387 250.866C147.597 253.537 152.726 254.926 153.234 255.848C153.739 256.774 152.291 258.104 150.39 257.704C148.489 257.304 143.444 256.928 144.067 258.933C144.687 260.938 145.902 262.655 148.287 263.8C150.675 264.946 154.982 266.669 155.929 268.563C156.872 270.454 153.648 269.952 152.374 269.625Z" fill="white"/>
</mask>
<g mask="url(#mask12_72_1619)">
<path d="M131.151 244.28C129.728 243.312 128.052 242.634 126.331 242.675C124.188 242.725 122.188 243.891 120.715 245.447C119.241 247.004 118.225 248.93 117.293 250.86C116.913 251.648 116.546 252.599 116.981 253.358L121.42 257.637C121.555 255.798 122.325 254.051 123.352 252.519C124.38 250.988 125.662 249.648 126.937 248.315C125.95 250.089 125.324 252.061 125.106 254.079C125.617 252.075 127.228 250.495 129.06 249.536C130.893 248.577 132.949 248.15 134.975 247.734C133.781 246.496 132.575 245.247 131.151 244.28Z" fill="#7795CA"/>
<path d="M153.688 263.602C154.849 263.407 156.014 262.907 156.725 261.968C157.781 260.572 157.587 258.613 157.175 256.912C156.971 256.069 156.672 255.162 155.936 254.703L154.211 254.396C154.289 255.477 153.335 256.417 152.286 256.686C151.238 256.955 150.131 256.711 149.087 256.422C148.044 256.133 146.982 255.795 145.902 255.88C144.823 255.966 143.702 256.595 143.41 257.638C143.212 258.348 143.433 259.125 143.849 259.734C144.264 260.342 144.855 260.807 145.459 261.23C147.859 262.907 150.799 264.088 153.688 263.602Z" fill="#7795CA"/>
<path d="M157.092 268.211C152.198 271.484 149.331 267.317 145.619 266.127C147.08 267.6 148.997 268.519 150.9 269.346C152.197 269.909 153.532 270.45 154.94 270.585C156.347 270.72 157.86 270.398 158.889 269.427L157.092 268.211Z" fill="#7795CA"/>
<path d="M144.694 268.713C144.799 269.387 146.782 270.579 147.294 271.029C148.426 272.023 148.396 271.967 149.903 271.971L152.198 271.485C149.633 270.794 147.151 269.792 144.826 268.507C144.735 268.462 144.679 268.613 144.694 268.713Z" fill="#7795CA"/>
</g>
<path d="M76.8769 199.105C76.8769 199.105 77.3004 217.395 96.779 210.62C94.6618 217.184 93.3914 222.477 93.3914 222.477L116.046 226.923C116.046 226.923 125.04 201.492 122.29 192.717C119.539 183.943 95.7204 180.391 76.8769 199.105Z" fill="#6FC183"/>
<mask id="mask13_72_1619" style="mask-type:luminance" maskUnits="userSpaceOnUse" x="76" y="185" width="47" height="42">
<path d="M76.877 199.103C76.877 199.103 77.3005 217.394 96.7792 210.619C94.6619 217.182 93.3916 222.475 93.3916 222.475L116.046 226.922C116.046 226.922 125.04 201.49 122.29 192.716C119.54 183.941 95.7206 180.389 76.877 199.103Z" fill="white"/>
</mask>
<g mask="url(#mask13_72_1619)">
<path d="M98.3211 218.672C98.0935 217.87 98.2017 217.016 98.3117 216.19C98.7295 213.049 99.1474 209.908 99.5653 206.767C99.626 206.311 99.6911 205.842 99.9199 205.442C100.129 205.077 100.459 204.799 100.782 204.529C102.108 203.421 103.434 202.313 104.76 201.205C102.864 202.015 100.968 202.825 99.0722 203.635C98.7463 200.973 98.6442 198.283 98.7671 195.604C98.4281 198.276 97.8157 201.359 95.4213 202.594C94.5105 203.063 93.4583 203.182 92.4336 203.176C86.6084 203.145 81.0495 198.942 79.4321 193.346L66.7457 200.423C69.5217 203.581 73.2855 205.66 76.7667 208.019C80.2478 210.379 83.6531 213.273 85.0617 217.235C85.9188 219.646 85.9561 222.34 85.1661 224.773C85.0218 225.217 84.8489 225.688 84.9697 226.14C85.188 226.956 86.1866 227.232 87.0219 227.359C95.0232 228.579 103.137 229.063 111.226 228.802C107.434 226.661 103.833 224.179 100.481 221.397C99.5743 220.646 98.6426 219.805 98.3211 218.672Z" fill="#5DB474"/>
<path d="M100.329 185.016C102.67 184.873 104.981 185.501 107.242 186.123C109.552 186.759 111.905 187.414 113.908 188.729C117.748 191.25 119.74 195.842 120.558 200.362C121.501 205.569 121.146 211.006 119.534 216.047C123.049 209.641 125.709 202.565 125.715 195.259C125.716 193.518 125.565 191.769 125.132 190.082C123.804 184.91 119.671 180.552 114.577 178.952C109.483 177.352 103.599 178.564 99.5529 182.048L100.329 185.016Z" fill="#5DB474"/>
<path d="M120.783 214.207C120.343 215.027 119.879 215.834 119.388 216.625C119.939 215.864 120.397 215.053 120.783 214.207Z" fill="#5DB474"/>
</g>
<path d="M120.915 173.145L129.27 175.512L151.612 181.835C151.789 181.371 156.312 166.079 143.796 161.641C141.283 160.75 138.93 160.27 136.745 160.213C129.66 160.02 124.338 164.242 120.915 173.145Z" fill="#F3CE90"/>
<path d="M120.915 173.145L129.27 175.512C128.749 174.103 128.73 172.405 128.994 170.895C129.545 167.739 131.007 164.703 133.334 162.502C134.329 161.56 135.491 160.778 136.745 160.213C129.66 160.02 124.338 164.242 120.915 173.145Z" fill="#F19A6D"/>
<path d="M140.954 178.639C141.773 171.904 137.51 166.58 135.305 164.564C133.354 162.785 131.245 161.98 128.905 162.135C127.055 162.263 126.207 163.439 126.114 164.484C128.815 163.855 131.974 164.889 133.933 166.728C138.75 171.251 140.42 176.921 140.954 178.639Z" fill="#F1C479"/>
<path d="M149.082 179.691C149.995 176.11 150.32 172.267 148.971 168.666C147.623 165.066 143.007 161.505 138.858 160.369C139.911 159.183 142.692 159.444 145.5 160.869C147.7 161.987 150.428 165.12 151.008 167.278C152.12 171.426 151.344 176.377 149.082 179.691Z" fill="#F1C479"/>
<path d="M150.395 181.413C152.98 178.8 152.647 174.39 152.15 171.173C154.103 172.624 154.283 175.276 153.964 176.816C153.531 178.919 152.56 180.975 150.395 181.413Z" fill="#F1C479"/>
<path d="M134.559 177.064C134.559 177.064 156.143 186.149 156.962 184.75C156.983 184.723 156.992 184.692 156.99 184.655C156.967 182.791 153.386 177.444 150.108 176.517C147.406 175.753 141.954 176.166 138.276 176.579C136.109 176.822 134.559 177.064 134.559 177.064Z" fill="#F19A6D"/>
<path d="M134.559 177.065C134.559 177.065 156.143 186.15 156.962 184.751C153.542 183.918 150.181 182.871 146.893 181.615C144.559 180.722 142.242 179.715 140.217 178.245C139.528 177.745 138.874 177.192 138.276 176.581C136.109 176.823 134.559 177.065 134.559 177.065Z" fill="#F3CE90"/>
</svg>
