<svg width="384" height="324" viewBox="0 0 384 324" fill="none" xmlns="http://www.w3.org/2000/svg">
<path d="M365.228 228.018C361.802 260.8 347.351 289.228 326.505 309.17C324.681 310.914 322.809 312.593 320.89 314.205H38.646C37.5648 312.556 36.5199 310.877 35.5116 309.17C20.0753 283.028 13.3075 250.256 19.2166 216.542C22.4115 198.311 29.0632 181.641 38.3045 167.304C46.4107 154.728 51.5072 140.07 53.0855 124.71C53.0941 124.627 53.1028 124.543 53.1114 124.46C60.2889 55.7723 115.869 6.20667 177.253 13.751C212.703 18.1074 242.334 40.5606 259.663 71.9839C265.574 82.7028 274.815 90.5966 285.658 94.0609C337.064 110.486 371.658 166.486 365.228 228.018Z" fill="#5C88A5"/>
<path d="M42.4529 146.505C46.8365 130.07 43.9264 115.022 35.9531 112.896C27.9797 110.769 17.9624 122.369 13.5788 138.804C9.19526 155.239 12.1053 170.287 20.0787 172.414C28.0521 174.54 38.0693 162.941 42.4529 146.505Z" fill="#5C88A5"/>
<path d="M314.809 90.7635C321.49 82.9643 313.875 65.4765 297.798 51.7033C281.722 37.9302 263.273 33.0874 256.591 40.8866C249.909 48.6858 257.525 66.1736 273.601 79.9468C289.678 93.7199 308.127 98.5627 314.809 90.7635Z" fill="#5C88A5"/>
<path d="M183.772 181.977L112.685 183.942C105.256 173.731 98.2991 41.2596 146.161 41.2539C195.449 41.2481 191.046 171.6 183.772 181.977Z" fill="#261B1B"/>
<path d="M330.472 68.916H255.497V174.291H330.472V68.916Z" fill="#353535"/>
<path d="M328.536 73.4604H257.433V173.394H328.536V73.4604Z" fill="white"/>
<path d="M317.668 70.7197H268.917V75.2956H317.668V70.7197Z" fill="#C6C6C6"/>
<path d="M325.412 81.6123H260.997V94.4847H325.412V81.6123Z" fill="#CFE0E5"/>
<path d="M288.452 119.628H260.997V132.5H288.452V119.628Z" fill="#CFE0E5"/>
<path d="M325.412 96.9434H260.997V97.9993H325.412V96.9434Z" fill="#CFE0E5"/>
<path d="M325.412 99.1875H260.997V100.243H325.412V99.1875Z" fill="#CFE0E5"/>
<path d="M325.412 101.431H260.997V102.487H325.412V101.431Z" fill="#CFE0E5"/>
<path d="M325.412 103.675H260.997V104.731H325.412V103.675Z" fill="#CFE0E5"/>
<path d="M325.412 105.919H260.997V106.975H325.412V105.919Z" fill="#CFE0E5"/>
<path d="M325.412 108.163H260.997V109.219H325.412V108.163Z" fill="#CFE0E5"/>
<path d="M325.412 110.407H260.997V111.463H325.412V110.407Z" fill="#CFE0E5"/>
<path d="M325.412 112.651H260.997V113.707H325.412V112.651Z" fill="#CFE0E5"/>
<path d="M325.412 114.895H260.997V115.951H325.412V114.895Z" fill="#CFE0E5"/>
<path d="M325.412 133.727H260.997V134.783H325.412V133.727Z" fill="#CFE0E5"/>
<path d="M325.412 135.971H260.997V137.027H325.412V135.971Z" fill="#CFE0E5"/>
<path d="M325.412 138.215H260.997V139.271H325.412V138.215Z" fill="#CFE0E5"/>
<path d="M325.412 140.458H260.997V141.514H325.412V140.458Z" fill="#CFE0E5"/>
<path d="M325.412 142.703H260.997V143.759H325.412V142.703Z" fill="#CFE0E5"/>
<path d="M325.412 144.947H260.997V146.003H325.412V144.947Z" fill="#CFE0E5"/>
<path d="M325.412 147.19H260.997V148.246H325.412V147.19Z" fill="#CFE0E5"/>
<path d="M325.412 149.435H260.997V150.491H325.412V149.435Z" fill="#CFE0E5"/>
<path d="M325.412 151.679H260.997V152.735H325.412V151.679Z" fill="#CFE0E5"/>
<path d="M325.412 158.253H260.997V159.309H325.412V158.253Z" fill="#CFE0E5"/>
<path d="M325.412 160.497H260.997V161.553H325.412V160.497Z" fill="#CFE0E5"/>
<path d="M325.412 162.741H260.997V163.797H325.412V162.741Z" fill="#CFE0E5"/>
<path d="M325.412 164.985H260.997V166.041H325.412V164.985Z" fill="#CFE0E5"/>
<path d="M325.412 167.229H260.997V168.285H325.412V167.229Z" fill="#CFE0E5"/>
<path d="M325.412 119.954H293.204V121.01H325.412V119.954Z" fill="#CFE0E5"/>
<path d="M325.412 122.198H293.204V123.254H325.412V122.198Z" fill="#CFE0E5"/>
<path d="M325.412 124.414H293.204V125.47H325.412V124.414Z" fill="#CFE0E5"/>
<path d="M325.412 126.658H293.204V127.714H325.412V126.658Z" fill="#CFE0E5"/>
<path d="M325.412 128.874H293.204V129.93H325.412V128.874Z" fill="#CFE0E5"/>
<path d="M325.412 131.118H293.204V132.174H325.412V131.118Z" fill="#CFE0E5"/>
<path d="M284.301 194.416C288.954 192.266 290.539 188.736 291.939 186.978C293.524 184.988 299.337 181.168 299.375 177.652C299.426 172.89 292.818 164.605 290.952 165.858C289.054 167.134 289.784 168.393 292.225 172.665C292.645 173.402 292.931 175.75 292.931 175.75C290.391 172.734 289.049 171.535 287.34 170.47C285.693 169.443 281.083 167.849 279.607 169.324C277.906 171.024 280.643 172.725 280.426 172.682C279.105 172.422 277.897 172.243 276.392 172.191C273.998 172.153 272.227 171.734 271.438 172.923C270.147 174.867 272.877 175.987 273.38 176.382C268.039 177.118 267.817 177.762 266.677 178.561C264.201 180.297 261.514 184.465 257.842 188.437C254.171 192.41 238.481 201.882 238.481 201.882L252.635 217.129C252.635 217.129 262.049 203.719 266.31 200.759C270.571 197.8 279.649 196.566 284.301 194.416Z" fill="#D8A77D"/>
<path d="M268.867 178.047C269.482 176.279 273.387 176.075 274.271 176.196C274.832 176.272 275.459 176.471 276.463 176.766C278.36 177.325 280.321 177.902 281.021 178.34C281.697 178.762 282.474 179.316 283.108 180.224C283.837 181.268 284.212 182.537 284.255 184.107C284.29 185.45 284.255 186.913 284.198 188.184H283.524C283.579 186.92 283.616 185.462 283.58 184.125C283.499 181.087 282.06 179.785 280.664 178.911C280.042 178.523 278.039 177.934 276.273 177.414C274.909 177.013 274.64 176.876 274.074 176.824C272.498 176.678 269.854 177.262 269.504 178.269C269.365 178.666 269.41 179.03 269.639 179.38C270.075 180.045 271.153 180.566 272.26 180.649C274.247 180.797 276.707 181.638 277.65 183.554C278.06 184.387 278.215 186.191 277.585 188.184L276.942 187.98C277.484 186.264 277.399 184.573 277.045 183.852C276.227 182.191 274.011 181.456 272.21 181.322C271.239 181.249 270.039 180.838 269.332 180.076C269.237 179.974 269.151 179.865 269.075 179.751C268.733 179.228 268.66 178.639 268.867 178.047Z" fill="#A1542E"/>
<path d="M264.622 186.577L264.254 186.011C266.328 184.663 268.735 184.383 270.389 184.386C272.172 184.389 273.456 184.704 273.51 184.717L273.346 185.372L273.428 185.045L273.347 185.372C273.297 185.36 268.33 184.166 264.622 186.577Z" fill="#A1542E"/>
<path d="M280.36 172.833C280.646 172.955 281.588 173.263 281.89 173.381C283.034 173.823 284.216 174.28 285.095 175.114C286.613 176.552 287.671 178.289 288.238 180.277C288.648 181.71 288.056 186.881 288.049 186.933L288.719 187.011C288.745 186.793 289.333 181.653 288.887 180.092C288.286 177.986 287.167 176.147 285.56 174.624C284.584 173.699 283.283 173.195 282.135 172.751C281.856 172.643 280.945 172.345 280.69 172.24L280.36 172.833Z" fill="#A1542E"/>
<path d="M293.084 180.354C293.084 180.355 293.084 180.355 293.084 180.355L293.42 180.377L293.757 180.4C293.761 180.345 293.846 179.026 293.538 177.27C293.4 176.489 293.168 175.548 292.777 174.581L292.198 174.955C293.242 177.639 293.087 180.295 293.084 180.354Z" fill="#A1542E"/>
<path d="M270.992 211.245L254.978 226.091C240.719 238.73 221.852 244.104 209.663 239.912C205.435 238.458 202.011 235.853 199.862 232.001L207.254 308.731L207.455 311.516L207.555 312.914L148.44 313.103H141.532L81.9255 312.914L82.0263 311.516L82.2258 308.731L89.8101 231.644C87.2197 232.048 84.8527 232.247 82.6911 232.269C80.4154 232.292 78.367 232.118 76.5229 231.779C56.0391 228.026 60.8574 204 60.8574 204C60.8574 204 68.8014 163.374 92.4131 142.894C95.4122 140.293 98.6628 138.017 102.183 136.189C106.994 133.693 112.307 132.036 118.161 131.537C118.22 131.531 118.278 131.525 118.338 131.52C118.339 131.52 118.339 131.52 118.339 131.52C118.731 131.482 119.125 131.448 119.522 131.416C120.909 131.303 122.324 131.22 123.769 131.17C124.123 131.156 124.479 131.146 124.837 131.137C125.789 131.113 126.752 131.104 127.729 131.108C131.415 131.123 135.279 130.809 139.346 130.793C140.895 130.787 142.419 130.792 143.919 130.809C145.418 130.792 146.941 130.787 148.491 130.793C152.559 130.809 156.422 131.123 160.109 131.108C162.201 131.099 164.237 131.147 166.214 131.245C166.761 131.273 167.303 131.304 167.841 131.339C167.992 131.35 168.143 131.36 168.294 131.37C168.694 131.398 169.089 131.429 169.482 131.461C169.527 131.464 169.571 131.468 169.617 131.472C170.03 131.505 170.441 131.543 170.848 131.582C171.784 131.671 172.705 131.773 173.615 131.887C174.1 131.948 174.585 132 175.062 132.08C181.68 133.182 187.484 135.482 192.569 138.605C196.036 140.733 199.17 143.244 202 146.019C223.322 166.913 227.441 202.752 227.441 202.752L252.723 190.612L270.992 211.245Z" fill="white"/>
<path d="M207.455 311.516H82.0262L82.2258 308.73L89.8101 231.644C87.5871 231.99 93.9318 157.805 102.183 136.189C103.894 135.302 105.668 134.521 107.506 133.861C110.242 132.875 113.124 132.159 116.156 131.757C116.817 131.667 117.486 131.594 118.161 131.537C118.22 131.531 118.278 131.525 118.338 131.52C118.339 131.52 118.339 131.52 118.339 131.52C118.731 131.482 119.125 131.448 119.522 131.416C120.909 131.303 122.324 131.22 123.769 131.169C129.523 145.314 145.959 181.265 147.118 181.279C148.273 181.265 170.441 131.543 170.848 131.582C171.784 131.671 172.705 131.773 173.615 131.887C174.1 131.948 174.585 132 175.062 132.08C175.859 132.212 176.642 132.363 177.415 132.53C180.447 133.182 183.3 134.093 185.984 135.221C188.302 136.195 190.496 137.331 192.569 138.605C198.164 159.863 197.312 215.796 199.862 232.001L207.254 308.73L207.455 311.516Z" fill="#F27006"/>
<path d="M116.156 131.757L110.39 311.494L110.389 311.516L110.33 313.334L101.783 312.246L101.806 311.516L101.807 311.494L107.506 133.861C110.242 132.876 113.124 132.159 116.156 131.757Z" fill="#A7ACA6"/>
<path d="M191.663 312.258L183.215 313.334L183.156 311.516L177.415 132.53C180.447 133.182 183.3 134.093 185.984 135.221L191.639 311.516L191.663 312.258Z" fill="#A7ACA6"/>
<path d="M128.449 189.838L134.744 205.403C143.861 201.119 149.088 202.013 153.358 201.222C159.12 200.153 160.61 199.601 165.554 197.478C165.554 197.478 171.054 195.998 170.404 193.203C170.033 191.603 168.788 191.398 168.174 191.382C168.545 191.157 171.262 190.353 170.674 187.819C170.13 185.471 168.154 186.204 167.443 185.998C167.443 185.998 170.543 184.875 169.919 183.07C169.184 180.94 167.007 181.165 166.287 180.94L175.792 178.174C177.939 177.415 182.865 176.39 182.072 173.429C181.189 170.136 170.157 174.839 149.998 179.226C149.174 179.405 147.229 180.278 146.881 177.971C146.532 175.664 148.811 169.396 149.13 166.938C149.447 164.481 146.233 158.698 145.253 163.247C144.44 167.02 143.399 167.198 142.237 170.152C141.642 171.659 141.734 173.735 139.892 177.937C138.048 182.137 137.218 186.316 134.429 187.467C132.704 188.179 130.686 188.978 128.449 189.838Z" fill="#D7A77D"/>
<path d="M157.428 183.907L166.266 181.549L166.072 180.823L157.234 183.18L157.428 183.907Z" fill="#A1542E"/>
<path d="M158.508 188.904L167.347 186.546L167.153 185.82L158.314 188.177L158.508 188.904Z" fill="#A1542E"/>
<path d="M159.202 194.056L168.041 191.698L167.847 190.972L159.009 193.329L159.202 194.056Z" fill="#A1542E"/>
<path d="M187.502 211.329H109.047V231.041H187.502V211.329Z" fill="#A7ACA6"/>
<path d="M188.749 250.812H104.075V267.11H188.749V250.812Z" fill="#A7ACA6"/>
<path d="M136.286 206.068L89.8101 231.644C87.2197 232.048 84.8527 232.246 82.6911 232.268C80.4154 232.291 78.367 232.118 76.5229 231.779V198.544L127.614 184.809L136.286 206.068Z" fill="white"/>
<path d="M89.7993 231.321L135.933 205.5L136.286 206.283L90.1524 232.103L89.7993 231.321Z" fill="#5C88A5"/>
<path d="M77.7067 197.698L127.442 184.316L127.586 185.162L77.8508 198.545L77.7067 197.698Z" fill="#5C88A5"/>
<path d="M176.13 81.4069C176.13 101.293 163.113 125.433 147.057 125.433C131 125.433 117.983 101.293 117.983 81.4069C117.983 61.5208 131 45.3999 147.057 45.3999C163.113 45.3999 176.13 61.5208 176.13 81.4069Z" fill="#D8A77D"/>
<path d="M175.505 66.1853C178.169 74.8572 180.18 77.8194 176.463 79.2773C166.235 83.2887 135.595 67.4343 131.359 62.991C130.48 72.278 122.725 81.0435 122.468 81.0613C113.464 81.6852 119.544 68.1069 120.759 62.5817C122.964 52.5501 128.319 41.2734 147.042 41.2734C165.764 41.2734 172.493 56.382 175.505 66.1853Z" fill="black"/>
<path d="M123.226 97.8166C126.415 96.7706 127.649 91.7994 125.981 86.7131C124.313 81.6268 120.375 78.3515 117.185 79.3975C113.996 80.4435 112.762 85.4147 114.43 90.501C116.098 95.5873 120.036 98.8626 123.226 97.8166Z" fill="#D8A77D"/>
<path d="M120.357 93.3182C120.217 93.2237 116.933 90.9688 116.789 87.8448C116.71 86.1455 117.577 84.5408 119.364 83.0752L119.819 83.6292C118.216 84.9426 117.438 86.3491 117.504 87.809C117.63 90.5725 120.727 92.7035 120.759 92.7248L120.357 93.3182Z" fill="#A1542E"/>
<path d="M179.214 90.3797C180.882 85.2934 179.648 80.3222 176.458 79.2762C173.269 78.2302 169.331 81.5055 167.663 86.5918C165.995 91.678 167.229 96.6492 170.418 97.6952C173.608 98.7412 177.546 95.466 179.214 90.3797Z" fill="#D8A77D"/>
<path d="M172.886 94.3284C173.026 94.2339 176.31 91.9791 176.454 88.8551C176.533 87.1558 175.666 85.5511 173.879 84.0854L173.424 84.6394C175.026 85.9529 175.805 87.3593 175.739 88.8193C175.613 91.5827 172.516 93.7137 172.484 93.735L172.886 94.3284Z" fill="#A1542E"/>
<path d="M169.601 84.7437L169.94 83.7562C169.846 83.7145 166.509 81.4371 163.889 81.0699C160.31 80.568 160.152 80.7307 156.159 81.5136L156.395 82.7434C164.053 80.154 169.516 84.7053 169.601 84.7437Z" fill="#160707"/>
<path d="M126.663 84.8094L126.315 83.8255C126.408 83.7828 129.722 81.4719 132.338 81.0783C135.911 80.5403 136.071 80.7014 140.072 81.4439L139.848 82.676C132.164 80.164 126.748 84.7703 126.663 84.8094Z" fill="#160707"/>
<path d="M139.512 87.6865L138.983 88.1404C138.682 87.7902 138.371 87.481 138.051 87.2149C137.621 86.8555 137.173 86.5739 136.716 86.3723C135.69 85.9202 134.577 85.8577 133.407 86.1864C133.082 86.2775 132.767 86.3948 132.463 86.5301C130.366 87.4653 128.837 89.2696 128.82 89.2902L128.285 88.8427C128.369 88.7426 130.311 86.4459 132.956 85.5935C133.043 85.5661 133.13 85.54 133.218 85.515C134.548 85.1413 135.819 85.2152 136.996 85.7335C137.192 85.8196 137.385 85.9181 137.575 86.0286C138.256 86.4249 138.906 86.9808 139.512 87.6865Z" fill="#160707"/>
<path d="M137.341 87.9893C137.341 89.9351 136.404 91.5131 135.248 91.5131C134.092 91.5131 133.155 89.9351 133.155 87.9893C133.155 87.162 133.324 86.4017 133.609 85.8002C134.74 85.6101 135.949 85.713 137.11 86.3808C137.258 86.8629 137.341 87.4095 137.341 87.9893Z" fill="#160707"/>
<path d="M167.383 89.5451C167.365 89.5205 165.488 87.0595 162.963 86.209C161.813 85.8198 160.698 85.8247 159.649 86.2233C158.834 86.5326 158.041 87.0874 157.293 87.8725L156.788 87.3914C157.609 86.5302 158.488 85.9178 159.402 85.5712C160.605 85.1137 161.879 85.1059 163.186 85.5481C165.92 86.4687 167.86 89.0179 167.941 89.1259L167.383 89.5451Z" fill="#160707"/>
<path d="M163.091 87.9814C163.091 89.9272 162.153 91.5043 160.998 91.5043C159.842 91.5043 158.905 89.9272 158.905 87.9814C158.905 87.4016 158.988 86.855 159.136 86.3729C160.296 85.705 161.506 85.6013 162.637 85.7922C162.921 86.3929 163.091 87.1541 163.091 87.9814Z" fill="#160707"/>
<path d="M149.088 102.047C148.084 102.047 146.957 101.297 146.81 101.196L147.303 100.477C147.821 100.831 148.832 101.324 149.34 101.138C149.438 101.102 149.579 101.019 149.66 100.721C149.991 99.5187 148.405 91.9731 147.258 87.1946L148.106 86.9912C148.403 88.2302 150.996 99.1487 150.501 100.952C150.327 101.586 149.936 101.848 149.639 101.957C149.465 102.02 149.279 102.047 149.088 102.047Z" fill="#160707"/>
<path d="M160.099 136.488V136.36V107.302H135.005V136.36C135.005 136.36 138.469 146.199 147.082 146.199C157.478 146.199 160.099 136.488 160.099 136.488Z" fill="#D8A77D"/>
<path d="M136.511 121.236C136.218 121.043 135.938 120.852 135.671 120.663L135.179 121.169C135.473 121.379 135.785 121.593 136.113 121.808C138.592 123.437 142.498 125.449 147.031 125.781L147.082 125.085C142.705 124.765 138.918 122.815 136.511 121.236Z" fill="#A1542E"/>
<path d="M138.14 87.7408C138.353 89.7181 137.21 91.4628 135.585 91.638C133.961 91.8131 132.471 90.3521 132.258 88.3749C132.187 87.718 132.266 87.0868 132.463 86.5301C132.585 86.1853 132.752 85.8692 132.956 85.5936C133.043 85.5661 133.13 85.54 133.218 85.515C134.548 85.1413 135.819 85.2152 136.996 85.7335C137.192 85.8196 137.385 85.9181 137.575 86.0286C137.787 86.3819 137.95 86.7818 138.051 87.2149C138.091 87.3854 138.121 87.5609 138.14 87.7408Z" fill="black"/>
<path d="M163.434 85.6367C163.626 85.9221 163.778 86.2466 163.883 86.5981C164.053 87.1666 164.101 87.8052 163.996 88.4614C163.681 90.4251 162.117 91.807 160.505 91.5484C158.891 91.2896 157.839 89.4881 158.154 87.5245C158.183 87.3427 158.223 87.166 158.273 86.9952C158.397 86.5668 158.582 86.1749 158.814 85.8332L163.434 85.6367Z" fill="black"/>
<path d="M140.236 106.172L139.512 106.682C139.763 107.176 140.074 107.671 140.459 108.149C140.836 108.616 141.262 109.039 141.736 109.418C143.48 110.814 145.877 111.614 148.887 111.804L148.942 110.934C145.372 110.709 142.749 109.59 141.144 107.609C140.768 107.145 140.471 106.659 140.236 106.172Z" fill="#160707"/>
<path d="M178.805 78.2696H115.359V68.4731C115.359 51.4227 129.181 37.6006 146.232 37.6006H147.933C164.983 37.6006 178.805 51.4226 178.805 68.4731V78.2696Z" fill="white"/>
<path d="M181.479 74.3804H112.685V78.2698H181.479V74.3804Z" fill="#E1E8EF"/>
<path d="M158.143 74.3806H137.237C141.127 63.3857 140.883 40.3179 140.883 40.3179C140.883 37.1032 143.822 34.4971 147.447 34.4971C151.072 34.4971 154.01 37.1032 154.01 40.3179C154.01 40.3179 154.253 57.996 158.143 74.3806Z" fill="#EBEEF3"/>
<path d="M131.464 45.3607H135.11V37.2748C135.11 36.9272 134.828 36.6455 134.481 36.6455H132.093C131.746 36.6455 131.464 36.9273 131.464 37.2748L131.464 45.3607Z" fill="#EBEEF3"/>
<path d="M159.54 45.3607H163.187V37.2748C163.187 36.9272 162.905 36.6455 162.557 36.6455H160.17C159.822 36.6455 159.541 36.9273 159.541 37.2748L159.54 45.3607Z" fill="#EBEEF3"/>
<path d="M119.145 99.3326C120.228 99.3326 121.106 98.4544 121.106 97.3711C121.106 96.2878 120.228 95.4097 119.145 95.4097C118.062 95.4097 117.184 96.2878 117.184 97.3711C117.184 98.4544 118.062 99.3326 119.145 99.3326Z" fill="white"/>
<path d="M174.472 99.3326C175.555 99.3326 176.433 98.4544 176.433 97.3711C176.433 96.2878 175.555 95.4097 174.472 95.4097C173.388 95.4097 172.51 96.2878 172.51 97.3711C172.51 98.4544 173.388 99.3326 174.472 99.3326Z" fill="white"/>
<path d="M132.781 125.287L147.479 147.219L138.449 156.685L129.627 130.784V125.287H132.781Z" fill="white"/>
<path d="M161.981 125.309L147.283 147.24L156.313 156.706L165.135 130.714V125.309H161.981Z" fill="white"/>
<path d="M138.273 156.704L129.228 130.941L130.027 130.722L138.626 155.213L147.163 146.499L147.795 146.984L138.273 156.704Z" fill="#5C88A5"/>
<path d="M156.492 156.706L146.967 146.984L147.599 146.498L156.134 155.21L164.735 130.353L165.535 130.569L156.492 156.706Z" fill="#5C88A5"/>
<path d="M22.2504 312.028C22.2504 312.63 22.5353 313.174 22.9949 313.567C23.4535 313.961 24.0867 314.205 24.7881 314.205H366.011C367.412 314.205 368.548 313.23 368.548 312.028C368.548 311.426 368.264 310.882 367.805 310.489C367.345 310.095 366.71 309.851 366.011 309.851H24.7881C23.3873 309.851 22.2504 310.826 22.2504 312.028Z" fill="#32586D"/>
<path d="M251.924 301.966C251.924 297.766 250.478 294.36 248.695 294.36H327.047C328.351 294.36 329.409 297.766 329.409 301.966C329.409 306.167 328.351 309.572 327.047 309.572H248.695C250.478 309.572 251.924 306.167 251.924 301.966Z" fill="#563022"/>
<path d="M251.424 301.966C251.547 298.681 250.609 296.762 249.809 295.366H325.185C326.438 295.366 327.454 298.321 327.454 301.966C327.454 305.611 326.438 308.566 325.185 308.566H249.809C250.734 306.87 251.29 305.568 251.424 301.966Z" fill="#D3C5B6"/>
<path d="M324.807 296.905H253.531V296.991H324.807V296.905Z" fill="#563022"/>
<path d="M325.423 298.625H254.147V298.711H325.423V298.625Z" fill="#563022"/>
<path d="M325.682 300.056H254.407V300.142H325.682V300.056Z" fill="#563022"/>
<path d="M325.682 301.334H254.407V301.42H325.682V301.334Z" fill="#563022"/>
<path d="M325.682 302.856H254.407V302.942H325.682V302.856Z" fill="#563022"/>
<path d="M325.225 304.335H253.95V304.421H325.225V304.335Z" fill="#563022"/>
<path d="M324.807 306.22H253.531V306.305H324.807V306.22Z" fill="#563022"/>
<path d="M323.697 307.682H252.421V307.768H323.697V307.682Z" fill="#563022"/>
<path d="M331.201 276.498C331.201 278.906 330.144 280.859 328.839 280.859H250.487C250.666 280.859 250.954 280.561 251.253 280.09C251.844 279.162 252.477 277.561 252.389 276.26C252.301 274.948 251.855 273.747 251.385 272.984C251.06 272.455 250.723 272.137 250.487 272.137H328.839C330.144 272.137 331.201 274.089 331.201 276.498Z" fill="#563022"/>
<path d="M329.246 276.538C329.246 278.5 328.195 280.09 326.9 280.09H251.254C251.845 279.162 252.477 277.561 252.39 276.26C252.301 274.948 251.855 273.747 251.385 272.984H326.9C328.195 272.984 329.246 274.575 329.246 276.538Z" fill="#D3C5B6"/>
<path d="M325.748 274.239H254.472V274.325H325.748V274.239Z" fill="#563022"/>
<path d="M326.634 275.814H255.358V275.9H326.634V275.814Z" fill="#563022"/>
<path d="M326.599 277.411H255.324V277.496H326.599V277.411Z" fill="#563022"/>
<path d="M325.489 278.969H254.213V279.055H325.489V278.969Z" fill="#563022"/>
<path d="M257.348 287.641C257.348 283.935 255.777 280.931 253.838 280.931H339C340.418 280.931 341.567 283.935 341.567 287.641C341.567 291.347 340.418 294.351 339 294.351H253.838C255.777 294.351 257.348 291.347 257.348 287.641Z" fill="#938D8A"/>
<path d="M257.234 287.642C257.364 284.743 256.366 283.05 255.514 281.819H335.778C337.112 281.819 338.194 284.426 338.194 287.642C338.194 290.857 337.112 293.464 335.778 293.464H255.514C256.499 291.968 257.091 290.819 257.234 287.642Z" fill="#F4EDE9"/>
<path d="M335.359 283.177H259.018V283.252H335.359V283.177Z" fill="#B8B2AD"/>
<path d="M336.019 284.694H259.678V284.77H336.019V284.694Z" fill="#B8B2AD"/>
<path d="M336.297 285.957H259.956V286.032H336.297V285.957Z" fill="#B8B2AD"/>
<path d="M336.297 287.084H259.956V287.16H336.297V287.084Z" fill="#B8B2AD"/>
<path d="M336.297 288.426H259.956V288.502H336.297V288.426Z" fill="#B8B2AD"/>
<path d="M335.807 289.731H259.466V289.807H335.807V289.731Z" fill="#B8B2AD"/>
<path d="M335.359 291.394H259.018V291.469H335.359V291.394Z" fill="#B8B2AD"/>
<path d="M334.17 292.684H257.829V292.76H334.17V292.684Z" fill="#B8B2AD"/>
<path d="M329.076 259.356C327.158 276.016 323.964 282.938 332.126 283.878C339.495 284.726 338.78 277.354 340.698 260.694C342.616 244.034 340.341 230.087 338.157 229.836C335.974 229.585 330.994 242.696 329.076 259.356Z" fill="#317717"/>
<path d="M338.467 246.205C337.419 246.011 337.51 245.876 333.869 246.25C332.118 246.43 331.306 246.293 331.306 246.293L331.026 247.548C331.026 247.548 332.368 247.894 334.312 247.664C336.256 247.433 337.7 247.655 339.559 248.116C341.418 248.578 341.418 248.578 341.418 248.578L341.414 247.277C341.414 247.277 340.34 246.553 338.467 246.205Z" fill="#58B232"/>
<path d="M337.724 255.362C336.57 255.148 336.671 254.999 332.661 255.411C330.733 255.61 329.598 255.391 329.598 255.391L329.393 256.832C329.393 256.832 331.008 257.221 333.149 256.968C335.29 256.714 336.88 256.958 338.927 257.466C340.974 257.974 340.974 257.974 340.974 257.974L341.096 256.549C341.096 256.549 339.787 255.744 337.724 255.362Z" fill="#58B232"/>
<path d="M336.522 266.147C335.343 265.93 335.446 265.782 331.354 266.184C329.386 266.378 328.178 266.149 328.178 266.149L327.968 267.578C327.968 267.578 329.67 267.991 331.855 267.742C334.041 267.494 335.667 267.728 337.755 268.255C339.839 268.781 339.858 268.771 339.858 268.771L339.998 267.345C339.998 267.345 338.629 266.535 336.522 266.147Z" fill="#58B232"/>
<path d="M331.043 275.021C332.24 275.077 334.186 275.004 336.086 275.974C337.848 276.872 338.877 276.868 338.877 276.868L338.661 277.963C338.661 277.963 336.909 277.978 334.837 277.24C332.766 276.501 331.128 276.36 328.975 276.398C326.827 276.437 326.854 276.425 326.854 276.425L326.925 275.234C326.925 275.234 328.903 274.919 331.043 275.021Z" fill="#58B232"/>
<path d="M303.618 262.837C305.11 279.54 303.383 286.966 311.566 286.235C318.955 285.574 316.763 278.499 315.27 261.796C313.778 245.092 308.728 231.894 306.539 232.09C304.35 232.286 302.125 246.133 303.618 262.837Z" fill="#317717"/>
<path d="M310.154 248.058C309.088 248.08 309.151 247.929 305.66 249.032C303.982 249.563 303.159 249.593 303.159 249.593L303.138 250.878C303.138 250.878 304.523 250.946 306.38 250.327C308.238 249.708 309.696 249.633 311.611 249.709C313.525 249.784 313.525 249.784 313.525 249.784L313.257 248.512C313.257 248.512 312.059 248.019 310.154 248.058Z" fill="#58B232"/>
<path d="M311.279 257.176C310.106 257.2 310.174 257.034 306.331 258.248C304.483 258.833 303.327 258.849 303.327 258.849L303.418 260.301C303.418 260.301 305.079 260.356 307.124 259.674C309.169 258.993 310.775 258.91 312.883 258.993C314.99 259.077 314.99 259.077 314.99 259.077L314.821 257.657C314.821 257.657 313.377 257.133 311.279 257.176Z" fill="#58B232"/>
<path d="M312.284 267.981C311.086 268.007 311.156 267.841 307.23 269.063C305.342 269.651 304.113 269.671 304.113 269.671L304.196 271.113C304.196 271.113 305.947 271.173 308.037 270.488C310.126 269.802 311.767 269.702 313.918 269.796C316.065 269.889 316.082 269.876 316.082 269.876L315.931 268.451C315.931 268.451 314.426 267.934 312.284 267.981Z" fill="#58B232"/>
<path d="M308.713 277.779C309.897 277.593 311.789 277.127 313.845 277.692C315.752 278.216 316.76 278.004 316.76 278.004L316.769 279.119C316.769 279.119 315.057 279.489 312.878 279.185C310.7 278.881 309.068 279.074 306.967 279.547C304.871 280.019 304.895 280.002 304.895 280.002L304.724 278.822C304.724 278.822 306.597 278.113 308.713 277.779Z" fill="#58B232"/>
<path d="M312.129 258.857C312.129 280.626 309.362 290.027 318.907 290.027C327.524 290.027 325.719 280.626 325.719 258.857C325.719 237.089 321.24 219.442 318.687 219.442C316.134 219.442 312.129 237.089 312.129 258.857Z" fill="#317717"/>
<path d="M321.22 240.505C319.984 240.41 320.072 240.222 315.919 241.245C313.922 241.737 312.967 241.681 312.967 241.681L312.81 243.34C312.81 243.34 314.405 243.588 316.618 243.002C318.832 242.417 320.527 242.488 322.734 242.807C324.941 243.126 324.941 243.126 324.941 243.126L324.763 241.45C324.763 241.45 323.428 240.674 321.22 240.505Z" fill="#58B232"/>
<path d="M321.579 252.423C320.218 252.319 320.315 252.112 315.743 253.238C313.544 253.78 312.204 253.667 312.204 253.667L312.159 255.555C312.159 255.555 314.075 255.818 316.512 255.173C318.949 254.528 320.816 254.607 323.246 254.958C325.676 255.309 325.676 255.309 325.676 255.309L325.627 253.454C325.627 253.454 324.01 252.61 321.579 252.423Z" fill="#58B232"/>
<path d="M321.625 266.51C320.235 266.405 320.334 266.198 315.665 267.325C313.419 267.867 311.995 267.75 311.995 267.75L311.942 269.624C311.942 269.624 313.962 269.905 316.451 269.26C318.939 268.615 320.848 268.676 323.327 269.045C325.802 269.413 325.823 269.398 325.823 269.398L325.795 267.539C325.795 267.539 324.107 266.696 321.625 266.51Z" fill="#58B232"/>
<path d="M316.48 278.766C317.869 278.661 320.106 278.277 322.427 279.246C324.579 280.143 325.767 279.985 325.767 279.985L325.663 281.429C325.663 281.429 323.643 281.709 321.154 281.064C318.665 280.419 316.757 280.48 314.277 280.849C311.803 281.217 311.833 281.198 311.833 281.198L311.756 279.652C311.756 279.652 313.997 278.952 316.48 278.766Z" fill="#58B232"/>
<path d="M322.316 265.862C322.316 280.423 319.857 286.712 328.339 286.712C335.996 286.712 334.392 280.423 334.392 265.862C334.392 251.301 330.412 239.498 328.144 239.498C325.875 239.498 322.316 251.301 322.316 265.862Z" fill="#317717"/>
<path d="M330.394 253.586C329.296 253.523 329.374 253.397 325.684 254.081C323.909 254.411 323.06 254.373 323.06 254.373L322.921 255.483C322.921 255.483 324.338 255.649 326.305 255.257C328.272 254.865 329.778 254.913 331.74 255.126C333.701 255.34 333.701 255.34 333.701 255.34L333.543 254.218C333.543 254.218 332.356 253.7 330.394 253.586Z" fill="#58B232"/>
<path d="M330.713 261.558C329.504 261.488 329.59 261.35 325.527 262.104C323.573 262.466 322.383 262.391 322.383 262.391L322.343 263.653C322.343 263.653 324.045 263.829 326.211 263.398C328.376 262.966 330.035 263.019 332.195 263.254C334.354 263.489 334.354 263.489 334.354 263.489L334.311 262.248C334.311 262.248 332.873 261.683 330.713 261.558Z" fill="#58B232"/>
<path d="M330.754 270.981C329.519 270.911 329.607 270.772 325.458 271.526C323.462 271.888 322.197 271.811 322.197 271.811L322.15 273.064C322.15 273.064 323.945 273.252 326.156 272.82C328.368 272.389 330.064 272.43 332.267 272.676C334.466 272.923 334.484 272.912 334.484 272.912L334.46 271.669C334.46 271.669 332.96 271.106 330.754 270.981Z" fill="#58B232"/>
<path d="M326.182 279.179C327.417 279.109 329.404 278.852 331.467 279.5C333.379 280.1 334.435 279.995 334.435 279.995L334.342 280.96C334.342 280.96 332.547 281.148 330.336 280.716C328.124 280.285 326.428 280.326 324.225 280.572C322.026 280.819 322.052 280.806 322.052 280.806L321.985 279.772C321.985 279.772 323.976 279.304 326.182 279.179Z" fill="#58B232"/>
<path d="M333.534 271.767C330.817 283.283 327.699 287.798 334.407 289.381C340.463 290.81 340.368 285.537 343.085 274.021C345.803 262.505 344.858 252.427 343.064 252.003C341.27 251.58 336.252 260.251 333.534 271.767Z" fill="#439617"/>
<path d="M342.214 263.566C341.358 263.311 341.443 263.226 338.397 263.078C336.932 263.007 336.267 262.819 336.267 262.819L335.95 263.671C335.95 263.671 337.04 264.067 338.669 264.124C340.297 264.181 341.48 264.5 342.991 265.035C344.502 265.57 344.502 265.57 344.502 265.57L344.587 264.653C344.587 264.653 343.745 264.022 342.214 263.566Z" fill="#73BC51"/>
<path d="M340.979 269.931C340.036 269.65 340.13 269.556 336.776 269.394C335.163 269.316 334.235 269.034 334.235 269.034L333.968 270.025C333.968 270.025 335.282 270.482 337.075 270.545C338.868 270.608 340.17 270.959 341.834 271.548C343.498 272.137 343.498 272.137 343.498 272.137L343.696 271.147C343.696 271.147 342.664 270.433 340.979 269.931Z" fill="#73BC51"/>
<path d="M339.252 277.39C338.289 277.105 338.384 277.011 334.962 276.833C333.316 276.747 332.33 276.45 332.33 276.45L332.059 277.432C332.059 277.432 333.443 277.916 335.273 277.987C337.102 278.059 338.436 278.407 340.133 279.014C341.826 279.619 341.842 279.614 341.842 279.614L342.055 278.626C342.055 278.626 340.974 277.901 339.252 277.39Z" fill="#73BC51"/>
<path d="M334.107 283.02C335.096 283.196 336.716 283.364 338.226 284.261C339.627 285.093 340.481 285.206 340.481 285.206L340.228 285.952C340.228 285.952 338.773 285.765 337.105 285.011C335.436 284.258 334.087 283.973 332.299 283.757C330.514 283.542 330.537 283.536 330.537 283.536L330.676 282.706C330.676 282.706 332.339 282.708 334.107 283.02Z" fill="#73BC51"/>
<path d="M301.272 275.831C302.2 287.591 301.196 292.891 306.041 292.127C310.416 291.438 309.099 286.504 308.172 274.744C307.244 262.984 304.218 253.81 302.922 254.014C301.626 254.218 300.345 264.072 301.272 275.831Z" fill="#439617"/>
<path d="M305.105 265.189C304.474 265.237 304.511 265.128 302.446 266.014C301.453 266.439 300.966 266.485 300.966 266.485L300.957 267.394C300.957 267.394 301.777 267.4 302.876 266.907C303.974 266.413 304.838 266.316 305.972 266.312C307.106 266.308 307.106 266.308 307.106 266.308L306.945 265.416C306.945 265.416 306.234 265.104 305.105 265.189Z" fill="#73BC51"/>
<path d="M305.796 271.599C305.1 271.652 305.141 271.532 302.867 272.507C301.774 272.975 301.089 273.022 301.089 273.022L301.147 274.045C301.147 274.045 302.131 274.034 303.341 273.49C304.55 272.947 305.501 272.84 306.75 272.835C307.999 272.831 307.999 272.831 307.999 272.831L307.895 271.832C307.895 271.832 307.038 271.506 305.796 271.599Z" fill="#73BC51"/>
<path d="M306.419 279.205C305.709 279.26 305.751 279.14 303.428 280.122C302.311 280.595 301.583 280.646 301.583 280.646L301.636 281.662C301.636 281.662 302.673 281.652 303.909 281.105C305.145 280.557 306.117 280.437 307.392 280.438C308.663 280.439 308.673 280.429 308.673 280.429L308.58 279.427C308.58 279.427 307.687 279.107 306.419 279.205Z" fill="#73BC51"/>
<path d="M304.329 286.238C305.03 286.07 306.149 285.684 307.369 286.021C308.5 286.334 309.096 286.153 309.096 286.153L309.105 286.941C309.105 286.941 308.091 287.254 306.8 287.105C305.509 286.956 304.543 287.142 303.3 287.539C302.059 287.936 302.074 287.923 302.074 287.923L301.969 287.095C301.969 287.095 303.077 286.537 304.329 286.238Z" fill="#73BC51"/>
<path d="M315.623 263.269C315.623 278.858 312.991 285.59 322.071 285.59C330.268 285.59 328.551 278.858 328.551 263.269C328.551 247.681 324.291 235.044 321.862 235.044C319.433 235.044 315.623 247.681 315.623 263.269Z" fill="#439617"/>
<path d="M324.271 250.127C323.095 250.059 323.179 249.924 319.229 250.657C317.329 251.01 316.42 250.969 316.42 250.969L316.271 252.158C316.271 252.158 317.788 252.335 319.894 251.916C321.999 251.496 323.612 251.547 325.712 251.776C327.811 252.004 327.811 252.004 327.811 252.004L327.642 250.804C327.642 250.804 326.371 250.249 324.271 250.127Z" fill="#73BC51"/>
<path d="M324.613 258.662C323.318 258.587 323.41 258.438 319.061 259.245C316.969 259.633 315.695 259.553 315.695 259.553L315.652 260.904C315.652 260.904 317.475 261.093 319.793 260.631C322.111 260.169 323.887 260.225 326.199 260.477C328.51 260.728 328.51 260.728 328.51 260.728L328.464 259.4C328.464 259.4 326.925 258.795 324.613 258.662Z" fill="#73BC51"/>
<path d="M324.656 268.749C323.335 268.674 323.428 268.526 318.987 269.333C316.85 269.721 315.496 269.637 315.496 269.637L315.445 270.979C315.445 270.979 317.367 271.18 319.734 270.718C322.102 270.256 323.917 270.3 326.276 270.564C328.63 270.828 328.65 270.817 328.65 270.817L328.624 269.486C328.624 269.486 327.018 268.883 324.656 268.749Z" fill="#73BC51"/>
<path d="M319.762 277.525C321.084 277.451 323.211 277.176 325.42 277.869C327.467 278.512 328.597 278.399 328.597 278.399L328.498 279.433C328.498 279.433 326.576 279.633 324.209 279.171C321.841 278.71 320.025 278.753 317.667 279.017C315.313 279.281 315.341 279.267 315.341 279.267L315.268 278.16C315.268 278.16 317.4 277.659 319.762 277.525Z" fill="#73BC51"/>
<path d="M326.893 270.365C325.925 283.433 323.824 288.952 329.629 289.382C334.87 289.771 334.19 284.045 335.158 270.977C336.126 257.908 334.187 247.113 332.634 246.998C331.081 246.883 327.86 257.296 326.893 270.365Z" fill="#256809"/>
<path d="M333.238 259.757C332.49 259.644 332.552 259.535 329.981 259.962C328.744 260.168 328.166 260.091 328.166 260.091L327.997 261.08C327.997 261.08 328.956 261.301 330.328 261.049C331.7 260.797 332.728 260.916 334.056 261.207C335.384 261.498 335.384 261.498 335.384 261.498L335.351 260.483C335.351 260.483 334.573 259.958 333.238 259.757Z" fill="#58B232"/>
<path d="M332.926 266.928C332.103 266.804 332.171 266.684 329.34 267.154C327.979 267.381 327.169 267.253 327.169 267.253L327.058 268.384C327.058 268.384 328.212 268.628 329.722 268.351C331.233 268.073 332.365 268.205 333.827 268.525C335.29 268.845 335.29 268.845 335.29 268.845L335.343 267.729C335.343 267.729 334.396 267.15 332.926 266.928Z" fill="#58B232"/>
<path d="M332.328 275.386C331.487 275.261 331.557 275.141 328.667 275.607C327.277 275.831 326.416 275.697 326.416 275.697L326.3 276.82C326.3 276.82 327.516 277.079 329.059 276.804C330.601 276.529 331.759 276.652 333.251 276.985C334.739 277.318 334.753 277.309 334.753 277.309L334.819 276.192C334.819 276.192 333.829 275.61 332.328 275.386Z" fill="#58B232"/>
<path d="M328.654 282.512C329.503 282.512 330.88 282.383 332.249 283.068C333.518 283.704 334.248 283.663 334.248 283.663L334.12 284.525C334.12 284.525 332.879 284.602 331.394 284.103C329.909 283.603 328.746 283.554 327.221 283.664C325.7 283.774 325.719 283.763 325.719 283.763L325.741 282.832C325.741 282.832 327.135 282.513 328.654 282.512Z" fill="#58B232"/>
<path d="M312.245 272.816C313.162 283.295 312.209 287.938 316.864 287.531C321.066 287.163 319.79 282.715 318.873 272.236C317.956 261.758 315.029 253.455 313.784 253.564C312.539 253.673 311.328 262.338 312.245 272.816Z" fill="#256809"/>
<path d="M315.906 263.594C315.299 263.601 315.334 263.507 313.352 264.176C312.399 264.498 311.931 264.512 311.931 264.512L311.924 265.318C311.924 265.318 312.712 265.369 313.767 264.992C314.822 264.616 315.651 264.578 316.741 264.637C317.831 264.697 317.831 264.697 317.831 264.697L317.674 263.897C317.674 263.897 316.99 263.581 315.906 263.594Z" fill="#58B232"/>
<path d="M316.583 269.316C315.915 269.323 315.953 269.22 313.771 269.957C312.722 270.312 312.064 270.315 312.064 270.315L312.121 271.225C312.121 271.225 313.067 271.27 314.228 270.856C315.389 270.441 316.303 270.399 317.503 270.465C318.703 270.53 318.703 270.53 318.703 270.53L318.601 269.639C318.601 269.639 317.776 269.302 316.583 269.316Z" fill="#58B232"/>
<path d="M317.199 276.094C316.517 276.103 316.556 275.999 314.327 276.741C313.254 277.098 312.555 277.102 312.555 277.102L312.608 278.007C312.608 278.007 313.605 278.055 314.791 277.639C315.978 277.222 316.911 277.17 318.136 277.242C319.358 277.314 319.367 277.305 319.367 277.305L319.276 276.412C319.276 276.412 318.417 276.078 317.199 276.094Z" fill="#58B232"/>
<path d="M305.902 309.801H336.658C338.291 309.801 339.655 308.541 339.808 306.892L342.469 282.51H300.145L302.33 306.433C302.467 308.332 304.025 309.801 305.902 309.801Z" fill="#8B776E"/>
<path d="M302.049 285.623H340.48C342.22 285.623 343.631 284.212 343.631 282.472H298.898C298.898 284.212 300.309 285.623 302.049 285.623Z" fill="#563022"/>
</svg>
