<svg width="324" height="324" viewBox="0 0 324 324" fill="none" xmlns="http://www.w3.org/2000/svg">
<path d="M298.808 169.153C295.596 196.358 283.174 227.99 258.365 242.521C220.881 264.481 224.019 298.256 150.854 312.94C139.446 315.231 128.621 316.194 118.413 316.004C112.926 315.902 107.613 315.459 102.491 314.706C55.9904 307.913 24.6972 275.591 13.2166 236.573C-1.89151 185.259 28.2761 151.664 48.2715 131.424C68.2675 111.183 82.9122 48.1154 154.725 33.1155C165.675 30.8332 176.872 29.6688 188.066 29.948C213.616 30.5747 241.486 38.965 260.769 56.4765C262.217 57.7926 263.625 59.1566 264.998 60.5622C291.802 88.073 303.19 132.064 298.808 169.153Z" fill="#EA5D01" stroke="#263238" stroke-miterlimit="10" stroke-linecap="round" stroke-linejoin="round"/>
<path opacity="0.7" d="M298.808 168.859C295.596 196.064 283.174 227.695 258.365 242.227C220.881 264.186 224.019 297.962 150.854 312.646C139.446 314.936 128.621 315.9 118.413 315.709C112.926 315.608 107.613 315.165 102.491 314.411C55.9904 307.618 24.6972 275.296 13.2166 236.279C-1.89151 184.964 28.2761 151.37 48.2715 131.129C68.2675 110.888 82.9122 47.8209 154.725 32.821C165.675 30.5388 176.872 29.3743 188.066 29.6536C213.616 30.2802 241.486 38.6705 260.769 56.1821C262.217 57.4982 263.625 58.8622 264.998 60.2677C291.802 87.7786 303.19 131.769 298.808 168.859Z" fill="white"/>
<path d="M316.612 287.781H9.20226" stroke="#263238" stroke-miterlimit="10" stroke-linecap="round" stroke-linejoin="round"/>
<g opacity="0.3">
<path d="M79.9308 215.099C79.9846 215.133 81.0376 211.054 81.0752 210.789C81.5022 207.722 80.5244 201.545 77.4016 200.037C75.1524 198.95 72.6376 200.257 71.8185 202.51C70.9813 204.81 72.042 207.633 73.2992 209.574C74.7747 211.853 79.9269 215.096 79.9308 215.099Z" fill="black"/>
</g>
<g opacity="0.3">
<path d="M140.363 41.8022C142.852 42.8889 148.938 42.7516 148.942 42.7516C149.005 42.7496 147.634 38.767 147.518 38.5259C146.184 35.7318 141.96 31.1193 138.524 31.5833C136.048 31.9176 134.671 34.3956 135.23 36.7264C135.801 39.1078 138.243 40.8756 140.363 41.8022Z" fill="black"/>
<path d="M201.926 43.141C201.98 43.1747 203.033 39.0956 203.071 38.8312C203.497 35.7642 202.52 29.5874 199.397 28.0789C197.148 26.9922 194.633 28.2992 193.814 30.5523C192.977 32.8521 194.038 35.6748 195.295 37.6162C196.77 39.8952 201.923 43.1378 201.926 43.141Z" fill="black"/>
</g>
<path d="M162.809 219.775H41.3236C37.1051 219.775 33.685 216.355 33.685 212.136V49.7016C33.685 45.4831 37.1051 42.063 41.3236 42.063H162.809C167.027 42.063 170.447 45.4831 170.447 49.7016V212.136C170.447 216.355 167.027 219.775 162.809 219.775Z" fill="#263238"/>
<path d="M163.904 52.5698H40.2285V211.341H163.904V52.5698Z" fill="white" stroke="#263238" stroke-miterlimit="10" stroke-linecap="round" stroke-linejoin="round"/>
<path d="M76.9519 76.3486H127.18" stroke="#263238" stroke-miterlimit="10" stroke-linecap="round" stroke-linejoin="round"/>
<path d="M53.8527 110.53C58.4436 110.53 62.1652 106.808 62.1652 102.217C62.1652 97.6264 58.4436 93.9048 53.8527 93.9048C49.2618 93.9048 45.5401 97.6264 45.5401 102.217C45.5401 106.808 49.2618 110.53 53.8527 110.53Z" stroke="#263238" stroke-miterlimit="10" stroke-linecap="round" stroke-linejoin="round"/>
<path d="M65.9755 102.91H150.836" stroke="#263238" stroke-miterlimit="10" stroke-linecap="round" stroke-linejoin="round"/>
<path d="M50.3891 100.139L53.506 104.988L63.5507 91.8262" stroke="#EA5D01" stroke-width="4" stroke-miterlimit="10" stroke-linecap="round" stroke-linejoin="round"/>
<path d="M53.8559 130.957C58.4468 130.957 62.1685 127.235 62.1685 122.645C62.1685 118.054 58.4468 114.332 53.8559 114.332C49.265 114.332 45.5434 118.054 45.5434 122.645C45.5434 127.235 49.265 130.957 53.8559 130.957Z" stroke="#263238" stroke-miterlimit="9.9996" stroke-linecap="round" stroke-linejoin="round"/>
<path d="M65.9755 123.346H150.836" stroke="#263238" stroke-miterlimit="10" stroke-linecap="round" stroke-linejoin="round"/>
<path d="M50.3891 120.575L53.506 125.424L63.5507 112.262" stroke="#EA5D01" stroke-width="4" stroke-miterlimit="10" stroke-linecap="round" stroke-linejoin="round"/>
<path d="M53.8566 151.392C58.4475 151.392 62.1691 147.67 62.1691 143.079C62.1691 138.488 58.4475 134.767 53.8566 134.767C49.2657 134.767 45.544 138.488 45.544 143.079C45.544 147.67 49.2657 151.392 53.8566 151.392Z" stroke="#263238" stroke-miterlimit="9.9996" stroke-linecap="round" stroke-linejoin="round"/>
<path d="M65.9755 143.782H150.836" stroke="#263238" stroke-miterlimit="10" stroke-linecap="round" stroke-linejoin="round"/>
<path d="M50.3891 141.011L53.506 145.86L63.5506 132.698" stroke="#EA5D01" stroke-width="4" stroke-miterlimit="10" stroke-linecap="round" stroke-linejoin="round"/>
<path d="M53.8514 171.837C58.4423 171.837 62.1639 168.115 62.1639 163.524C62.1639 158.934 58.4423 155.212 53.8514 155.212C49.2605 155.212 45.5388 158.934 45.5388 163.524C45.5388 168.115 49.2605 171.837 53.8514 171.837Z" stroke="#EA5D01" stroke-miterlimit="9.9999" stroke-linecap="round" stroke-linejoin="round"/>
<path d="M65.9755 164.218H150.836" stroke="#263238" stroke-miterlimit="10" stroke-linecap="round" stroke-linejoin="round"/>
<path d="M50.3891 161.447L53.506 166.296L63.5507 153.134" stroke="#EA5D01" stroke-width="4" stroke-miterlimit="10" stroke-linecap="round" stroke-linejoin="round"/>
<path d="M53.8527 192.273C58.4436 192.273 62.1652 188.551 62.1652 183.96C62.1652 179.369 58.4436 175.647 53.8527 175.647C49.2618 175.647 45.5401 179.369 45.5401 183.96C45.5401 188.551 49.2618 192.273 53.8527 192.273Z" stroke="#263238" stroke-miterlimit="10" stroke-linecap="round" stroke-linejoin="round"/>
<path d="M65.9755 184.653H150.836" stroke="#263238" stroke-miterlimit="10" stroke-linecap="round" stroke-linejoin="round"/>
<path d="M50.3891 181.882L53.506 186.731L63.5507 173.569" stroke="#92E3A9" stroke-width="4" stroke-miterlimit="10" stroke-linecap="round" stroke-linejoin="round"/>
<path d="M118.355 38.4751C115.669 38.4751 114.194 35.5273 115.622 33.2528C117.09 30.9142 117.752 28.0202 117.219 24.9526C116.42 20.3498 112.788 16.5565 108.215 15.6007C100.64 14.0169 93.9697 19.755 93.9697 27.0521C93.9697 29.4095 94.6676 31.6024 95.8671 33.4369C97.2829 35.6025 95.6066 38.4751 93.0191 38.4751H72.6466L78.1533 54.2914H133.219L138.726 38.4751H118.355ZM105.686 31.7378C103.421 31.7378 101.585 29.902 101.585 27.6373C101.585 25.3725 103.421 23.5367 105.686 23.5367C107.95 23.5367 109.786 25.3725 109.786 27.6373C109.787 29.902 107.95 31.7378 105.686 31.7378Z" fill="white" stroke="#263238" stroke-miterlimit="10" stroke-linecap="round" stroke-linejoin="round"/>
<path d="M243.457 223.707H171.892V287.782H243.457V223.707Z" fill="#EA5D01" stroke="#263238" stroke-miterlimit="10" stroke-linecap="round" stroke-linejoin="round"/>
<path d="M194.938 223.707H171.892V287.782H194.938V223.707Z" fill="#263238" stroke="#263238" stroke-miterlimit="10" stroke-linecap="round" stroke-linejoin="round"/>
<path d="M186.508 223.706H180.324V241.181H186.508V223.706Z" fill="white" stroke="#263238" stroke-miterlimit="10" stroke-linecap="round" stroke-linejoin="round"/>
<path d="M239.259 230.396H228.6V236.93H239.259V230.396Z" stroke="#263238" stroke-miterlimit="10" stroke-linecap="round" stroke-linejoin="round"/>
<path d="M192.943 223.707H121.379V287.782H192.943V223.707Z" fill="#EA5D01" stroke="#263238" stroke-miterlimit="10" stroke-linecap="round" stroke-linejoin="round"/>
<path d="M144.425 223.707H121.379V287.782H144.425V223.707Z" fill="#263238" stroke="#263238" stroke-miterlimit="10" stroke-linecap="round" stroke-linejoin="round"/>
<path d="M135.994 223.706H129.809V241.181H135.994V223.706Z" fill="white" stroke="#263238" stroke-miterlimit="10" stroke-linecap="round" stroke-linejoin="round"/>
<path d="M188.199 230.396H177.54V236.93H188.199V230.396Z" stroke="#263238" stroke-miterlimit="10" stroke-linecap="round" stroke-linejoin="round"/>
<path d="M141.655 223.707H70.0903V287.782H141.655V223.707Z" fill="#EA5D01" stroke="#263238" stroke-miterlimit="10" stroke-linecap="round" stroke-linejoin="round"/>
<path d="M93.1364 223.707H70.0903V287.782H93.1364V223.707Z" fill="#263238" stroke="#263238" stroke-miterlimit="10" stroke-linecap="round" stroke-linejoin="round"/>
<path d="M84.7059 223.706H78.5214V241.181H84.7059V223.706Z" fill="white" stroke="#263238" stroke-miterlimit="10" stroke-linecap="round" stroke-linejoin="round"/>
<path d="M137.998 230.396H127.339V236.93H137.998V230.396Z" stroke="#263238" stroke-miterlimit="10" stroke-linecap="round" stroke-linejoin="round"/>
<path d="M218.944 159.554H147.38V223.629H218.944V159.554Z" fill="#EA5D01" stroke="#263238" stroke-miterlimit="10" stroke-linecap="round" stroke-linejoin="round"/>
<path d="M170.426 159.554H147.38V223.629H170.426V159.554Z" fill="#263238" stroke="#263238" stroke-miterlimit="10" stroke-linecap="round" stroke-linejoin="round"/>
<path d="M161.995 159.553H155.811V177.028H161.995V159.553Z" fill="white" stroke="#263238" stroke-miterlimit="10" stroke-linecap="round" stroke-linejoin="round"/>
<path d="M216.222 160.253H209.001V197.044H216.222V160.253Z" stroke="#263238" stroke-miterlimit="10" stroke-linecap="round" stroke-linejoin="round"/>
<path d="M200.695 95.3638H129.13V159.439H200.695V95.3638Z" fill="#EA5D01" stroke="#263238" stroke-miterlimit="10" stroke-linecap="round" stroke-linejoin="round"/>
<path d="M152.176 95.3638H129.13V159.439H152.176V95.3638Z" fill="#263238" stroke="#263238" stroke-miterlimit="10" stroke-linecap="round" stroke-linejoin="round"/>
<path d="M143.746 95.3638H137.561V112.839H143.746V95.3638Z" fill="white" stroke="#263238" stroke-miterlimit="10" stroke-linecap="round" stroke-linejoin="round"/>
<path d="M197.311 96.0254H190.09V132.816H197.311V96.0254Z" stroke="#263238" stroke-miterlimit="10" stroke-linecap="round" stroke-linejoin="round"/>
<path d="M166.712 159.554H95.1485V223.629H166.712V159.554Z" fill="#EA5D01" stroke="#263238" stroke-miterlimit="10" stroke-linecap="round" stroke-linejoin="round"/>
<path d="M118.194 159.554H95.1478V223.629H118.194V159.554Z" fill="#263238" stroke="#263238" stroke-miterlimit="10" stroke-linecap="round" stroke-linejoin="round"/>
<path d="M109.763 159.553H103.579V177.028H109.763V159.553Z" fill="white" stroke="#263238" stroke-miterlimit="10" stroke-linecap="round" stroke-linejoin="round"/>
<path d="M162.583 160.253H155.362V197.044H162.583V160.253Z" stroke="#263238" stroke-miterlimit="10" stroke-linecap="round" stroke-linejoin="round"/>
<path d="M86.9648 287.083C111.919 287.083 133.148 290.848 141.041 296.103L162.148 304.473L108.565 317.762L95.8003 314.025C92.92 314.13 89.9696 314.185 86.9648 314.185C55.2822 314.185 29.598 308.118 29.598 300.634C29.598 293.151 55.2822 287.083 86.9648 287.083Z" fill="#263238"/>
<path d="M34.4717 197.311C34.4717 197.311 32.4978 201.916 30.9627 206.522C29.4276 211.127 28.8639 214.597 29.5216 218.106C30.1793 221.615 33.3752 225.382 36.6645 226.04C39.9537 226.698 58.5954 220.557 63.4198 216.829C68.2448 213.102 64.9549 203.451 61.0073 201.259C57.0603 199.065 34.4717 197.311 34.4717 197.311Z" fill="white" stroke="#263238" stroke-miterlimit="10" stroke-linecap="round" stroke-linejoin="round"/>
<path d="M38.9597 201.327C38.9597 201.327 43.8735 204.443 46.5102 205.282C49.1469 206.121 53.9408 207.079 53.9408 207.079C53.9408 207.079 45.671 206.48 43.9934 207.199C42.3157 207.919 40.8771 208.638 40.8771 208.638C40.8771 208.638 52.8619 208.278 55.4986 210.076C58.1353 211.873 61.3714 214.63 61.3714 214.63L57.6558 205.042L58.2552 203.963C58.2552 203.963 46.75 204.084 38.9597 201.327Z" fill="#263238" stroke="#263238" stroke-miterlimit="10" stroke-linecap="round" stroke-linejoin="round"/>
<path d="M92.2739 157.765C92.2739 157.765 101.457 162.806 102.717 168.028C103.977 173.249 105.958 176.491 105.958 176.491L61.6643 203.86C61.6643 203.86 52.1212 206.02 44.7386 203.679C37.3559 201.339 33.5748 200.258 33.755 197.198C33.9351 194.136 36.8161 191.976 37.7162 190.355C38.6163 188.735 46.1791 171.089 50.5006 164.247C54.8221 157.405 56.0825 151.823 64.905 148.222C73.7282 144.621 81.1102 145.161 81.1102 145.161L92.2739 157.765Z" fill="#EA5D01" stroke="#263238" stroke-miterlimit="10" stroke-linecap="round" stroke-linejoin="round"/>
<path d="M42.0766 198.256C41.0035 198.252 39.9265 198.22 38.8599 198.155" stroke="#263238" stroke-miterlimit="10" stroke-linecap="round" stroke-linejoin="round"/>
<path d="M56.2296 197.087C53.2228 197.56 48.4879 198.163 43.5164 198.247" stroke="#263238" stroke-miterlimit="10" stroke-linecap="round" stroke-linejoin="round"/>
<path d="M59.4948 196.511C59.4948 196.511 58.944 196.625 57.9772 196.796" stroke="#263238" stroke-miterlimit="10" stroke-linecap="round" stroke-linejoin="round"/>
<path d="M55.7623 190.231C51.735 192.264 44.8358 195.303 37.8127 196.361" stroke="#263238" stroke-miterlimit="10" stroke-linecap="round" stroke-linejoin="round"/>
<path d="M59.3451 188.286C59.3451 188.286 58.7023 188.676 57.5709 189.287" stroke="#263238" stroke-miterlimit="10" stroke-linecap="round" stroke-linejoin="round"/>
<path d="M35.7197 195.015C35.7197 195.015 38.8599 193.52 41.2523 192.921" stroke="#263238" stroke-miterlimit="10" stroke-linecap="round" stroke-linejoin="round"/>
<path d="M90.2936 163.707L85.4317 177.572L83.2712 177.932L85.792 171.09" stroke="#263238" stroke-miterlimit="10" stroke-linecap="round" stroke-linejoin="round"/>
<path d="M96.5883 163.469L94.5114 169.422L93.1273 163.192L96.5883 163.469Z" fill="#EA5D01" stroke="#263238" stroke-miterlimit="10" stroke-linecap="round" stroke-linejoin="round"/>
<path d="M92.9252 155.247L96.5883 163.469L89.251 164.576L92.9252 155.247Z" fill="#EA5D01" stroke="#263238" stroke-miterlimit="10" stroke-linecap="round" stroke-linejoin="round"/>
<path d="M116.8 137.304C116.8 137.304 114.447 140.765 114.17 141.873C113.893 142.98 111.955 146.856 110.432 149.071C108.909 151.286 103.372 157.516 100.049 158.07C96.727 158.624 93.8194 156.27 93.8194 156.27L89.251 164.577L83.9905 144.503L87.4515 142.011C87.4515 142.011 86.0674 140.212 86.0674 137.72C86.0674 135.228 87.5902 132.182 87.5902 132.182C87.5902 132.182 89.5283 128.721 92.7126 127.059C95.8969 125.398 108.079 127.751 112.232 129.136C116.385 130.521 117.354 134.259 116.8 137.304Z" fill="white" stroke="#263238" stroke-miterlimit="10" stroke-linecap="round" stroke-linejoin="round"/>
<path d="M93.8194 156.27L90.3098 153.098L91.8799 158.789L93.8194 156.27Z" fill="#263238" stroke="#263238" stroke-miterlimit="10" stroke-linecap="round" stroke-linejoin="round"/>
<path d="M108.494 138.273L106.971 140.35C106.971 140.35 107.387 146.58 106.14 147.134C104.894 147.688 102.264 146.995 101.572 145.887" stroke="#263238" stroke-miterlimit="10" stroke-linecap="round" stroke-linejoin="round"/>
<path d="M101.157 147.964C101.157 147.964 99.3572 145.75 98.2498 143.811C97.1423 141.873 95.4809 142.565 94.5121 143.811C93.5427 145.058 94.3734 146.857 95.7582 147.688C97.143 148.518 100.465 149.625 101.157 147.964Z" stroke="#263238" stroke-miterlimit="10" stroke-linecap="round" stroke-linejoin="round"/>
<path d="M95.0655 143.257C95.0655 143.257 97.0037 147.272 100.326 148.38" stroke="#263238" stroke-miterlimit="10" stroke-linecap="round" stroke-linejoin="round"/>
<path d="M102.757 138.347C102.757 138.347 101.646 136.24 99.0021 136.162" stroke="#263238" stroke-width="2" stroke-miterlimit="10" stroke-linecap="round" stroke-linejoin="round"/>
<path d="M108.963 141.004C108.963 141.004 111.37 140.772 111.97 142.53" stroke="#263238" stroke-width="2" stroke-miterlimit="10" stroke-linecap="round" stroke-linejoin="round"/>
<path d="M113.602 140.794C113.602 140.794 113.725 138.855 109.69 138.728" stroke="#263238" stroke-miterlimit="10" stroke-linecap="round" stroke-linejoin="round"/>
<path d="M104.196 137.005C104.196 137.005 103.882 134.168 99.6293 133.592" stroke="#263238" stroke-miterlimit="10" stroke-linecap="round" stroke-linejoin="round"/>
<path d="M87.6595 132.063C87.9342 131.603 89.0644 129.821 90.836 128.335C93.6166 128.493 97.419 129.275 97.419 129.275L98.1111 130.382C98.1111 130.382 93.9581 136.058 92.4353 136.058C90.9125 136.058 91.3278 132.874 89.943 132.043C89.2821 131.647 88.4008 131.696 87.6595 132.063Z" fill="#263238" stroke="#263238" stroke-miterlimit="10" stroke-linecap="round" stroke-linejoin="round"/>
<path d="M86.0667 137.719C86.0667 137.067 86.1723 136.378 86.3266 135.714C86.0725 138.196 87.2927 140.132 87.7282 140.349C88.2816 140.626 88.8356 141.319 88.8356 141.319L87.4133 141.959C87.1988 141.66 86.0667 139.976 86.0667 137.719Z" fill="#263238" stroke="#263238" stroke-miterlimit="10" stroke-linecap="round" stroke-linejoin="round"/>
<path d="M87.5066 131.502C87.5066 131.502 94.2859 129.982 104.5 132.638C114.715 135.294 116.918 137.935 116.918 137.935C116.918 137.935 118.343 132.282 118.972 128.738C119.6 125.194 112.989 119.662 109.182 118.143C105.374 116.624 97.4171 117.884 94.746 118.675C92.075 119.467 90.0344 123.042 89.5685 124.084C89.1026 125.126 87.5066 131.502 87.5066 131.502Z" fill="#EA5D01" stroke="#263238" stroke-miterlimit="10" stroke-linecap="round" stroke-linejoin="round"/>
<path d="M116.918 137.934C116.918 137.934 122.694 145.005 121.346 145.469C119.998 145.933 114.798 140.37 109.098 139.218C103.397 138.066 98.0502 135.711 96.1353 133.825C94.2205 131.939 93.5718 130.839 93.5718 130.839C93.5718 130.839 107.029 130.274 116.918 137.934Z" fill="white" stroke="#263238" stroke-miterlimit="10" stroke-linecap="round" stroke-linejoin="round"/>
<path d="M85.6513 142.15L90.6351 164.3L84.2672 166.792L80.2522 144.226L85.6513 142.15Z" fill="#EA5D01" stroke="#263238" stroke-miterlimit="10" stroke-linecap="round" stroke-linejoin="round"/>
<path d="M105.089 262.445L98.0709 274.287C98.0709 274.287 99.606 275.604 99.606 276.261C99.606 276.919 99.606 278.454 99.606 278.454C99.606 278.454 108.378 281.524 110.352 282.402C112.326 283.279 112.764 285.911 112.545 286.568C112.326 287.226 107.939 288.104 103.773 288.104C99.606 288.104 91.7108 286.13 91.7108 286.13C91.7108 286.13 86.4477 286.13 84.6929 285.033C82.9382 283.937 83.5965 281.305 84.0352 279.332C84.4739 277.358 85.1316 275.384 85.1316 275.384C85.1316 275.384 84.9126 272.094 85.3513 271.217C85.79 270.34 86.4477 269.462 86.4477 268.586C86.4477 267.708 89.518 254.989 89.518 254.989L105.089 262.445Z" fill="#263238" stroke="#263238" stroke-miterlimit="10" stroke-linecap="round" stroke-linejoin="round"/>
<path d="M98.509 223.628L116.492 272.753L76.7893 249.955L58.4619 205.124L98.509 223.628Z" fill="#263238" stroke="#263238" stroke-miterlimit="10" stroke-linecap="round" stroke-linejoin="round"/>
<path d="M156.187 181.74L98.509 223.627L58.4619 205.124L108.378 168.801L156.187 181.74Z" fill="#DEDEDE" stroke="#263238" stroke-miterlimit="10" stroke-linecap="round" stroke-linejoin="round"/>
<path d="M156.187 181.74L172.854 230.865L116.492 272.752L98.509 223.628L156.187 181.74Z" fill="#D1D1D1" stroke="#263238" stroke-miterlimit="10" stroke-linecap="round" stroke-linejoin="round"/>
<path d="M133.572 175.823L79.5783 214.82L83.6218 227.871L76.2787 223.463L71.5826 211.205L123.849 172.963L133.572 175.823Z" fill="#F5F5F5" stroke="#263238" stroke-miterlimit="10" stroke-linecap="round" stroke-linejoin="round"/>
<path d="M73.9316 212.183L72.7872 211.644" stroke="#263238" stroke-miterlimit="10" stroke-linecap="round" stroke-linejoin="round"/>
<path d="M78.5927 214.382L74.7753 212.581" stroke="#263238" stroke-miterlimit="10" stroke-linecap="round" stroke-linejoin="round"/>
<path d="M117.411 225.78L110.9 221.186L109.603 230.432L111.627 229.226L114.295 236.307L118.055 234.067L115.387 226.986L117.411 225.78Z" fill="#263238"/>
<path d="M115.171 237.57L116.502 241.104C116.625 241.43 116.796 241.474 116.997 241.354C117.198 241.234 117.28 241.041 117.157 240.714L115.825 237.179L116.423 236.824L117.737 240.312C118.013 241.045 117.849 241.655 117.229 242.025C116.609 242.395 116.129 242.168 115.853 241.435L114.539 237.947L115.171 237.57Z" fill="#263238"/>
<path d="M119.154 236.583L119.378 237.179C119.654 237.912 119.495 238.496 118.863 238.872L118.564 239.05L119.213 240.771L118.581 241.148L116.855 236.567L117.786 236.012C118.417 235.636 118.878 235.85 119.154 236.583ZM117.734 236.844L118.318 238.395L118.617 238.217C118.818 238.097 118.888 237.927 118.765 237.6L118.506 236.912C118.383 236.585 118.234 236.546 118.033 236.666L117.734 236.844Z" fill="#263238"/>
<path d="M155.679 195.36L149.168 190.766L147.871 200.012L149.895 198.806L152.563 205.887L156.323 203.647L153.655 196.566L155.679 195.36Z" fill="#263238"/>
<path d="M153.439 207.15L154.771 210.684C154.894 211.01 155.064 211.054 155.266 210.934C155.467 210.814 155.549 210.621 155.426 210.294L154.094 206.76L154.692 206.404L156.006 209.892C156.282 210.625 156.118 211.236 155.498 211.606C154.878 211.975 154.398 211.748 154.122 211.015L152.808 207.527L153.439 207.15Z" fill="#263238"/>
<path d="M157.423 206.163L157.647 206.759C157.923 207.492 157.763 208.076 157.131 208.452L156.832 208.63L157.481 210.351L156.849 210.728L155.123 206.147L156.054 205.592C156.686 205.216 157.146 205.43 157.423 206.163ZM156.002 206.425L156.587 207.976L156.885 207.798C157.086 207.678 157.156 207.509 157.033 207.181L156.774 206.494C156.651 206.167 156.502 206.127 156.301 206.247L156.002 206.425Z" fill="#263238"/>
<path d="M172.233 208.146L172.999 210.342" stroke="#263238" stroke-miterlimit="10" stroke-linecap="round" stroke-linejoin="round"/>
<path d="M163.669 183.559L171.636 206.43" stroke="#263238" stroke-miterlimit="10" stroke-linecap="round" stroke-linejoin="round"/>
<path d="M174.613 205.592L177.211 213.05" stroke="#263238" stroke-miterlimit="10" stroke-linecap="round" stroke-linejoin="round"/>
<path d="M167.883 186.268L173.969 203.741" stroke="#263238" stroke-miterlimit="10" stroke-linecap="round" stroke-linejoin="round"/>
<path d="M133.472 170.624L114.618 165.503" stroke="#263238" stroke-miterlimit="10" stroke-linecap="round" stroke-linejoin="round"/>
<path d="M138.993 172.124L135.453 171.162" stroke="#263238" stroke-miterlimit="10" stroke-linecap="round" stroke-linejoin="round"/>
<path d="M126.956 167.008L113.113 163.396" stroke="#263238" stroke-miterlimit="10" stroke-linecap="round" stroke-linejoin="round"/>
<path d="M121.372 273.451L119.132 275.042" stroke="#263238" stroke-miterlimit="10" stroke-linecap="round" stroke-linejoin="round"/>
<path d="M130.567 266.917L122.674 272.525" stroke="#263238" stroke-miterlimit="10" stroke-linecap="round" stroke-linejoin="round"/>
<path d="M133.275 268.723L127.858 272.635" stroke="#263238" stroke-miterlimit="10" stroke-linecap="round" stroke-linejoin="round"/>
<path d="M120.709 202.585C120.709 202.585 122.383 202.25 122.852 202.25C123.32 202.25 124.727 202.585 126.201 202.183C127.674 201.781 128.344 202.183 127.942 203.121C127.54 204.058 126.201 204.996 125.396 205.063C124.593 205.129 122.784 205.129 122.784 205.129L120.373 202.986L120.709 202.585Z" fill="white" stroke="#263238" stroke-miterlimit="10" stroke-linecap="round" stroke-linejoin="round"/>
<path d="M76.0687 154.344C76.0687 154.344 80.0299 158.125 80.3902 162.086C80.7505 166.047 78.2298 188.734 78.2298 188.734C78.2298 188.734 86.3324 192.696 92.454 196.297C98.5763 199.898 108.839 204.219 108.839 204.219C108.839 204.219 120.723 202.059 121.624 202.418C122.524 202.779 127.386 208 127.566 208.72C127.746 209.44 126.666 213.581 126.666 214.302C126.666 215.022 125.733 215.041 125.733 215.041L125.045 215.022L124.552 216.009C124.298 216.517 123.804 216.861 123.241 216.924L122.524 217.003C122.524 217.003 121.264 218.444 120.184 217.544C119.104 216.644 116.763 212.683 116.763 212.683C116.763 212.683 111.181 212.142 109.741 211.602C108.3 211.062 106.32 209.802 106.32 209.802C106.32 209.802 73.0088 201.339 69.7682 200.439C66.5269 199.539 65.2665 198.638 64.0062 196.117C62.7458 193.596 59.8894 168.578 59.8894 166.417" fill="white"/>
<path d="M76.0687 154.344C76.0687 154.344 80.0299 158.125 80.3902 162.086C80.7505 166.047 78.2298 188.734 78.2298 188.734C78.2298 188.734 86.3324 192.696 92.454 196.297C98.5763 199.898 108.839 204.219 108.839 204.219C108.839 204.219 120.723 202.059 121.624 202.418C122.524 202.779 127.386 208 127.566 208.72C127.746 209.44 126.666 213.581 126.666 214.302C126.666 215.022 125.733 215.041 125.733 215.041L125.045 215.022L124.552 216.009C124.298 216.517 123.804 216.861 123.241 216.924L122.524 217.003C122.524 217.003 121.264 218.444 120.184 217.544C119.104 216.644 116.763 212.683 116.763 212.683C116.763 212.683 111.181 212.142 109.741 211.602C108.3 211.062 106.32 209.802 106.32 209.802C106.32 209.802 73.0088 201.339 69.7682 200.439C66.5269 199.539 65.2665 198.638 64.0062 196.117C62.7458 193.596 59.8894 168.578 59.8894 166.417" stroke="#263238" stroke-miterlimit="10" stroke-linecap="round" stroke-linejoin="round"/>
<path d="M116.582 208.721C116.582 208.721 120.363 211.962 120.363 213.223C120.363 214.483 122.115 217.253 122.115 217.253" stroke="#263238" stroke-miterlimit="10" stroke-linecap="round" stroke-linejoin="round"/>
<path d="M118.833 206.402C118.833 206.402 121.379 209.215 121.915 210.086C122.451 210.957 123.241 216.925 123.241 216.925" stroke="#263238" stroke-miterlimit="10" stroke-linecap="round" stroke-linejoin="round"/>
<path d="M120.91 204.728C120.91 204.728 124.124 207.741 124.192 208.88C124.259 210.018 125.045 215.023 125.045 215.023" stroke="#263238" stroke-miterlimit="10" stroke-linecap="round" stroke-linejoin="round"/>
<path d="M75.8763 154.033C75.8763 154.033 80.0299 158.125 80.3902 162.086C80.6436 164.87 79.474 176.899 78.756 183.806C75.1492 182.473 68.2908 181.049 62.1445 186.037C61.0915 178.455 60.0592 169.025 59.8882 166.417" fill="#EA5D01"/>
<path d="M75.8763 154.033C75.8763 154.033 80.0299 158.125 80.3902 162.086C80.6436 164.87 79.474 176.899 78.756 183.806C75.1492 182.473 68.2908 181.049 62.1445 186.037C61.0915 178.455 60.0592 169.025 59.8882 166.417" stroke="#263238" stroke-miterlimit="10" stroke-linecap="round" stroke-linejoin="round"/>
<path d="M78.2298 188.735C78.2298 188.735 74.0884 187.474 72.4678 187.835" stroke="#263238" stroke-miterlimit="10" stroke-linecap="round" stroke-linejoin="round"/>
<path d="M65.8485 302.968C65.8485 302.968 70.8925 308.669 74.6204 311.74C78.3484 314.81 76.8133 317.662 74.1817 318.319C71.5502 318.977 66.2865 317.881 61.4622 316.346C56.6371 314.81 52.6895 309.766 52.6895 309.766C52.6895 309.766 47.2068 306.257 46.7681 304.941C46.3294 303.625 51.3734 297.485 51.3734 297.485C51.3734 297.485 64.533 302.968 65.8485 302.968Z" fill="#EA5D01" stroke="#263238" stroke-miterlimit="10" stroke-linecap="round" stroke-linejoin="round"/>
<path d="M46.7688 304.941C46.6171 304.486 47.1232 303.45 47.8503 302.292C50.763 304.799 55.9697 311.954 59.9277 313.933C63.2746 315.607 70.7033 317.416 75.919 317.413C75.4589 317.837 74.857 318.15 74.183 318.319C71.5515 318.977 66.2878 317.88 61.4634 316.345C56.6384 314.81 52.6908 309.766 52.6908 309.766C52.6908 309.766 47.2074 306.257 46.7688 304.941Z" fill="white" stroke="#263238" stroke-miterlimit="10" stroke-linecap="round" stroke-linejoin="round"/>
<path d="M38.6383 209.592C38.6383 209.592 46.9722 206.083 53.1127 208.495C59.2531 210.908 70.2186 220.776 74.8239 227.794C79.4292 234.812 83.3769 237.882 83.1578 244.461C82.9388 251.04 72.6311 280.428 72.1924 283.059C71.7537 285.691 68.9187 296.608 68.9187 296.608C68.9187 296.608 69.1792 298.597 68.9187 300.774C68.7191 302.446 68.178 305.332 68.178 305.332C68.178 305.332 60.8044 304.941 56.6378 302.967C52.4711 300.993 50.2777 299.02 50.2777 299.02C50.2777 299.02 50.7164 296.388 51.5938 294.195C52.4712 292.002 55.3055 288.103 55.7442 286.787C56.1829 285.471 57.2793 272.093 57.2793 266.61C57.2793 261.128 59.6918 247.531 59.6918 246.653C59.6918 245.776 60.5692 242.925 60.5692 242.925C60.5692 242.925 41.9282 233.715 36.8842 229.328C31.8401 224.942 29.6868 220.822 29.193 216.9C28.8341 214.05 30.0121 209.983 30.0121 209.983" fill="white"/>
<path d="M38.6383 209.592C38.6383 209.592 46.9722 206.083 53.1127 208.495C59.2531 210.908 70.2186 220.776 74.8239 227.794C79.4292 234.812 83.3769 237.882 83.1578 244.461C82.9388 251.04 72.6311 280.428 72.1924 283.059C71.7537 285.691 68.9187 296.608 68.9187 296.608C68.9187 296.608 69.1792 298.597 68.9187 300.774C68.7191 302.446 68.178 305.332 68.178 305.332C68.178 305.332 60.8044 304.941 56.6378 302.967C52.4711 300.993 50.2777 299.02 50.2777 299.02C50.2777 299.02 50.7164 296.388 51.5938 294.195C52.4712 292.002 55.3055 288.103 55.7442 286.787C56.1829 285.471 57.2793 272.093 57.2793 266.61C57.2793 261.128 59.6918 247.531 59.6918 246.653C59.6918 245.776 60.5692 242.925 60.5692 242.925C60.5692 242.925 41.9282 233.715 36.8842 229.328C31.8401 224.942 29.6868 220.822 29.193 216.9C28.8341 214.05 30.0121 209.983 30.0121 209.983" stroke="#263238" stroke-miterlimit="10" stroke-linecap="round" stroke-linejoin="round"/>
<path d="M36.6645 201.916C36.6645 201.916 33.8133 204.986 34.252 206.302C34.6907 207.618 36.6645 210.03 35.7871 210.03C34.9097 210.03 33.5943 212.004 33.5943 212.004L35.5681 212.443L34.6907 217.487C34.6907 217.487 58.8144 236.786 61.0072 238.54C63.2001 240.294 64.9549 241.172 64.9549 241.172L63.4197 243.803L66.2709 244.242C66.2709 244.242 62.1043 248.409 61.6656 251.918C61.2269 255.427 57.5152 292.222 57.0765 293.318C56.6378 294.415 55.9801 295.073 55.7604 296.17C55.5414 297.266 55.7604 299.021 55.7604 299.678C55.7604 300.336 55.5414 301.871 55.5414 301.871" stroke="#263238" stroke-miterlimit="10" stroke-linecap="round" stroke-linejoin="round"/>
<path d="M280.775 291.952C279.484 292.339 279.225 292.727 279.225 296.213C279.225 299.7 282.583 302.284 283.616 305.383C284.649 308.483 288.136 312.616 292.011 314.682C295.885 316.748 299.631 316.361 300.018 312.745C300.406 309.128 296.79 304.995 294.852 301.896C292.915 298.796 290.203 293.242 290.203 293.242C288.911 291.047 282.067 291.563 280.775 291.952Z" fill="white" stroke="#263238" stroke-miterlimit="10" stroke-linecap="round" stroke-linejoin="round"/>
<path d="M283.617 305.383C284.65 308.483 288.137 312.616 292.011 314.682C295.886 316.748 299.631 316.361 300.019 312.745C300.042 312.526 300.049 312.306 300.045 312.084L299.889 312.099C299.889 312.099 298.985 315.585 294.723 314.552C290.461 313.52 285.554 309.516 284.779 306.029C284.003 302.542 281.937 300.863 280.517 298.021C279.987 296.963 279.566 295.851 279.245 294.872C279.232 295.261 279.225 295.7 279.225 296.213C279.225 299.7 282.583 302.283 283.617 305.383Z" fill="#263238" stroke="#263238" stroke-miterlimit="10" stroke-linecap="round" stroke-linejoin="round"/>
<path d="M282.971 297.117C288.136 297.763 289.686 295.567 289.686 295.567" stroke="#263238" stroke-miterlimit="10" stroke-linecap="round" stroke-linejoin="round"/>
<path d="M284.391 298.926C287.878 299.183 289.815 297.375 289.815 297.375" stroke="#263238" stroke-miterlimit="10" stroke-linecap="round" stroke-linejoin="round"/>
<path d="M285.812 300.604C288.782 300.863 290.333 298.925 290.333 298.925" stroke="#263238" stroke-miterlimit="10" stroke-linecap="round" stroke-linejoin="round"/>
<path d="M286.458 302.541C289.945 302.929 290.849 301.121 290.849 301.121" stroke="#263238" stroke-miterlimit="10" stroke-linecap="round" stroke-linejoin="round"/>
<path d="M269.023 297.634C269.023 297.634 270.702 307.965 270.056 310.807C269.41 313.648 264.373 313.002 262.049 313.002C259.724 313.002 258.432 312.873 253.395 313.777C248.358 314.682 238.802 314.423 238.156 314.036C237.509 313.648 236.863 312.616 237.381 311.324C237.898 310.033 244.355 308.224 249.392 305.512C254.428 302.8 257.141 298.15 257.141 298.15C261.403 299.829 269.023 297.634 269.023 297.634Z" fill="white" stroke="#263238" stroke-miterlimit="10"/>
<path d="M253.395 313.778C258.432 312.874 259.723 313.003 262.048 313.003C264.373 313.003 269.41 313.649 270.056 310.808C270.115 310.544 270.155 310.215 270.178 309.837C269.198 310.368 266.767 311.393 262.306 311.583C256.237 311.841 248.487 313.519 243.321 313.003C240.582 312.729 238.54 312.31 237.22 311.977C237.102 312.956 237.623 313.717 238.155 314.036C238.801 314.423 248.358 314.681 253.395 313.778Z" fill="#263238" stroke="#263238" stroke-miterlimit="10"/>
<path d="M257.528 304.091C256.753 302.283 255.203 301.121 255.203 301.121" stroke="#263238" stroke-miterlimit="10"/>
<path d="M255.332 305.382C255.332 304.479 253.653 303.058 253.653 303.058" stroke="#263238" stroke-miterlimit="10"/>
<path d="M253.008 306.675C252.75 305.641 251.975 304.35 251.975 304.35" stroke="#263238" stroke-miterlimit="10"/>
<path d="M250.424 307.32C250.424 306.416 249.391 305.512 249.391 305.512" stroke="#263238" stroke-miterlimit="10"/>
<path d="M271.802 159.776C259.49 160.1 242.857 163.773 242.857 163.773C242.857 163.773 238.106 173.709 238.106 190.233C238.106 206.757 244.262 227.169 244.586 228.465C244.91 229.761 249.122 248.229 249.77 254.385C250.418 260.541 255.602 297.801 255.602 297.801C255.602 297.801 258.518 300.069 262.73 300.069C266.942 300.069 269.858 298.125 269.858 298.125L270.182 262.809L277.644 291.951C277.644 291.951 281.17 293.427 284.086 293.427C287.002 293.427 290.259 291.548 290.259 291.548C290.259 291.548 290.918 264.428 290.594 256.004C290.27 247.58 282.494 228.464 282.494 228.464C282.494 228.464 297.074 201.896 297.398 191.204C297.722 180.512 293.618 160.964 293.618 160.964C293.618 160.964 284.114 159.452 271.802 159.776Z" fill="#263238" stroke="#263238" stroke-miterlimit="10" stroke-linecap="round" stroke-linejoin="round"/>
<path d="M264.998 186.02C264.998 186.02 259.49 222.308 259.49 228.14C259.49 233.972 267.914 257.948 267.914 257.948" stroke="#878787" stroke-miterlimit="10"/>
<path d="M256.25 188.288C257.87 191.528 262.73 197.036 262.73 197.036" stroke="#878787" stroke-miterlimit="10"/>
<path d="M245.666 111.068L245.45 114.092C245.45 114.092 238.538 146.925 237.242 152.109C235.946 157.293 235.514 163.557 229.898 164.637C224.283 165.716 222.339 163.989 221.906 157.725C221.474 151.46 229.466 126.836 233.138 121.004C236.81 115.172 243.506 111.284 243.506 111.284L245.666 111.068Z" fill="white" stroke="#263238" stroke-miterlimit="10" stroke-linecap="round" stroke-linejoin="round"/>
<path d="M229.898 164.635C235.514 163.556 235.946 157.291 237.242 152.107C237.655 150.456 238.639 145.993 239.787 140.681L226.12 138.768C223.653 146.577 221.685 154.532 221.906 157.724C222.338 163.988 224.282 165.716 229.898 164.635Z" fill="#CFCFCF" stroke="#263238" stroke-miterlimit="10" stroke-linecap="round" stroke-linejoin="round"/>
<path d="M284.114 109.773C284.114 109.773 277.418 107.181 272.666 105.885C267.914 104.589 259.706 104.373 256.466 106.749C253.226 109.125 249.338 112.797 248.474 116.469C247.61 120.141 242.858 163.773 242.858 163.773C242.858 163.773 254.306 166.581 263.162 166.581C272.018 166.581 293.618 160.965 293.618 160.965L292.97 143.469C292.97 143.469 295.994 128.565 294.698 119.493C293.402 110.421 288.218 109.34 288.218 109.34L284.114 109.773Z" fill="white" stroke="#263238" stroke-miterlimit="10" stroke-linecap="round" stroke-linejoin="round"/>
<path d="M288.217 109.34C288.217 109.34 287.786 110.204 285.41 114.092C283.033 117.98 280.441 130.507 282.385 136.772C284.329 143.036 293.186 142.388 293.186 142.388L299.666 182.78C299.666 182.78 294.482 183.428 287.138 184.724C279.794 186.02 269.642 185.587 269.642 185.587C269.642 185.587 267.266 146.707 267.698 134.18C268.13 121.651 272.666 103.292 272.666 103.292L288.217 109.34Z" fill="#EA5D01" stroke="#263238" stroke-miterlimit="10" stroke-linecap="round" stroke-linejoin="round"/>
<path d="M255.602 106.316L243.505 111.283C243.505 111.283 242.426 114.092 239.402 126.62C236.377 139.148 233.137 181.484 233.137 181.484C238.969 183.86 249.337 184.508 249.337 184.508C249.337 184.508 249.122 174.788 248.689 156.644C248.258 138.5 253.01 120.356 253.01 120.356L255.602 106.316Z" fill="#EA5D01" stroke="#263238" stroke-miterlimit="10" stroke-linecap="round" stroke-linejoin="round"/>
<path d="M256.223 103.978C251.843 109.032 249.822 123.688 249.822 123.688L260.434 117.623L269.026 124.698C269.026 124.698 274.922 105.326 273.742 102.967C272.563 100.609 268.015 99.767 268.015 99.767C268.015 99.767 260.602 98.9246 256.223 103.978Z" fill="white" stroke="#263238" stroke-miterlimit="10" stroke-linecap="round" stroke-linejoin="round"/>
<path d="M255.212 96.7343C255.212 96.7343 256.559 103.641 256.896 104.483C257.233 105.326 257.738 117.623 259.591 118.634C261.444 119.644 266.329 113.243 268.183 108.863C270.036 104.483 269.867 87.4692 269.867 87.4692C267.341 93.3654 255.212 96.7343 255.212 96.7343Z" fill="#CFCFCF" stroke="#263238" stroke-miterlimit="10" stroke-linecap="round" stroke-linejoin="round"/>
<path d="M255.212 96.7343C255.212 96.7343 256.559 103.641 256.896 104.483C256.9 104.494 256.905 104.513 256.909 104.527C258.397 104.819 260.061 104.84 261.889 104.593C265.088 104.161 267.573 102.614 269.512 100.418C269.934 94.2985 269.867 87.4692 269.867 87.4692C267.341 93.3654 255.212 96.7343 255.212 96.7343Z" fill="#263238" stroke="#263238" stroke-miterlimit="10" stroke-linecap="round" stroke-linejoin="round"/>
<path d="M258.41 133.748C258.628 133.392 259.093 133.28 259.449 133.498C259.805 133.716 259.917 134.181 259.7 134.537L252.202 146.789L250.912 146L258.41 133.748Z" fill="white" stroke="#263238" stroke-miterlimit="10" stroke-linecap="round" stroke-linejoin="round"/>
<path d="M283.466 129.213L289.298 149.085L266.618 147.573C266.618 147.573 254.954 138.933 253.658 139.797C252.362 140.661 248.906 147.789 249.77 149.085C250.633 150.381 252.793 152.541 253.873 152.541C254.954 152.541 253.658 151.46 253.658 151.46L265.322 152.756C265.322 152.756 299.666 164.205 300.314 164.205C300.962 164.205 305.713 164.853 304.85 156.861C303.986 148.868 299.234 121.437 296.21 115.605C293.186 109.773 288.218 109.34 288.218 109.34" fill="white"/>
<path d="M283.466 129.213L289.298 149.085L266.618 147.573C266.618 147.573 254.954 138.933 253.658 139.797C252.362 140.661 248.906 147.789 249.77 149.085C250.633 150.381 252.793 152.541 253.873 152.541C254.954 152.541 253.658 151.46 253.658 151.46L265.322 152.756C265.322 152.756 299.666 164.205 300.314 164.205C300.962 164.205 305.713 164.853 304.85 156.861C303.986 148.868 299.234 121.437 296.21 115.605C293.186 109.773 288.218 109.34 288.218 109.34" stroke="#263238" stroke-miterlimit="10" stroke-linecap="round" stroke-linejoin="round"/>
<path d="M249.77 149.084C250.634 150.38 252.794 152.539 253.874 152.539C254.954 152.539 253.658 151.459 253.658 151.459L265.322 152.755C265.322 152.755 299.666 164.203 300.314 164.203C300.962 164.203 305.714 164.851 304.85 156.86C304.51 153.718 303.569 147.569 302.368 140.912L287.86 144.184L289.298 149.084L266.618 147.573C266.618 147.573 254.954 138.933 253.658 139.797C252.362 140.66 248.906 147.788 249.77 149.084Z" fill="#CFCFCF" stroke="#263238" stroke-miterlimit="10" stroke-linecap="round" stroke-linejoin="round"/>
<path d="M249.77 149.084C250.633 150.38 252.793 152.54 253.873 152.54C254.954 152.54 253.658 151.46 253.658 151.46L265.322 152.756C265.322 152.756 266.502 153.15 268.428 153.79C269.566 151.843 269.896 149.605 269.928 147.793L266.618 147.573C266.618 147.573 254.954 138.933 253.658 139.797C252.362 140.66 248.906 147.788 249.77 149.084Z" fill="#666666" stroke="#263238" stroke-miterlimit="10" stroke-linecap="round" stroke-linejoin="round"/>
<path d="M214.346 130.94L235.298 159.452L264.242 160.532L242.21 129.644L214.346 130.94Z" fill="#263238" stroke="#263238" stroke-miterlimit="10" stroke-linecap="round" stroke-linejoin="round"/>
<path d="M219.818 129.019L221.507 131.834L234.176 131.552L232.486 128.737L219.818 129.019Z" fill="#263238" stroke="#263238" stroke-miterlimit="10" stroke-linecap="round" stroke-linejoin="round"/>
<path d="M222.264 148.599C222.561 149.666 223.865 150.022 225.525 150.022C227.186 150.022 229.498 149.903 229.498 149.251C229.498 148.598 228.312 147.946 227.008 147.886C225.704 147.828 223.925 147.175 223.925 147.175C222.383 146.582 221.969 147.531 222.264 148.599Z" fill="#666666" stroke="#263238" stroke-miterlimit="10" stroke-linecap="round" stroke-linejoin="round"/>
<path d="M220.325 146.082C220.702 147.436 222.355 147.887 224.461 147.887C226.566 147.887 229.498 147.736 229.498 146.91C229.498 146.082 227.995 145.255 226.341 145.18C224.686 145.105 222.431 144.278 222.431 144.278C220.476 143.526 219.949 144.73 220.325 146.082Z" fill="#666666" stroke="#263238" stroke-miterlimit="10" stroke-linecap="round" stroke-linejoin="round"/>
<path d="M219.13 143.607C219.507 144.961 221.16 145.412 223.266 145.412C225.371 145.412 228.303 145.262 228.303 144.435C228.303 143.607 226.8 142.78 225.146 142.705C223.491 142.63 221.236 141.803 221.236 141.803C219.281 141.051 218.754 142.254 219.13 143.607Z" fill="#666666" stroke="#263238" stroke-miterlimit="10" stroke-linecap="round" stroke-linejoin="round"/>
<path d="M218.317 140.803C218.693 142.156 220.347 142.607 222.453 142.607C224.558 142.607 227.49 142.457 227.49 141.63C227.49 140.803 225.987 139.976 224.332 139.901C222.678 139.825 220.422 138.999 220.422 138.999C218.468 138.246 217.941 139.45 218.317 140.803Z" fill="#666666" stroke="#263238" stroke-miterlimit="10" stroke-linecap="round" stroke-linejoin="round"/>
<path d="M276.034 287.79C276.034 287.79 276.973 293.292 277.51 294.098C278.046 294.903 279.926 295.574 282.878 295.574C285.83 295.574 290.528 294.232 290.796 293.158C291.064 292.085 290.93 285.375 290.93 285.375C286.502 289.937 276.034 287.79 276.034 287.79Z" fill="#666666" stroke="#263238" stroke-miterlimit="10" stroke-linecap="round" stroke-linejoin="round"/>
<path d="M271.68 93.1992C272.69 97.7475 276.733 100.612 282.966 99.6008C289.199 98.5899 294.421 89.4933 288.525 84.4395C282.63 79.3858 276.06 82.0815 276.06 82.0815C272.354 81.913 270.67 88.6515 271.68 93.1992Z" fill="#263238" stroke="#263238" stroke-miterlimit="10" stroke-linecap="round" stroke-linejoin="round"/>
<path d="M275.049 76.354C275.049 76.354 274.881 84.4397 272.859 90.3359C270.838 96.232 267.301 101.286 261.068 102.128C254.835 102.97 250.455 100.78 248.77 94.8842C247.086 88.9881 246.243 80.5654 246.243 80.5654L275.049 76.354Z" fill="#CFCFCF" stroke="#263238" stroke-miterlimit="10" stroke-linecap="round" stroke-linejoin="round"/>
<path d="M276.06 75.006L265.279 74.332C265.279 74.332 263.089 75.8484 267.637 79.0488C272.185 82.2499 274.207 80.3967 274.207 80.3967L276.06 75.006Z" fill="#263238" stroke="#263238" stroke-miterlimit="10" stroke-linecap="round" stroke-linejoin="round"/>
<path d="M256.856 88.6509C256.182 89.8303 254.498 90.6727 252.982 89.3248C251.465 87.9776 252.813 86.7983 253.319 85.9559C253.824 85.1135 252.982 82.5869 252.982 82.5869" stroke="#263238" stroke-miterlimit="10" stroke-linecap="round" stroke-linejoin="round"/>
<path d="M254.872 91.9285C259.79 93.4811 262.378 90.1167 262.378 90.1167" stroke="#263238" stroke-miterlimit="10" stroke-linecap="round" stroke-linejoin="round"/>
<path d="M259.551 81.9131C260.016 81.9131 260.394 82.6674 260.394 83.5979C260.394 84.5284 260.016 85.2827 259.551 85.2827C259.086 85.2827 258.709 84.5284 258.709 83.5979C258.709 82.6674 259.086 81.9131 259.551 81.9131Z" fill="#263238"/>
<path d="M250.286 83.2603C250.751 83.2603 251.129 84.0145 251.129 84.945C251.129 85.8756 250.751 86.6299 250.286 86.6299C249.821 86.6299 249.444 85.8756 249.444 84.945C249.444 84.0152 249.821 83.2609 250.286 83.2603Z" fill="#263238"/>
<path d="M256.856 79.8912C259.888 77.1961 262.246 79.8912 262.246 79.8912" stroke="#263238" stroke-miterlimit="10" stroke-linecap="round" stroke-linejoin="round"/>
<path d="M247.928 81.4076C249.781 79.8912 251.465 81.2391 251.465 81.2391" stroke="#263238" stroke-miterlimit="10" stroke-linecap="round" stroke-linejoin="round"/>
<path d="M275.386 60.35C274.376 59.0022 268.311 56.1387 263.426 55.8017C258.54 55.4648 246.075 59.1713 245.906 61.8663C245.738 64.5614 245.401 80.3966 245.401 80.3966L276.734 77.0276C276.734 77.0276 276.397 61.6979 275.386 60.35Z" fill="#EA5D01" stroke="#263238" stroke-miterlimit="10" stroke-linecap="round" stroke-linejoin="round"/>
<path d="M248.77 75.5111C242.874 76.0166 235.462 82.4182 235.462 82.4182L263.257 78.7122C263.257 78.7122 254.666 75.0063 248.77 75.5111Z" fill="#EA5D01" stroke="#263238" stroke-miterlimit="10" stroke-linecap="round" stroke-linejoin="round"/>
<path d="M273.028 85.6193C274.207 86.6295 277.408 85.9556 277.744 83.2605C278.081 80.5649 279.429 76.3535 276.565 76.3535C273.702 76.3535 273.028 81.5757 273.028 81.5757" fill="#CFCFCF"/>
<path d="M273.028 85.6193C274.207 86.6295 277.408 85.9556 277.744 83.2605C278.081 80.5649 279.429 76.3535 276.565 76.3535C273.702 76.3535 273.028 81.5757 273.028 81.5757" stroke="#263238" stroke-miterlimit="10" stroke-linecap="round" stroke-linejoin="round"/>
<path d="M254.561 291.011L255.602 297.8C255.602 297.8 257.513 300.137 262.73 300.068C267.946 299.999 269.726 298.66 269.726 298.66L270.129 292.353C264.224 295.574 254.561 291.011 254.561 291.011Z" fill="#666666" stroke="#263238" stroke-miterlimit="10" stroke-linecap="round" stroke-linejoin="round"/>
</svg>
