<svg width="342" height="342" viewBox="0 0 342 342" fill="none" xmlns="http://www.w3.org/2000/svg">
<path d="M256.5 256.5C303.72 209.28 303.72 132.72 256.5 85.5C209.28 38.2797 132.72 38.2797 85.5 85.5C38.2796 132.72 38.2797 209.28 85.5 256.5C132.72 303.72 209.28 303.72 256.5 256.5Z" fill="white"/>
<path d="M197.356 204.329H146.975C143.2 201.632 137.606 196.676 134.573 188.827C129.192 174.902 134.138 157.728 146.975 145.033C146.975 143.356 147.142 134.431 154.353 127.221C158.912 122.662 165.209 119.843 172.165 119.843C186.078 119.843 197.356 131.121 197.356 145.034C209.45 156.986 214.403 173.316 209.758 187.277C206.844 196.034 200.92 201.557 197.356 204.329Z" fill="#EA5D01"/>
<path d="M163.367 191.152H184.173V168.919H163.367V191.152Z" fill="#F9C7BD"/>
<path d="M184.173 168.92V179.509C182.437 179.805 177.721 180.372 172.563 177.949C166.579 175.135 163.963 170.157 163.251 168.675C163.289 168.757 163.329 168.838 163.367 168.92H184.173V168.92Z" fill="#131E21"/>
<path d="M173.611 175.763C181.433 175.763 187.774 166.751 187.774 155.635C187.774 144.519 181.433 135.508 173.611 135.508C165.788 135.508 159.447 144.519 159.447 155.635C159.447 166.751 165.788 175.763 173.611 175.763Z" fill="#F9CBC7"/>
<path d="M178.139 155.927C178.576 155.6 179.619 154.906 181.137 154.744C182.734 154.574 183.952 155.088 184.441 155.328" stroke="#1D1D1B" stroke-width="0.5" stroke-miterlimit="10"/>
<path d="M181.915 155.522C181.915 155.951 181.567 156.3 181.137 156.3C180.708 156.3 180.36 155.951 180.36 155.522C180.36 155.093 180.708 154.745 181.137 154.745C181.567 154.745 181.915 155.093 181.915 155.522Z" fill="#2D3436"/>
<path d="M169.368 155.927C168.931 155.6 167.888 154.906 166.37 154.744C164.773 154.574 163.555 155.088 163.066 155.328" stroke="#1D1D1B" stroke-width="0.5" stroke-miterlimit="10"/>
<path d="M166.37 156.3C166.799 156.3 167.147 155.952 167.147 155.522C167.147 155.093 166.799 154.745 166.37 154.745C165.94 154.745 165.592 155.093 165.592 155.522C165.592 155.952 165.94 156.3 166.37 156.3Z" fill="#2D3436"/>
<path d="M161.864 154.834C162.923 159.211 161.795 163.242 159.344 163.835C156.893 164.428 154.046 161.361 152.986 156.983C151.927 152.606 153.055 148.575 155.506 147.982C157.957 147.389 160.803 150.457 161.864 154.834Z" fill="#F9CBC7"/>
<path d="M186.315 155.609C185.255 159.987 186.383 164.017 188.835 164.61C191.286 165.204 194.133 162.137 195.193 157.759C196.253 153.381 195.125 149.351 192.673 148.758C190.222 148.164 187.375 151.232 186.315 155.609Z" fill="#F9CBC7"/>
<path d="M169.867 167.569C170.228 169.45 171.916 170.772 173.754 170.679C175.456 170.592 176.922 169.307 177.251 167.569" fill="#EA5D01"/>
<path d="M168.158 166.98C168.949 167.474 171.058 168.64 173.955 168.535C176.424 168.447 178.214 167.48 179.015 166.98" stroke="#1D1D1B" stroke-width="0.5" stroke-miterlimit="10"/>
<path d="M182.497 165.295C184.449 165.295 186.032 163.713 186.032 161.761C186.032 159.809 184.449 158.227 182.497 158.227C180.545 158.227 178.963 159.809 178.963 161.761C178.963 163.713 180.545 165.295 182.497 165.295Z" fill="#EA5D01"/>
<path d="M164.826 165.295C166.777 165.295 168.36 163.713 168.36 161.761C168.36 159.809 166.777 158.227 164.826 158.227C162.874 158.227 161.291 159.809 161.291 161.761C161.291 163.713 162.874 165.295 164.826 165.295Z" fill="#EA5D01"/>
<path d="M169.867 167.57L171.72 166.334C172.014 166.138 172.392 166.122 172.702 166.292L173.61 166.792L174.778 166.258C175.103 166.109 175.484 166.156 175.763 166.379C176.259 166.776 176.755 167.173 177.251 167.57C176.467 167.865 175.222 168.226 173.661 168.241C171.996 168.258 170.673 167.873 169.867 167.57Z" fill="#EA5D01"/>
<path d="M173.885 163.418C173.941 163.318 174.175 162.933 174.67 162.758C175.137 162.591 175.538 162.717 175.652 162.758" stroke="#1D1D1B" stroke-width="0.5" stroke-miterlimit="10"/>
<path d="M172.705 163.418C172.648 163.318 172.415 162.933 171.92 162.758C171.452 162.591 171.051 162.717 170.938 162.758" stroke="#1D1D1B" stroke-width="0.5" stroke-miterlimit="10"/>
<path d="M171.232 161.285C170.723 161.376 170.328 161.774 170.25 162.267C170.18 162.705 170.371 163.151 170.741 163.418" stroke="#1D1D1B" stroke-width="0.5" stroke-miterlimit="10"/>
<path d="M175.146 161.285C175.655 161.376 176.05 161.774 176.128 162.267C176.198 162.705 176.007 163.151 175.638 163.418" stroke="#1D1D1B" stroke-width="0.5" stroke-miterlimit="10"/>
<path d="M169.086 141.82C164.066 145.469 158.771 146.743 157.261 144.666C155.751 142.588 158.597 137.945 163.618 134.296C168.639 130.646 173.933 129.372 175.443 131.45C176.953 133.528 174.107 138.17 169.086 141.82Z" fill="#EA5D01"/>
<path d="M177.57 142.595C182.591 146.245 187.885 147.519 189.395 145.441C190.905 143.363 188.059 138.721 183.038 135.071C178.017 131.422 172.723 130.147 171.213 132.225C169.702 134.303 172.548 138.946 177.57 142.595Z" fill="#EA5D01"/>
<path d="M178.668 152.305L185.715 151.911C186.201 151.884 186.573 151.468 186.546 150.982C186.519 150.495 186.103 150.123 185.617 150.15L178.57 150.544C178.083 150.572 177.711 150.988 177.739 151.475C177.765 151.96 178.182 152.332 178.668 152.305Z" fill="#FFC312"/>
<path d="M178.98 152.287C179.096 151.397 179.571 150.577 180.277 150.026C180.332 149.983 180.255 149.906 180.2 149.949C179.469 150.519 178.991 151.368 178.871 152.287C178.862 152.356 178.971 152.355 178.98 152.287Z" fill="#3A3A37"/>
<path d="M181.534 150.122C180.905 150.538 180.723 151.3 180.578 151.993C180.564 152.061 180.669 152.09 180.683 152.022C180.822 151.362 180.987 150.614 181.589 150.217C181.647 150.178 181.593 150.084 181.534 150.122Z" fill="#3A3A37"/>
<path d="M183.465 149.885C183.26 149.898 183.128 150.093 183.008 150.239C182.865 150.41 182.732 150.59 182.608 150.777C182.357 151.156 182.152 151.564 181.99 151.989C181.966 152.054 182.071 152.082 182.096 152.018C182.241 151.635 182.425 151.267 182.645 150.921C182.753 150.75 182.87 150.585 182.996 150.426C183.058 150.347 183.122 150.269 183.188 150.194C183.262 150.109 183.344 150.001 183.465 149.993C183.534 149.991 183.535 149.882 183.465 149.885Z" fill="#3A3A37"/>
<path d="M184.534 150.305C183.986 150.706 183.694 151.333 183.426 151.937C183.397 152 183.491 152.056 183.519 151.992C183.779 151.409 184.059 150.787 184.589 150.399C184.645 150.358 184.59 150.264 184.534 150.305Z" fill="#3A3A37"/>
<path d="M186.182 150.376C185.802 150.815 185.49 151.309 185.257 151.842C185.229 151.906 185.323 151.961 185.35 151.897C185.579 151.373 185.885 150.885 186.259 150.453C186.304 150.4 186.228 150.323 186.182 150.376Z" fill="#3A3A37"/>
<path d="M178.567 149.882C178.151 150.554 177.974 151.358 178.073 152.142C178.082 152.21 178.191 152.212 178.182 152.142C178.085 151.374 178.254 150.595 178.661 149.937C178.698 149.877 178.604 149.822 178.567 149.882Z" fill="#3A3A37"/>
<path d="M170.114 152.305L163.068 151.911C162.581 151.884 162.209 151.468 162.236 150.982C162.263 150.495 162.68 150.123 163.165 150.15L170.212 150.544C170.699 150.572 171.071 150.988 171.043 151.475C171.017 151.96 170.601 152.332 170.114 152.305Z" fill="#FFC312"/>
<path d="M169.911 152.287C169.791 151.368 169.313 150.519 168.582 149.949C168.527 149.906 168.45 149.983 168.505 150.026C169.211 150.577 169.686 151.397 169.802 152.287C169.811 152.355 169.92 152.356 169.911 152.287Z" fill="#3A3A37"/>
<path d="M167.194 150.217C167.796 150.614 167.961 151.362 168.099 152.022C168.114 152.09 168.218 152.061 168.205 151.993C168.06 151.301 167.878 150.538 167.249 150.122C167.19 150.084 167.135 150.178 167.194 150.217Z" fill="#3A3A37"/>
<path d="M165.317 149.994C165.433 150 165.511 150.1 165.582 150.18C165.649 150.256 165.713 150.333 165.776 150.412C165.905 150.575 166.026 150.745 166.138 150.921C166.357 151.267 166.541 151.634 166.687 152.017C166.711 152.082 166.816 152.054 166.792 151.988C166.63 151.563 166.425 151.156 166.174 150.776C166.054 150.594 165.924 150.42 165.786 150.251C165.663 150.103 165.528 149.897 165.317 149.884C165.248 149.881 165.248 149.99 165.317 149.994Z" fill="#3A3A37"/>
<path d="M164.194 150.399C164.724 150.787 165.004 151.409 165.264 151.992C165.292 152.056 165.385 152.001 165.358 151.937C165.089 151.334 164.797 150.706 164.25 150.305C164.192 150.264 164.137 150.358 164.194 150.399Z" fill="#3A3A37"/>
<path d="M162.524 150.453C162.898 150.885 163.203 151.373 163.432 151.898C163.46 151.961 163.553 151.906 163.526 151.843C163.294 151.309 162.981 150.816 162.6 150.376C162.554 150.322 162.478 150.4 162.524 150.453Z" fill="#3A3A37"/>
<path d="M170.121 149.937C170.528 150.595 170.697 151.375 170.6 152.142C170.591 152.212 170.7 152.211 170.709 152.142C170.808 151.357 170.631 150.554 170.215 149.882C170.178 149.822 170.084 149.877 170.121 149.937Z" fill="#3A3A37"/>
<path d="M262.492 291.81C268.492 287.733 270.05 279.564 265.974 273.565L212.981 195.576L191.254 210.34L244.248 288.328C248.324 294.328 256.493 295.886 262.492 291.81Z" fill="#F9C7BD"/>
<path d="M215.797 253.132L246.57 232.221L223.481 198.243C217.707 189.745 206.137 187.537 197.639 193.312C189.141 199.086 186.934 210.656 192.708 219.154L215.797 253.132Z" fill="#FFC312"/>
<path d="M81.2993 291.81C75.3 287.733 73.7414 279.564 77.8181 273.565L130.812 195.576L152.537 210.339L99.544 288.327C95.4666 294.328 87.2987 295.886 81.2993 291.81Z" fill="#F9C7BD"/>
<path d="M127.994 253.132L97.221 232.221L120.31 198.243C126.084 189.745 137.654 187.537 146.152 193.312C154.649 199.086 156.857 210.656 151.083 219.154L127.994 253.132Z" fill="#FFC312"/>
<path d="M208.676 273.215C207.312 282.09 204.638 289.09 202.515 293.725H140.847C138.428 290.439 135.228 285.291 133.135 278.339C129.22 265.325 131.623 254.016 133.135 245.862C135.468 233.266 138.049 215.346 139.304 191.163H202.514C204.801 214.672 206.754 233.731 208.676 249.28C209.258 253.985 210.343 262.403 208.676 273.215Z" fill="#FFC312"/>
<path d="M75.1172 283.177V281.488C75.1172 274.701 80.619 269.199 87.406 269.199H169.807V295.466H87.406C80.619 295.467 75.1172 289.965 75.1172 283.177Z" fill="#F9C7BD"/>
<path d="M253.357 292.436C260.367 294.298 267.56 290.125 269.421 283.114L290.357 204.291L264.97 197.548L244.034 276.371C242.173 283.381 246.347 290.574 253.357 292.436Z" fill="#F9C7BD"/>
<path d="M162.235 192.809C163.307 193.733 167.145 196.811 172.941 196.966C179.308 197.137 183.574 193.659 184.561 192.809" stroke="#222F3E" stroke-miterlimit="10"/>
<path d="M287.269 215.956C288.298 212.067 289.328 208.179 290.357 204.29L273.788 198.973C269.766 202.402 268.027 207.47 269.441 211.305C271.414 216.66 279.686 220.038 287.269 215.956Z" fill="#F9B5AA"/>
<path d="M280.765 214.104C273.781 215.686 266.838 211.307 265.256 204.323L261.915 189.571L287.204 183.844L290.545 198.596C292.127 205.579 287.748 212.522 280.765 214.104Z" fill="#F9C7BD"/>
<path d="M287.205 183.844L290.546 198.596C292.128 205.579 287.749 212.522 280.765 214.104" stroke="#F99180" stroke-width="0.25" stroke-miterlimit="10"/>
<path d="M267.225 198.339C265.479 198.734 263.743 197.639 263.347 195.894L256.666 166.39C256.27 164.644 257.365 162.908 259.11 162.513C260.856 162.118 262.592 163.212 262.988 164.958L269.669 194.461C270.065 196.207 268.97 197.943 267.225 198.339Z" fill="#F9C7BD"/>
<path d="M273.547 196.907C271.801 197.302 270.065 196.208 269.669 194.462L266.806 181.817C266.411 180.072 267.505 178.336 269.251 177.94C270.997 177.545 272.733 178.639 273.128 180.385L275.992 193.029C276.388 194.776 275.292 196.511 273.547 196.907Z" fill="#F9B5AA"/>
<path d="M279.869 195.474C278.123 195.87 276.387 194.775 275.992 193.029L273.128 180.385C272.733 178.64 273.827 176.904 275.573 176.508C277.319 176.113 279.055 177.207 279.45 178.953L282.314 191.597C282.71 193.343 281.615 195.079 279.869 195.474Z" fill="#F9B5AA"/>
<path d="M286.191 194.043C284.445 194.438 282.709 193.344 282.314 191.598L279.45 178.954C279.055 177.208 280.149 175.472 281.895 175.076C283.641 174.681 285.377 175.775 285.772 177.521L288.636 190.165C289.032 191.912 287.937 193.647 286.191 194.043Z" fill="#F9B5AA"/>
<path d="M287.171 188.843L287.623 190.61C287.888 191.647 287.262 192.702 286.226 192.968C285.189 193.233 284.133 192.607 283.868 191.571L283.388 189.693" stroke="#222F3E" stroke-width="0.25" stroke-miterlimit="10"/>
<path d="M280.73 190.198L281.182 191.965C281.447 193.002 280.821 194.057 279.785 194.323C278.748 194.588 277.692 193.962 277.427 192.926L276.947 191.049" stroke="#222F3E" stroke-width="0.25" stroke-miterlimit="10"/>
<path d="M274.649 191.638L275.101 193.405C275.366 194.441 274.741 195.497 273.704 195.763C272.667 196.028 271.612 195.402 271.346 194.366L270.866 192.489" stroke="#222F3E" stroke-width="0.25" stroke-miterlimit="10"/>
<path d="M280.231 190.532C281.255 192 280.894 194.02 279.426 195.044L268.79 202.458C267.321 203.481 265.301 203.121 264.277 201.652C263.254 200.183 263.614 198.164 265.083 197.14L275.719 189.726C277.188 188.703 279.207 189.063 280.231 190.532Z" fill="#F9B5AA"/>
<path d="M275.894 189.795C276.691 189.082 277.916 189.15 278.63 189.949C279.343 190.747 279.275 191.972 278.476 192.685L277.032 193.976" stroke="#222F3E" stroke-width="0.25" stroke-miterlimit="10"/>
<path d="M245.916 244.048L250.063 264.788L254.134 238.346L250.736 251.141L245.916 244.048Z" fill="#F9B5AA"/>
<path d="M114.067 207.43L97.221 232.221L127.994 253.131" stroke="#222F3E" stroke-miterlimit="10"/>
<path d="M151.881 166.213C153.299 167.733 155.235 169.238 157.826 170.226C164.451 172.75 170.143 169.9 171.003 169.45" stroke="#222F3E" stroke-miterlimit="10"/>
<path d="M173.328 169.45C173.328 170.306 172.634 171 171.778 171C170.921 171 170.228 170.306 170.228 169.45C170.228 168.594 170.922 167.9 171.778 167.9C172.634 167.9 173.328 168.594 173.328 169.45Z" fill="#222F3E"/>
<path d="M155.5 167.124H153.143C149.736 167.124 146.974 164.362 146.974 160.955V156.241C146.974 152.834 149.736 150.072 153.143 150.072H155.5V167.124Z" fill="#131E21"/>
<path d="M155.5 167.9C154.644 167.9 153.95 167.206 153.95 166.349V150.847C153.95 149.991 154.644 149.297 155.5 149.297C156.356 149.297 157.05 149.991 157.05 150.847V166.349C157.051 167.206 156.357 167.9 155.5 167.9Z" fill="#576574"/>
<path d="M190.38 167.124H192.737C196.145 167.124 198.906 164.362 198.906 160.955V156.241C198.906 152.834 196.145 150.072 192.737 150.072H190.38V167.124Z" fill="#131E21"/>
<path d="M190.38 167.9C191.236 167.9 191.93 167.206 191.93 166.349V150.847C191.93 149.991 191.236 149.297 190.38 149.297C189.524 149.297 188.83 149.991 188.83 150.847V166.349C188.83 167.206 189.524 167.9 190.38 167.9Z" fill="#576574"/>
<path d="M151.237 154.262C149.385 139.065 160.445 126.68 171.777 126.044C183.829 125.367 196.86 137.941 195.097 154.262C196.381 140.383 185.138 128.805 172.553 129.145C160.384 129.472 149.969 140.861 151.237 154.262Z" fill="#131E21"/>
<path d="M42.265 294.113H22.8896C18.9986 294.113 15.8437 290.958 15.8437 287.067V263.666H49.3109V287.067C49.3109 290.958 46.1568 294.113 42.265 294.113Z" fill="#FFC312"/>
<path d="M46.1408 294.113H26.7647C22.8737 294.113 19.7188 290.958 19.7188 287.067V263.666H53.186V287.067C53.1867 290.958 50.0318 294.113 46.1408 294.113Z" stroke="#222F3E" stroke-miterlimit="10"/>
<path d="M15.8437 208.369C21.9809 208.369 26.9562 213.344 26.9562 219.482V263.572" stroke="#222F3E" stroke-miterlimit="10"/>
<path d="M15.5942 207.818C15.5942 210.387 13.512 212.468 10.9438 212.468C8.37496 212.468 6.29346 210.386 6.29346 207.818C6.29346 205.25 8.37568 203.167 10.9438 203.167C13.512 203.167 15.5942 205.249 15.5942 207.818Z" stroke="#222F3E" stroke-miterlimit="10"/>
<path d="M52.8176 221.123C48.0983 221.123 44.2725 224.948 44.2725 229.668V263.573" stroke="#222F3E" stroke-miterlimit="10"/>
<path d="M53.0098 220.699C53.0098 222.674 54.6111 224.275 56.586 224.275C58.5609 224.275 60.1623 222.674 60.1623 220.699C60.1623 218.724 58.5609 217.123 56.586 217.123C54.6111 217.123 53.0098 218.723 53.0098 220.699Z" fill="#FFC312"/>
<path d="M35.7464 186.89C35.7464 189.459 33.6641 191.54 31.096 191.54C28.5278 191.54 26.4456 189.458 26.4456 186.89C26.4456 184.322 28.5278 182.24 31.096 182.24C33.6649 182.24 35.7464 184.322 35.7464 186.89Z" fill="#EA5D01"/>
<path d="M31.3795 191.163V263.667" stroke="#222F3E" stroke-miterlimit="10"/>
<path d="M43.8852 202.78C43.8852 205.348 41.803 207.43 39.2348 207.43C36.6667 207.43 34.5845 205.348 34.5845 202.78C34.5845 200.212 36.6667 198.129 39.2348 198.129C41.803 198.129 43.8852 200.211 43.8852 202.78Z" fill="#EA5D01"/>
<path d="M39.1304 207.43V263.666" stroke="#222F3E" stroke-miterlimit="10"/>
<path d="M26.9069 233.008C26.9069 237.075 23.6098 240.372 19.5433 240.372C15.4767 240.372 12.1797 237.075 12.1797 233.008H26.9069Z" fill="#EA5D01"/>
<path d="M54.8106 232.646C54.8106 235.429 52.555 237.684 49.7722 237.684C46.9894 237.684 44.7338 235.429 44.7338 232.646H54.8106Z" stroke="#222F3E" stroke-miterlimit="10"/>
<path d="M30.7827 200.454C30.7827 203.237 28.5271 205.492 25.7443 205.492C22.9615 205.492 20.7059 203.237 20.7059 200.454H30.7827Z" fill="#FFC312"/>
<path d="M214.096 295.017H130.176C128.024 273.056 125.872 251.094 123.721 229.132C155.758 229.132 187.796 229.132 219.834 229.132C217.921 251.094 216.009 273.056 214.096 295.017Z" fill="#EA5D01"/>
<path d="M130.176 295.405C128.024 273.443 125.873 251.482 123.721 229.521C155.758 229.521 187.796 229.521 219.834 229.521" stroke="#222F3E" stroke-miterlimit="10"/>
<path d="M171.634 273.691C177.09 273.691 181.514 269.161 181.514 263.573C181.514 257.985 177.09 253.455 171.634 253.455C166.177 253.455 161.753 257.985 161.753 263.573C161.753 269.161 166.177 273.691 171.634 273.691Z" fill="white"/>
<path d="M181.513 263.573C181.513 269.161 177.09 273.691 171.633 273.691C166.176 273.691 161.753 269.161 161.753 263.573C161.753 257.985 166.176 253.455 171.633 253.455" stroke="#222F3E" stroke-miterlimit="10"/>
<path d="M322.392 294.113H3.04865V302.639H322.392V294.113Z" fill="#131E21"/>
<path d="M133.273 55.6998H94.0487C88.8464 55.6998 84.629 51.4824 84.629 46.2801V20.8335C84.629 15.6312 88.8464 11.4146 94.0487 11.4146H133.273C138.475 11.4146 142.692 15.6319 142.692 20.8335V46.2801C142.693 51.4824 138.475 55.6998 133.273 55.6998Z" fill="#EA5D01"/>
<path d="M99.7348 63.5727L93.19 52.2368H106.28L99.7348 63.5727Z" fill="#EA5D01"/>
<path d="M103.213 32.6086C103.213 35.9324 100.519 38.6268 97.1949 38.6268C93.871 38.6268 91.1767 35.9324 91.1767 32.6086C91.1767 29.2847 93.871 26.5903 97.1949 26.5903" stroke="#222F3E" stroke-miterlimit="10"/>
<path d="M118.549 29.09C120.492 31.7866 119.881 35.5478 117.184 37.4908C114.487 39.4337 110.726 38.8231 108.783 36.1258C106.84 33.4293 107.451 29.6681 110.148 27.7251" stroke="#222F3E" stroke-miterlimit="10"/>
<path d="M126.688 27.6764C129.411 25.7712 133.164 26.4355 135.069 29.1589C136.973 31.883 136.31 35.6347 133.586 37.54C130.862 39.4453 127.11 38.7809 125.205 36.0576" stroke="#222F3E" stroke-miterlimit="10"/>
<path d="M154.846 81.2873L148.3 69.9507H161.391L154.846 81.2873Z" fill="#FFC312"/>
<path d="M162.797 72.43H123.573C118.37 72.43 114.153 68.2126 114.153 63.0103V37.5637C114.153 32.3614 118.37 28.144 123.573 28.144H162.797C167.999 28.144 172.217 32.3614 172.217 37.5637V63.0103C172.216 68.2126 167.999 72.43 162.797 72.43Z" fill="#FFC312"/>
<path d="M247.68 91.4411L241.134 80.1045H254.224L247.68 91.4411Z" fill="#FFC312"/>
<path d="M279.382 82.5838H216.406C211.204 82.5838 206.987 78.3664 206.987 73.1641V47.7176C206.987 42.5153 211.204 38.2979 216.406 38.2979H279.383C284.585 38.2979 288.803 42.5153 288.803 47.7176V73.1641C288.802 78.3664 284.584 82.5838 279.382 82.5838Z" fill="#FFC312"/>
<path d="M247.894 51.0941H217.001V46.3799H278.648" stroke="#222F3E" stroke-miterlimit="10"/>
<path d="M247.894 60.5218H217.001V55.8076H278.648" stroke="#222F3E" stroke-miterlimit="10"/>
<path d="M247.894 65.2363H217.001V69.9505H278.648" stroke="#222F3E" stroke-miterlimit="10"/>
<path d="M132.385 49.8068C132.385 53.1307 129.691 55.825 126.367 55.825C123.043 55.825 120.349 53.1307 120.349 49.8068C120.349 46.4829 123.043 43.7886 126.367 43.7886" stroke="#222F3E" stroke-miterlimit="10"/>
<path d="M147.72 46.2883C149.663 48.9848 149.053 52.746 146.355 54.689C143.659 56.632 139.898 56.0213 137.955 53.3241C136.012 50.6275 136.622 46.8663 139.32 44.9233" stroke="#222F3E" stroke-miterlimit="10"/>
<path d="M155.859 44.8747C158.583 42.9694 162.335 43.6338 164.24 46.3571C166.145 49.0805 165.481 52.833 162.758 54.7382C160.035 56.6435 156.282 55.9792 154.377 53.2558" stroke="#222F3E" stroke-miterlimit="10"/>
<g opacity="0.46">
<path d="M231.727 114.175C232.731 114.175 233.544 113.362 233.544 112.358C233.544 111.355 232.731 110.542 231.727 110.542C230.724 110.542 229.911 111.355 229.911 112.358C229.911 113.362 230.724 114.175 231.727 114.175Z" fill="#FFC312"/>
<path d="M239.357 112.358C239.357 113.361 238.544 114.175 237.54 114.175C236.537 114.175 235.724 113.362 235.724 112.358C235.724 111.355 236.537 110.542 237.54 110.542C238.544 110.542 239.357 111.355 239.357 112.358Z" fill="#FFC312"/>
<path d="M245.171 112.358C245.171 113.361 244.358 114.175 243.354 114.175C242.351 114.175 241.537 113.362 241.537 112.358C241.537 111.355 242.35 110.542 243.354 110.542C244.357 110.542 245.171 111.355 245.171 112.358Z" fill="#FFC312"/>
<path d="M249.167 114.175C250.17 114.175 250.984 113.362 250.984 112.358C250.984 111.355 250.17 110.542 249.167 110.542C248.164 110.542 247.35 111.355 247.35 112.358C247.35 113.362 248.164 114.175 249.167 114.175Z" fill="#FFC312"/>
<path d="M231.727 120.716C232.731 120.716 233.544 119.902 233.544 118.899C233.544 117.895 232.731 117.082 231.727 117.082C230.724 117.082 229.911 117.895 229.911 118.899C229.911 119.902 230.724 120.716 231.727 120.716Z" fill="#FFC312"/>
<path d="M239.357 118.899C239.357 119.902 238.544 120.716 237.54 120.716C236.537 120.716 235.724 119.903 235.724 118.899C235.724 117.896 236.537 117.082 237.54 117.082C238.544 117.082 239.357 117.895 239.357 118.899Z" fill="#FFC312"/>
<path d="M245.171 118.899C245.171 119.902 244.358 120.716 243.354 120.716C242.351 120.716 241.537 119.903 241.537 118.899C241.537 117.896 242.35 117.082 243.354 117.082C244.357 117.082 245.171 117.895 245.171 118.899Z" fill="#FFC312"/>
<path d="M249.167 120.716C250.17 120.716 250.984 119.902 250.984 118.899C250.984 117.895 250.17 117.082 249.167 117.082C248.164 117.082 247.35 117.895 247.35 118.899C247.35 119.902 248.164 120.716 249.167 120.716Z" fill="#FFC312"/>
<path d="M233.544 125.438C233.544 126.441 232.731 127.255 231.727 127.255C230.724 127.255 229.911 126.442 229.911 125.438C229.911 124.435 230.724 123.622 231.727 123.622C232.73 123.622 233.544 124.435 233.544 125.438Z" fill="#FFC312"/>
<path d="M239.357 125.438C239.357 126.441 238.544 127.255 237.54 127.255C236.537 127.255 235.724 126.442 235.724 125.438C235.724 124.435 236.537 123.622 237.54 123.622C238.544 123.622 239.357 124.435 239.357 125.438Z" fill="#FFC312"/>
<path d="M245.171 125.438C245.171 126.441 244.358 127.255 243.354 127.255C242.351 127.255 241.537 126.442 241.537 125.438C241.537 124.435 242.35 123.622 243.354 123.622C244.357 123.622 245.171 124.435 245.171 125.438Z" fill="#FFC312"/>
<path d="M250.984 125.438C250.984 126.441 250.171 127.255 249.167 127.255C248.163 127.255 247.35 126.442 247.35 125.438C247.35 124.435 248.163 123.622 249.167 123.622C250.171 123.622 250.984 124.435 250.984 125.438Z" fill="#FFC312"/>
<path d="M233.544 131.979C233.544 132.982 232.731 133.796 231.727 133.796C230.724 133.796 229.911 132.982 229.911 131.979C229.911 130.976 230.724 130.162 231.727 130.162C232.73 130.162 233.544 130.975 233.544 131.979Z" fill="#FFC312"/>
<path d="M239.357 131.979C239.357 132.982 238.544 133.796 237.54 133.796C236.537 133.796 235.724 132.982 235.724 131.979C235.724 130.976 236.537 130.162 237.54 130.162C238.544 130.162 239.357 130.975 239.357 131.979Z" fill="#FFC312"/>
<path d="M245.171 131.979C245.171 132.982 244.358 133.796 243.354 133.796C242.351 133.796 241.537 132.982 241.537 131.979C241.537 130.976 242.35 130.162 243.354 130.162C244.357 130.162 245.171 130.975 245.171 131.979Z" fill="#FFC312"/>
<path d="M250.984 131.979C250.984 132.982 250.171 133.796 249.167 133.796C248.163 133.796 247.35 132.982 247.35 131.979C247.35 130.976 248.163 130.162 249.167 130.162C250.171 130.162 250.984 130.975 250.984 131.979Z" fill="#FFC312"/>
</g>
<g opacity="0.46">
<path d="M209.516 91.4306C209.516 92.4336 208.703 93.2473 207.699 93.2473C206.696 93.2473 205.882 92.4336 205.882 91.4306C205.882 90.4275 206.695 89.6138 207.699 89.6138C208.703 89.6138 209.516 90.4275 209.516 91.4306Z" fill="#FFC312"/>
<path d="M215.329 91.4306C215.329 92.4336 214.515 93.2473 213.512 93.2473C212.509 93.2473 211.696 92.4336 211.696 91.4306C211.696 90.4275 212.509 89.6138 213.512 89.6138C214.515 89.6138 215.329 90.4275 215.329 91.4306Z" fill="#FFC312"/>
<path d="M221.142 91.4306C221.142 92.4336 220.329 93.2473 219.325 93.2473C218.322 93.2473 217.509 92.4336 217.509 91.4306C217.509 90.4275 218.322 89.6138 219.325 89.6138C220.329 89.6138 221.142 90.4275 221.142 91.4306Z" fill="#FFC312"/>
<path d="M226.955 91.4306C226.955 92.4336 226.142 93.2473 225.138 93.2473C224.135 93.2473 223.322 92.4336 223.322 91.4306C223.322 90.4275 224.135 89.6138 225.138 89.6138C226.142 89.6138 226.955 90.4275 226.955 91.4306Z" fill="#FFC312"/>
<path d="M207.699 99.7874C208.702 99.7874 209.516 98.974 209.516 97.9706C209.516 96.9672 208.702 96.1538 207.699 96.1538C206.695 96.1538 205.882 96.9672 205.882 97.9706C205.882 98.974 206.695 99.7874 207.699 99.7874Z" fill="#FFC312"/>
<path d="M215.329 97.9706C215.329 98.9736 214.515 99.7874 213.512 99.7874C212.509 99.7874 211.696 98.9744 211.696 97.9706C211.696 96.9676 212.509 96.1538 213.512 96.1538C214.515 96.1538 215.329 96.9676 215.329 97.9706Z" fill="#FFC312"/>
<path d="M219.325 99.7874C220.329 99.7874 221.142 98.974 221.142 97.9706C221.142 96.9672 220.329 96.1538 219.325 96.1538C218.322 96.1538 217.509 96.9672 217.509 97.9706C217.509 98.974 218.322 99.7874 219.325 99.7874Z" fill="#FFC312"/>
<path d="M225.139 99.7874C226.143 99.7874 226.956 98.974 226.956 97.9706C226.956 96.9672 226.143 96.1538 225.139 96.1538C224.136 96.1538 223.322 96.9672 223.322 97.9706C223.322 98.974 224.136 99.7874 225.139 99.7874Z" fill="#FFC312"/>
<path d="M207.699 106.328C208.702 106.328 209.516 105.514 209.516 104.511C209.516 103.508 208.702 102.694 207.699 102.694C206.695 102.694 205.882 103.508 205.882 104.511C205.882 105.514 206.695 106.328 207.699 106.328Z" fill="#FFC312"/>
<path d="M215.329 104.511C215.329 105.514 214.515 106.328 213.512 106.328C212.509 106.328 211.696 105.515 211.696 104.511C211.696 103.508 212.509 102.694 213.512 102.694C214.515 102.694 215.329 103.507 215.329 104.511Z" fill="#FFC312"/>
<path d="M219.325 106.328C220.329 106.328 221.142 105.514 221.142 104.511C221.142 103.508 220.329 102.694 219.325 102.694C218.322 102.694 217.509 103.508 217.509 104.511C217.509 105.514 218.322 106.328 219.325 106.328Z" fill="#FFC312"/>
<path d="M225.139 106.328C226.143 106.328 226.956 105.514 226.956 104.511C226.956 103.508 226.143 102.694 225.139 102.694C224.136 102.694 223.322 103.508 223.322 104.511C223.322 105.514 224.136 106.328 225.139 106.328Z" fill="#FFC312"/>
<path d="M209.516 111.051C209.516 112.054 208.703 112.867 207.699 112.867C206.696 112.867 205.882 112.054 205.882 111.051C205.882 110.048 206.695 109.234 207.699 109.234C208.703 109.234 209.516 110.048 209.516 111.051Z" fill="#FFC312"/>
<path d="M215.329 111.051C215.329 112.054 214.515 112.867 213.512 112.867C212.509 112.867 211.696 112.054 211.696 111.051C211.696 110.048 212.509 109.234 213.512 109.234C214.515 109.234 215.329 110.048 215.329 111.051Z" fill="#FFC312"/>
<path d="M221.142 111.051C221.142 112.054 220.329 112.867 219.325 112.867C218.322 112.867 217.509 112.054 217.509 111.051C217.509 110.048 218.322 109.234 219.325 109.234C220.329 109.234 221.142 110.048 221.142 111.051Z" fill="#FFC312"/>
<path d="M226.955 111.051C226.955 112.054 226.142 112.867 225.138 112.867C224.135 112.867 223.322 112.054 223.322 111.051C223.322 110.048 224.135 109.234 225.138 109.234C226.142 109.234 226.955 110.048 226.955 111.051Z" fill="#FFC312"/>
</g>
<g opacity="0.46">
<path d="M109.26 150.605C110.264 150.605 111.077 149.791 111.077 148.788C111.077 147.785 110.264 146.971 109.26 146.971C108.257 146.971 107.444 147.785 107.444 148.788C107.444 149.791 108.257 150.605 109.26 150.605Z" fill="#FFC312"/>
<path d="M116.891 148.788C116.891 149.791 116.077 150.605 115.074 150.605C114.071 150.605 113.257 149.792 113.257 148.788C113.257 147.785 114.071 146.971 115.074 146.971C116.077 146.972 116.891 147.785 116.891 148.788Z" fill="#FFC312"/>
<path d="M120.887 150.605C121.89 150.605 122.704 149.791 122.704 148.788C122.704 147.785 121.89 146.971 120.887 146.971C119.884 146.971 119.07 147.785 119.07 148.788C119.07 149.791 119.884 150.605 120.887 150.605Z" fill="#FFC312"/>
<path d="M126.701 150.605C127.704 150.605 128.518 149.791 128.518 148.788C128.518 147.785 127.704 146.971 126.701 146.971C125.697 146.971 124.884 147.785 124.884 148.788C124.884 149.791 125.697 150.605 126.701 150.605Z" fill="#FFC312"/>
<path d="M109.26 157.146C110.264 157.146 111.077 156.332 111.077 155.329C111.077 154.326 110.264 153.512 109.26 153.512C108.257 153.512 107.444 154.326 107.444 155.329C107.444 156.332 108.257 157.146 109.26 157.146Z" fill="#FFC312"/>
<path d="M116.891 155.329C116.891 156.332 116.077 157.146 115.074 157.146C114.071 157.146 113.257 156.333 113.257 155.329C113.257 154.326 114.071 153.512 115.074 153.512C116.077 153.512 116.891 154.326 116.891 155.329Z" fill="#FFC312"/>
<path d="M120.887 157.146C121.89 157.146 122.704 156.332 122.704 155.329C122.704 154.326 121.89 153.512 120.887 153.512C119.884 153.512 119.07 154.326 119.07 155.329C119.07 156.332 119.884 157.146 120.887 157.146Z" fill="#FFC312"/>
<path d="M126.701 157.146C127.704 157.146 128.518 156.332 128.518 155.329C128.518 154.326 127.704 153.512 126.701 153.512C125.697 153.512 124.884 154.326 124.884 155.329C124.884 156.332 125.697 157.146 126.701 157.146Z" fill="#FFC312"/>
<path d="M111.077 161.869C111.077 162.872 110.264 163.685 109.26 163.685C108.257 163.685 107.444 162.872 107.444 161.869C107.444 160.866 108.257 160.052 109.26 160.052C110.264 160.052 111.077 160.866 111.077 161.869Z" fill="#FFC312"/>
<path d="M116.891 161.869C116.891 162.872 116.077 163.685 115.074 163.685C114.071 163.685 113.257 162.872 113.257 161.869C113.257 160.866 114.071 160.052 115.074 160.052C116.077 160.052 116.891 160.866 116.891 161.869Z" fill="#FFC312"/>
<path d="M122.704 161.869C122.704 162.872 121.891 163.685 120.887 163.685C119.884 163.685 119.07 162.872 119.07 161.869C119.07 160.866 119.883 160.052 120.887 160.052C121.891 160.052 122.704 160.866 122.704 161.869Z" fill="#FFC312"/>
<path d="M128.517 161.869C128.517 162.872 127.704 163.685 126.7 163.685C125.696 163.685 124.883 162.872 124.883 161.869C124.883 160.866 125.696 160.052 126.7 160.052C127.704 160.052 128.517 160.866 128.517 161.869Z" fill="#FFC312"/>
<path d="M109.26 170.226C110.264 170.226 111.077 169.412 111.077 168.409C111.077 167.406 110.264 166.592 109.26 166.592C108.257 166.592 107.444 167.406 107.444 168.409C107.444 169.412 108.257 170.226 109.26 170.226Z" fill="#FFC312"/>
<path d="M116.891 168.409C116.891 169.412 116.077 170.226 115.074 170.226C114.071 170.226 113.257 169.413 113.257 168.409C113.257 167.406 114.071 166.592 115.074 166.592C116.077 166.592 116.891 167.405 116.891 168.409Z" fill="#FFC312"/>
<path d="M120.887 170.226C121.89 170.226 122.704 169.412 122.704 168.409C122.704 167.406 121.89 166.592 120.887 166.592C119.884 166.592 119.07 167.406 119.07 168.409C119.07 169.412 119.884 170.226 120.887 170.226Z" fill="#FFC312"/>
<path d="M126.701 170.226C127.704 170.226 128.518 169.412 128.518 168.409C128.518 167.406 127.704 166.592 126.701 166.592C125.697 166.592 124.884 167.406 124.884 168.409C124.884 169.412 125.697 170.226 126.701 170.226Z" fill="#FFC312"/>
</g>
<g opacity="0.46">
<path d="M87.0492 127.861C87.0492 128.864 86.2362 129.678 85.2324 129.678C84.2294 129.678 83.4156 128.864 83.4156 127.861C83.4156 126.858 84.2287 126.044 85.2324 126.044C86.2355 126.044 87.0492 126.858 87.0492 127.861Z" fill="#FFC312"/>
<path d="M92.8622 127.861C92.8622 128.864 92.0492 129.678 91.0454 129.678C90.0424 129.678 89.2286 128.864 89.2286 127.861C89.2286 126.858 90.0416 126.044 91.0454 126.044C92.0492 126.044 92.8622 126.858 92.8622 127.861Z" fill="#FFC312"/>
<path d="M98.6759 127.861C98.6759 128.864 97.8629 129.678 96.8591 129.678C95.8561 129.678 95.0423 128.864 95.0423 127.861C95.0423 126.858 95.8553 126.044 96.8591 126.044C97.8621 126.044 98.6759 126.858 98.6759 127.861Z" fill="#FFC312"/>
<path d="M104.489 127.861C104.489 128.864 103.675 129.678 102.672 129.678C101.669 129.678 100.855 128.864 100.855 127.861C100.855 126.858 101.668 126.044 102.672 126.044C103.675 126.044 104.489 126.858 104.489 127.861Z" fill="#FFC312"/>
<path d="M85.2324 136.217C86.2358 136.217 87.0492 135.404 87.0492 134.4C87.0492 133.397 86.2358 132.583 85.2324 132.583C84.229 132.583 83.4156 133.397 83.4156 134.4C83.4156 135.404 84.229 136.217 85.2324 136.217Z" fill="#FFC312"/>
<path d="M92.8622 134.4C92.8622 135.403 92.0492 136.217 91.0454 136.217C90.0424 136.217 89.2286 135.404 89.2286 134.4C89.2286 133.397 90.0416 132.583 91.0454 132.583C92.0492 132.583 92.8622 133.397 92.8622 134.4Z" fill="#FFC312"/>
<path d="M96.8591 136.217C97.8625 136.217 98.6759 135.404 98.6759 134.4C98.6759 133.397 97.8625 132.583 96.8591 132.583C95.8557 132.583 95.0423 133.397 95.0423 134.4C95.0423 135.404 95.8557 136.217 96.8591 136.217Z" fill="#FFC312"/>
<path d="M104.489 134.4C104.489 135.403 103.675 136.217 102.672 136.217C101.669 136.217 100.855 135.404 100.855 134.4C100.855 133.397 101.668 132.583 102.672 132.583C103.675 132.583 104.489 133.397 104.489 134.4Z" fill="#FFC312"/>
<path d="M87.0492 140.941C87.0492 141.944 86.2362 142.758 85.2324 142.758C84.2294 142.758 83.4156 141.944 83.4156 140.941C83.4156 139.938 84.2287 139.125 85.2324 139.125C86.2355 139.125 87.0492 139.938 87.0492 140.941Z" fill="#FFC312"/>
<path d="M92.8622 140.941C92.8622 141.944 92.0492 142.758 91.0454 142.758C90.0424 142.758 89.2286 141.944 89.2286 140.941C89.2286 139.938 90.0416 139.125 91.0454 139.125C92.0492 139.125 92.8622 139.938 92.8622 140.941Z" fill="#FFC312"/>
<path d="M98.6759 140.941C98.6759 141.944 97.8629 142.758 96.8591 142.758C95.8561 142.758 95.0423 141.944 95.0423 140.941C95.0423 139.938 95.8553 139.125 96.8591 139.125C97.8621 139.125 98.6759 139.938 98.6759 140.941Z" fill="#FFC312"/>
<path d="M104.489 140.941C104.489 141.944 103.675 142.758 102.672 142.758C101.669 142.758 100.855 141.944 100.855 140.941C100.855 139.938 101.668 139.125 102.672 139.125C103.675 139.125 104.489 139.938 104.489 140.941Z" fill="#FFC312"/>
<path d="M87.0492 147.481C87.0492 148.484 86.2362 149.298 85.2324 149.298C84.2294 149.298 83.4156 148.484 83.4156 147.481C83.4156 146.478 84.2287 145.664 85.2324 145.664C86.2355 145.664 87.0492 146.478 87.0492 147.481Z" fill="#FFC312"/>
<path d="M92.8622 147.481C92.8622 148.484 92.0492 149.298 91.0454 149.298C90.0424 149.298 89.2286 148.484 89.2286 147.481C89.2286 146.478 90.0416 145.664 91.0454 145.664C92.0492 145.664 92.8622 146.478 92.8622 147.481Z" fill="#FFC312"/>
<path d="M98.6759 147.481C98.6759 148.484 97.8629 149.298 96.8591 149.298C95.8561 149.298 95.0423 148.484 95.0423 147.481C95.0423 146.478 95.8553 145.664 96.8591 145.664C97.8621 145.664 98.6759 146.478 98.6759 147.481Z" fill="#FFC312"/>
<path d="M104.489 147.481C104.489 148.484 103.675 149.298 102.672 149.298C101.669 149.298 100.855 148.484 100.855 147.481C100.855 146.478 101.668 145.664 102.672 145.664C103.675 145.664 104.489 146.478 104.489 147.481Z" fill="#FFC312"/>
</g>
<path d="M125.236 103.322C125.236 101.389 123.841 100.637 122.23 100.637C120.405 100.637 119.224 101.603 117.828 102.892L112.782 98.2751C115.412 95.2689 119.116 93.2295 123.411 93.2295C129.316 93.2295 134.04 95.9137 134.04 102.677C134.04 109.119 126.202 110.837 126.739 116.742H118.687C117.613 109.764 125.236 106.758 125.236 103.322ZM117.292 124.902C117.292 121.789 119.547 119.319 122.66 119.319C125.774 119.319 128.029 121.788 128.029 124.902C128.029 128.016 125.774 130.485 122.66 130.485C119.546 130.485 117.292 128.016 117.292 124.902Z" fill="#FFC312"/>
<path d="M122.604 119.205C125.748 119.205 128.297 121.754 128.297 124.898C128.297 128.042 125.748 130.592 122.604 130.592C119.46 130.592 116.91 128.042 116.91 124.898" stroke="#222F3E" stroke-miterlimit="10"/>
<path d="M233.493 156.488C233.493 154.957 232.387 154.361 231.11 154.361C229.663 154.361 228.728 155.127 227.622 156.148L223.623 152.489C225.708 150.107 228.643 148.49 232.047 148.49C236.727 148.49 240.47 150.617 240.47 155.979C240.47 161.084 234.259 162.446 234.684 167.126H228.303C227.451 161.594 233.493 159.211 233.493 156.488ZM227.196 173.592C227.196 171.124 228.983 169.167 231.45 169.167C233.918 169.167 235.705 171.123 235.705 173.592C235.705 176.06 233.918 178.016 231.45 178.016C228.983 178.016 227.196 176.06 227.196 173.592Z" fill="#EA5D01"/>
<path d="M231.407 169.076C233.899 169.076 235.919 171.096 235.919 173.588C235.919 176.08 233.898 178.099 231.407 178.099C228.915 178.099 226.895 176.08 226.895 173.588" stroke="#222F3E" stroke-miterlimit="10"/>
<path d="M60.253 134.474C74.7573 134.474 86.5154 122.716 86.5154 108.211C86.5154 93.7068 74.7573 81.9487 60.253 81.9487C45.7486 81.9487 33.9905 93.7068 33.9905 108.211C33.9905 122.716 45.7486 134.474 60.253 134.474Z" fill="#FFC312"/>
<path d="M60.0716 82.0444C74.5762 82.0444 86.3341 93.8024 86.3341 108.307C86.3341 122.811 74.5762 134.569 60.0716 134.569C45.5671 134.569 33.8092 122.811 33.8092 108.307" stroke="#222F3E" stroke-miterlimit="10"/>
<path d="M60.253 87.3574V108.211L73.2402 117.158" stroke="#222F3E" stroke-miterlimit="10"/>
<path d="M310.067 104.763H252.134V145.579H310.067V104.763Z" fill="#FFC312"/>
<path d="M281.33 125.171L253.252 104.763H309.408L281.33 125.171Z" fill="#FF9F43"/>
<path d="M274.974 129.791L256.333 143.34" stroke="#222F3E" stroke-miterlimit="10"/>
<path d="M307.676 144.319L287.686 129.791" stroke="#222F3E" stroke-miterlimit="10"/>
<path d="M231.859 127.105C232.044 125.858 232.023 124.61 231.811 123.405L234.432 122.229L232.308 117.497L229.8 118.623C229.016 117.532 228.04 116.568 226.894 115.793L227.928 113.077L223.082 111.233L222.064 113.908C220.674 113.701 219.285 113.753 217.953 114.037L216.759 111.377L212.029 113.501L213.248 116.216C212.293 116.954 211.448 117.844 210.753 118.871L208.036 117.837L206.193 122.685L208.868 123.702C208.697 124.854 208.703 126.006 208.871 127.124L205.936 128.443L208.06 133.174L210.77 131.957C211.577 133.142 212.608 134.187 213.832 135.015L212.798 137.732L217.646 139.575L218.664 136.9C220.148 137.12 221.633 137.046 223.045 136.71L224.216 139.318L228.947 137.194L227.701 134.417C228.565 133.715 229.334 132.883 229.976 131.936L232.693 132.969L234.536 128.123L231.859 127.105ZM225.888 127.538C224.72 130.611 221.281 132.155 218.207 130.986C215.134 129.818 213.59 126.379 214.758 123.306C215.927 120.233 219.367 118.689 222.44 119.858C225.513 121.025 227.057 124.465 225.888 127.538Z" fill="#FFC312"/>
<path d="M226.135 125.486C226.135 128.701 223.528 131.306 220.314 131.306C217.099 131.306 214.493 128.7 214.493 125.486C214.493 122.27 217.1 119.665 220.314 119.665" stroke="#222F3E" stroke-miterlimit="10"/>
<path d="M99.1509 189.478C99.4461 187.486 99.4113 185.491 99.0733 183.566L103.262 181.687L99.8682 174.127L95.8597 175.926C94.6086 174.184 93.0486 172.642 91.218 171.404L92.8694 167.063L85.1265 164.118L83.4998 168.392C81.2797 168.062 79.059 168.145 76.9303 168.598L75.0244 164.348L67.4664 167.742L69.413 172.08C67.8878 173.259 66.5373 174.682 65.4262 176.322L61.0848 174.671L58.1395 182.417L62.4135 184.041C62.1393 185.883 62.1502 187.725 62.4186 189.51L57.7283 191.617L61.1218 199.175L65.4523 197.232C66.7411 199.125 68.3897 200.794 70.3442 202.118L68.6928 206.459L76.4386 209.404L78.0654 205.131C80.4363 205.482 82.8093 205.364 85.0649 204.827L86.9361 208.994L94.4962 205.6L92.5039 201.163C93.8841 200.041 95.1134 198.711 96.1389 197.198L100.48 198.849L103.426 191.106L99.1509 189.478ZM89.6094 190.171C87.7433 195.081 82.248 197.548 77.3372 195.68C72.4272 193.814 69.9599 188.318 71.8252 183.407C73.6935 178.497 79.1895 176.03 84.0996 177.898C89.0103 179.764 91.4776 185.26 89.6094 190.171Z" fill="#FFC312"/>
<path d="M90.0039 186.889C90.0039 192.026 85.8395 196.191 80.7024 196.191C75.5654 196.191 71.401 192.026 71.401 186.889C71.401 181.752 75.5654 177.588 80.7024 177.588" stroke="#222F3E" stroke-miterlimit="10"/>
</svg>
