<svg width="436" height="277" viewBox="0 0 436 277" fill="none" xmlns="http://www.w3.org/2000/svg">
<path d="M219.917 276.479H226.265V222.06H219.917V276.479Z" fill="#2A2C39"/>
<path d="M219.397 276.48V222.06C219.397 221.773 219.63 221.541 219.917 221.541H226.265C226.551 221.541 226.784 221.773 226.784 222.06V276.48C226.784 276.767 226.551 277 226.265 277H219.917C219.63 277 219.397 276.767 219.397 276.48ZM225.745 222.58H220.436V275.96H225.745V222.58Z" fill="#2A2C39"/>
<path d="M129.693 276.479H136.041V222.06H129.693V276.479Z" fill="#2A2C39"/>
<path d="M129.173 276.48V222.06C129.173 221.773 129.407 221.541 129.693 221.541H136.041C136.328 221.541 136.561 221.773 136.561 222.06V276.48C136.561 276.767 136.328 277 136.041 277H129.693C129.407 277 129.173 276.767 129.173 276.48ZM135.522 222.58H130.213V275.96H135.522V222.58Z" fill="#2A2C39"/>
<path d="M242.909 276.479H249.257V222.06H242.909V276.479Z" fill="#2A2C39"/>
<path d="M242.389 276.48V222.06C242.389 221.773 242.623 221.541 242.909 221.541H249.257C249.543 221.541 249.777 221.773 249.777 222.06V276.48C249.777 276.767 249.543 277 249.257 277H242.909C242.623 277 242.389 276.767 242.389 276.48ZM248.737 222.58H243.429V275.96H248.737V222.58Z" fill="#2A2C39"/>
<path d="M152.686 276.479H159.033V222.06H152.686V276.479Z" fill="#2A2C39"/>
<path d="M152.166 276.48V222.06C152.166 221.773 152.399 221.541 152.686 221.541H159.034C159.32 221.541 159.554 221.773 159.554 222.06V276.48C159.554 276.767 159.32 277 159.034 277H152.686C152.399 277 152.166 276.767 152.166 276.48ZM158.514 222.58H153.205V275.96H158.514V222.58Z" fill="#2A2C39"/>
<path d="M131.508 225.954H253.414C256.89 225.954 259.58 222.909 259.153 219.461L238.594 53.3004C238.235 50.4033 235.774 48.2275 232.854 48.2275H110.949C107.473 48.2275 104.783 51.2713 105.209 54.7205L125.769 220.881C126.127 223.778 128.589 225.954 131.508 225.954Z" fill="#2A2C39"/>
<path d="M125.254 220.945L104.694 54.7846C104.471 52.9935 105.03 51.1912 106.224 49.8388C107.42 48.4852 109.142 47.7085 110.949 47.7085H232.855C236.031 47.7085 238.722 50.0852 239.109 53.2371L259.669 219.397C259.89 221.189 259.332 222.993 258.136 224.346C256.94 225.699 255.22 226.474 253.414 226.474H131.509C128.333 226.474 125.642 224.097 125.254 220.945ZM110.949 48.748C109.44 48.748 108.002 49.3959 107.003 50.5269C106.006 51.6561 105.541 53.1608 105.726 54.6565L126.285 220.818C126.61 223.449 128.856 225.434 131.509 225.434H253.414C254.921 225.434 256.359 224.786 257.356 223.657C258.355 222.527 258.822 221.021 258.637 219.525L238.078 53.365C237.753 50.7329 235.507 48.7478 232.854 48.7478H110.949V48.748Z" fill="#2A2C39"/>
<path d="M137.18 225.954H259.086C262.562 225.954 265.252 222.909 264.825 219.461L244.266 53.3004C243.907 50.4033 241.446 48.2275 238.527 48.2275H116.621C113.145 48.2275 110.455 51.2713 110.882 54.7205L131.441 220.881C131.799 223.778 134.261 225.954 137.18 225.954Z" fill="white"/>
<path d="M130.926 220.945L110.366 54.7846C110.143 52.9935 110.702 51.1912 111.896 49.8388C113.092 48.4852 114.814 47.7085 116.621 47.7085H238.526C241.703 47.7085 244.393 50.0852 244.781 53.2371L265.341 219.397C265.562 221.189 265.004 222.993 263.808 224.346C262.612 225.699 260.891 226.474 259.086 226.474H137.181C134.005 226.474 131.314 224.097 130.926 220.945ZM116.621 48.748C115.112 48.748 113.675 49.3959 112.675 50.5269C111.678 51.6561 111.213 53.1608 111.398 54.6565L131.958 220.818C132.282 223.449 134.528 225.434 137.181 225.434H259.086C260.593 225.434 262.03 224.786 263.028 223.657C264.027 222.527 264.493 221.021 264.309 219.525L243.75 53.3651C243.425 50.7331 241.179 48.748 238.527 48.748H116.621Z" fill="#2A2C39"/>
<path d="M146.763 210.836L147.467 216.465H246.732L246.028 210.836H146.763Z" fill="#D46D51"/>
<path d="M145.113 197.421L145.817 203.073H245.061L244.357 197.421H145.113Z" fill="#EA5D01"/>
<path d="M139.748 153.924L143.728 186.14H190.655L186.61 153.924H139.748Z" fill="#EA5D01"/>
<path d="M193.779 163.028L194.351 165.205H240.377L240.113 163.028H193.779Z" fill="#2A2C39"/>
<path d="M195.978 171.098L196.55 173.275H241.366L241.103 171.098H195.978Z" fill="#2A2C39"/>
<path d="M138.999 137.355L153.578 116.377C153.671 116.241 153.826 116.159 153.99 116.153C154.144 116.136 154.311 116.224 154.414 116.353L168.88 134.921L187.059 100.526C187.14 100.372 187.291 100.27 187.463 100.251C187.64 100.227 187.806 100.302 187.918 100.435L210.108 127.064L234.315 73.5172L229.169 74.8353C228.879 74.9054 228.608 74.7378 228.535 74.4607C228.465 74.1823 228.633 73.8992 228.909 73.8279L235.091 72.2446C235.093 72.2441 235.094 72.2439 235.096 72.2434L235.105 72.241C235.133 72.2338 235.161 72.2294 235.189 72.2269C235.194 72.2265 235.198 72.2265 235.203 72.2263C235.233 72.2241 235.263 72.225 235.293 72.228C235.293 72.228 235.294 72.2282 235.294 72.2282C235.392 72.2388 235.484 72.2775 235.56 72.3401C235.563 72.3427 235.567 72.345 235.57 72.3478C235.592 72.367 235.613 72.3875 235.633 72.4109C235.634 72.4122 235.635 72.4138 235.636 72.4153C235.639 72.4185 235.641 72.4223 235.643 72.4257C235.661 72.4487 235.677 72.4731 235.691 72.4984C235.692 72.5013 235.694 72.5035 235.696 72.5064L238.216 77.3761C238.348 77.6311 238.248 77.9449 237.994 78.0769C237.917 78.1163 237.836 78.1345 237.755 78.1345C237.568 78.1345 237.385 78.0322 237.294 77.8533L235.266 73.9354L210.713 128.249C210.64 128.412 210.488 128.526 210.309 128.55C210.134 128.573 209.953 128.504 209.84 128.368L187.615 101.698L169.422 136.117C169.34 136.274 169.184 136.377 169.007 136.392C168.825 136.4 168.66 136.332 168.552 136.194L154.028 117.55L139.851 137.948C139.75 138.093 139.589 138.171 139.425 138.171C139.322 138.171 139.218 138.141 139.128 138.078C138.893 137.914 138.834 137.59 138.999 137.355Z" fill="#2A2C39"/>
<path d="M83.2355 70.5076C83.3694 70.5076 83.5036 70.4559 83.6071 70.3524C83.7226 70.2327 95.2553 58.3261 87.7336 50.4377C80.7964 43.1563 73.5039 48.6879 73.4327 48.7459C73.2052 48.9224 73.1646 49.2485 73.3415 49.475C73.518 49.7023 73.8449 49.7431 74.0704 49.5662C74.3405 49.3604 80.6969 44.5677 86.982 51.1545C93.8116 58.3169 82.9754 69.5116 82.8639 69.6233C82.6626 69.8287 82.6665 70.1577 82.8719 70.3584C82.9713 70.458 83.1033 70.5076 83.2355 70.5076Z" fill="#2A2C39"/>
<path d="M95.3426 121.026C95.5519 121.026 95.7487 120.9 95.8282 120.693C95.9175 120.463 104.544 97.5202 87.5789 89.4966C87.3233 89.3786 87.0085 89.4854 86.8886 89.7441C86.7647 90.0042 86.8763 90.3139 87.1364 90.4366C93.8623 93.619 97.2171 99.5842 97.1013 108.168C97.016 114.65 94.8798 120.264 94.8573 120.319C94.7537 120.586 94.8878 120.888 95.1559 120.992C95.2169 121.015 95.2799 121.026 95.3426 121.026Z" fill="#2A2C39"/>
<path d="M331.456 43.2124H306.659V91.1041H331.456V43.2124Z" fill="#DE7856"/>
<path d="M125.961 240.966C125.961 240.966 108.771 256.33 99.5127 257.692C90.2547 259.053 97.3345 230.734 97.3345 230.734L125.961 240.966Z" fill="#2A2C39"/>
<path d="M116.667 229.645L117.756 276.48H18.3689L23.5425 237.814L116.667 229.645Z" fill="white"/>
<path d="M17.9763 276.822C17.8791 276.71 17.8322 276.559 17.8527 276.411L23.0268 237.745C23.0596 237.505 23.2545 237.318 23.498 237.297L116.623 229.128C116.759 229.12 116.91 229.163 117.015 229.258C117.121 229.354 117.184 229.49 117.188 229.633L118.276 276.468C118.28 276.608 118.225 276.743 118.128 276.844C118.031 276.943 117.896 277 117.756 277H18.3682C18.2178 277 18.0759 276.935 17.9763 276.822ZM116.16 230.212L24.0037 238.296L18.9631 275.96H117.224L116.16 230.212Z" fill="#2A2C39"/>
<path d="M353.811 224.537L358.11 276.48H253.36L259.937 224.537C259.937 224.537 345.603 212.811 353.811 224.537Z" fill="#2A2C39"/>
<path d="M197.21 50.6838L200.721 34.2163C200.721 34.2163 184.085 37.5528 177.979 50.1457L197.21 50.6838Z" fill="#2A2C39"/>
<path d="M197.196 51.2031L177.965 50.6661C177.788 50.6611 177.626 50.5668 177.534 50.4164C177.443 50.2648 177.435 50.0782 177.512 49.9196C183.659 37.2406 200.449 33.7405 200.62 33.7069C200.782 33.6725 200.969 33.7272 201.091 33.8514C201.215 33.976 201.266 34.1539 201.229 34.3255L197.718 50.7921C197.667 51.0327 197.456 51.2031 197.21 51.2031C197.206 51.2031 197.2 51.2031 197.196 51.2031ZM178.816 49.6496L196.792 50.1514L200.041 34.9113C196.782 35.742 184.214 39.5283 178.816 49.6496Z" fill="#2A2C39"/>
<path d="M191.822 75.7522C191.822 75.7522 154.798 22.0075 163.895 16.0067C163.895 16.0067 163.445 10.2525 167.261 11.3261C167.261 11.3261 168.301 -1.16733 180.368 22.7917C180.368 22.7917 170.1 6.99495 173.927 6.00682C177.754 5.01885 186.654 22.431 186.654 22.431C186.654 22.431 185.559 8.8689 188.704 8.77339C191.849 8.67806 193.325 23.497 194.036 26.3688C194.748 29.2408 207.269 50.6613 207.269 50.6613L191.822 75.7522Z" fill="#DE7856"/>
<path d="M306.352 81.5319C306.352 81.5319 249.567 107.224 200.722 34.2163C200.722 34.2163 193.359 54.4228 175.152 52.9628C175.152 52.9628 198.77 104.851 267.62 126.153L256.75 233.935C256.75 233.935 280.996 243.506 292.555 241.064L297.48 227.691L298.607 241.705C298.607 241.705 314.145 249.127 357.45 233.172L353.43 144.219C353.43 144.219 401.439 186.542 427.548 169.065C453.658 151.589 409.019 72.8381 409.019 72.8381L389.437 79.1549L400.386 133.27C400.386 133.27 342.078 83.9978 336.279 83.5768C330.479 83.1557 312.216 83.4037 312.216 83.4037L306.352 81.5319Z" fill="#D46D51"/>
<path d="M157.855 87.7784L183.937 77.8464C183.937 77.8464 173.888 63.2535 151.283 61.9565L157.855 87.7784Z" fill="#2A2C39"/>
<path d="M177.77 53.6562C193.638 53.6562 201.13 34.6058 201.207 34.4025C201.31 34.1344 201.177 33.8341 200.909 33.7314C200.649 33.6279 200.34 33.7607 200.236 34.0309C200.157 34.2381 192.099 54.6798 175.219 52.447C174.941 52.4103 174.675 52.6104 174.636 52.8947C174.6 53.18 174.801 53.4409 175.085 53.4786C176.005 53.5984 176.901 53.6562 177.77 53.6562Z" fill="#2A2C39"/>
<path d="M178.382 83.6016C178.382 83.6016 198.229 21.4296 187.783 18.3249C187.783 18.3249 186.545 12.687 183.204 14.8214C183.204 14.8214 178.586 3.16616 173.985 29.5953C173.985 29.5953 176.977 10.7174 173.028 10.8814C169.08 11.0455 167.865 31.0726 167.865 31.0726C167.865 31.0726 164.979 17.7761 161.942 18.5967C158.904 19.4175 161.79 34.0276 161.942 36.9823C162.094 39.9372 154.07 73.5094 154.07 73.5094L178.382 83.6016Z" fill="#F3A195"/>
<path d="M183.937 64.417C183.937 64.417 170.021 61.426 158.892 52.9629L157.388 59.5406C157.388 59.5406 166.383 68.5638 182.144 70.9506L183.937 64.417Z" fill="#2A2C39"/>
<path d="M164.847 61.9566C164.224 64.9918 165.694 67.8569 168.129 68.357C170.564 68.8568 173.043 66.8018 173.667 63.7668C174.289 60.7319 172.82 57.8664 170.385 57.3664C167.949 56.8665 165.47 58.9218 164.847 61.9566Z" fill="white"/>
<path d="M180.016 31.3309C180.225 31.3309 180.422 31.2036 180.501 30.9966C182.965 24.5693 183.694 15.2531 183.722 14.8602C183.744 14.5738 183.529 14.3238 183.243 14.3016C182.97 14.2711 182.708 14.4947 182.686 14.7809C182.678 14.8762 181.937 24.3406 179.53 30.6248C179.427 30.8929 179.561 31.1932 179.829 31.2961C179.892 31.3196 179.955 31.3309 180.016 31.3309Z" fill="#2A2C39"/>
<path d="M185.481 32.9381C185.686 32.9381 185.881 32.816 185.962 32.6141C188.978 25.1836 188.33 18.5491 188.301 18.2708C188.271 17.9854 188.017 17.7714 187.731 17.8077C187.444 17.8372 187.237 18.0931 187.266 18.3784C187.274 18.4445 187.914 25.0445 184.999 32.2224C184.892 32.4884 185.02 32.7921 185.286 32.8998C185.349 32.926 185.416 32.9381 185.481 32.9381Z" fill="#2A2C39"/>
<path d="M299.521 29.4028C299.584 29.4028 299.647 29.3915 299.708 29.3683C299.976 29.2648 300.11 28.9643 300.006 28.6962C299.982 28.6341 297.665 22.4636 300.26 16.7887C301.86 13.2864 304.988 10.6759 309.553 9.02913C309.823 8.93175 309.963 8.63312 309.866 8.36298C309.766 8.09386 309.472 7.95572 309.2 8.0502C304.358 9.79778 301.03 12.5961 299.31 16.3663C296.536 22.4456 298.932 28.8028 299.036 29.07C299.115 29.2769 299.312 29.4028 299.521 29.4028Z" fill="#2A2C39"/>
<path d="M86.4683 85.0845C86.4683 85.0845 102.088 105.277 91.8844 122.708C81.6809 140.138 72.8545 116.501 72.8545 116.501C72.8545 116.501 76.5948 90.7694 86.4683 85.0845Z" fill="#2A2C39"/>
<path d="M83.6026 129.617C77.0595 129.053 72.5552 117.187 72.3666 116.682C72.3363 116.6 72.326 116.513 72.3402 116.426C72.4945 115.365 76.2312 90.3789 86.2084 84.6337C86.4296 84.507 86.7181 84.5595 86.8785 84.7669C86.9192 84.8176 90.865 89.9626 93.4908 97.1821C96.9875 106.789 96.5855 115.706 92.3333 122.971C89.7421 127.398 86.9699 129.639 84.0861 129.639C83.9256 129.639 83.7633 129.632 83.6026 129.617ZM73.388 116.442C73.8835 117.701 78.13 128.102 83.6922 128.582C86.3181 128.809 88.9195 126.744 91.4356 122.445C100.592 106.804 88.3571 88.5975 86.3322 85.7759C77.4354 91.5026 73.6947 114.47 73.388 116.442Z" fill="#2A2C39"/>
<path d="M77.7338 96.3494L77.5714 122.707L55.6095 122.121L56.9195 93.0015L77.7338 96.3494Z" fill="#F3A195"/>
<path d="M77.6859 104.134L77.6564 108.931C77.6564 108.931 67.072 106.494 64.7896 99.1016C64.7896 99.1016 77.7386 95.5604 77.6859 104.134Z" fill="#2A2C39"/>
<path d="M72.4059 49.9282C72.4059 49.9282 76.5949 44.8416 83.7756 49.9282C90.9566 55.0146 85.1221 67.7309 85.1221 67.7309L72.4059 49.9282Z" fill="#2A2C39"/>
<path d="M84.6996 68.033L71.9827 50.23C71.8448 50.0383 71.8548 49.7784 72.003 49.5966C72.0477 49.5438 76.5886 44.2026 84.0761 49.5028C91.5227 54.779 85.8409 67.4112 85.5949 67.9474C85.5178 68.1147 85.3555 68.2297 85.1706 68.2479C85.1544 68.2489 85.1382 68.2501 85.1218 68.2501C84.9552 68.2503 84.7966 68.17 84.6996 68.033ZM73.0773 49.9744L85.0001 66.6644C86.1131 63.7907 89.1794 54.3934 83.4751 50.352C81.1722 48.7216 79.2082 48.1811 77.6182 48.1811C75.226 48.1811 73.6742 49.4005 73.0773 49.9744Z" fill="#2A2C39"/>
<path d="M334.932 48.5385C334.932 48.5385 351.872 20.2304 326.579 10.9328C301.27 1.62925 285.224 51.4882 302.405 61.9984C317.576 71.2787 334.932 48.5385 334.932 48.5385Z" fill="#DE7856"/>
<path d="M304.171 47.1093C304.401 47.1093 304.61 46.958 304.673 46.7266C304.724 46.5426 305.909 42.1746 306.097 38.0428C306.365 32.0713 300.583 30.7431 300.524 30.731C300.248 30.6741 299.968 30.8477 299.907 31.127C299.846 31.4074 300.022 31.6845 300.303 31.7464C300.506 31.792 305.286 32.9101 305.057 37.9961C304.876 42.009 303.682 46.4077 303.67 46.4522C303.595 46.7295 303.757 47.0148 304.033 47.091C304.08 47.1032 304.127 47.1093 304.171 47.1093Z" fill="#2A2C39"/>
<path d="M300.932 39.3528C300.733 40.4989 299.94 41.3185 299.161 41.1836C298.382 41.0487 297.911 40.0103 298.109 38.8642C298.308 37.7181 299.101 36.8987 299.88 37.0336C300.659 37.1686 301.13 38.2068 300.932 39.3528Z" fill="#2A2C39"/>
<path d="M316.986 42.1328C316.788 43.2788 315.995 44.0985 315.216 43.9636C314.437 43.8287 313.966 42.79 314.164 41.644C314.363 40.4979 315.155 39.6785 315.935 39.8134C316.714 39.9484 317.185 40.9869 316.986 42.1328Z" fill="#2A2C39"/>
<path d="M319.705 36.6634C319.851 36.6634 319.997 36.6015 320.099 36.4818C320.285 36.2643 320.261 35.9365 320.044 35.7486C316.699 32.8831 313.426 34.4652 313.29 34.5323C313.034 34.66 312.93 34.9709 313.058 35.2277C313.186 35.4858 313.491 35.5883 313.755 35.4634C313.866 35.4065 316.561 34.1271 319.366 36.5387C319.465 36.6218 319.585 36.6634 319.705 36.6634Z" fill="#2A2C39"/>
<path d="M5.95626 213.892C11.9814 220.775 20.8438 225.767 20.932 225.767L15.1045 245.977C15.1045 245.977 36.7654 266.12 64.2536 261.986C91.7419 257.873 87.2119 242.612 125.959 240.962L108.125 152.406C108.125 152.406 168.269 130.614 183.926 77.8359C183.926 77.8359 154.987 77.3082 151.293 61.959C151.293 61.959 144.827 108.293 81.758 114.472C26.3638 119.904 16.446 149.503 2.54792 194.035C2.04226 195.684 1.51425 197.356 0.986585 199.049C-0.618924 204.238 2.06391 209.45 5.95626 213.892Z" fill="#EA5D01"/>
<path d="M20.9352 226.29C21.1607 226.29 21.3698 226.142 21.4346 225.915C24.0912 216.699 30.3517 174.868 30.415 174.447C30.4575 174.162 30.2623 173.897 29.9782 173.856C29.6798 173.811 29.4297 174.01 29.3873 174.292C29.3244 174.714 23.0715 216.477 20.4356 225.626C20.3566 225.903 20.5149 226.191 20.791 226.27C20.8397 226.284 20.8885 226.29 20.9352 226.29Z" fill="#2A2C39"/>
<path d="M54.545 46.4426C54.545 46.4426 71.0894 40.5817 81.9784 56.9008C88.435 66.5775 89.8221 75.4979 89.8221 75.4979C89.8221 75.4979 93.4521 78.663 93.7054 79.3656C94.1602 80.6273 90.8764 83.6156 90.8764 83.6156C90.8764 83.6156 91.9936 96.7796 89.0461 101.282C87.0244 104.37 78.7801 108.661 58.7677 95.438C38.7556 82.2141 32.0019 56.705 54.545 46.4426Z" fill="#F3A195"/>
<path d="M47.5055 86.1452C47.5055 86.1452 77.1899 73.2994 79.877 51.9116C79.877 51.9116 62.2986 31.9606 42.7906 50.1681C28.5266 63.481 47.5055 86.1452 47.5055 86.1452Z" fill="#2A2C39"/>
<path d="M47.1078 86.4796C46.9147 86.249 27.9777 63.2811 42.4348 49.7884C48.3058 44.3085 54.5505 41.703 61.1405 42.0107C72.1999 42.551 79.9412 51.1998 80.2661 51.5686C80.3657 51.6801 80.4106 51.8285 80.3923 51.9767C77.6996 73.4104 48.0117 86.4927 47.7129 86.6229C47.646 86.6513 47.5749 86.6655 47.5058 86.6655C47.3557 86.6655 47.2092 86.6003 47.1078 86.4796ZM61.0795 43.0485C54.8613 42.7388 48.7996 45.2691 43.1457 50.548C30.2869 62.5491 45.5014 82.7795 47.6581 85.5058C51.0148 83.9605 76.69 71.5279 79.3298 52.0853C78.1807 50.8669 70.8638 43.5226 61.0795 43.0485Z" fill="#2A2C39"/>
<path d="M27.6803 113.072C27.6803 113.072 24.3949 113.303 22.6387 115.837C14.6403 105.202 14.9039 88.6816 38.683 69.9878L56.9196 93.0018C56.9196 93.0018 74.148 119.333 54.7784 127.006C46.9197 130.12 35.1509 127.325 27.0365 120.468C26.7995 118.235 26.7752 115.385 27.6803 113.072Z" fill="#2A2C39"/>
<path d="M26.7004 120.865C26.5968 120.779 26.532 120.656 26.5179 120.523C26.2375 117.857 26.3695 115.578 26.9077 113.729C25.8903 113.962 24.1456 114.576 23.0655 116.134C22.9722 116.271 22.8157 116.355 22.6492 116.358C22.4928 116.355 22.3243 116.284 22.2227 116.15C17.4079 109.748 9.34161 92.3923 38.3614 69.5787C38.5826 69.4051 38.9095 69.4394 39.0904 69.665L57.3553 92.7174C57.7573 93.3326 67.1739 107.91 63.7623 118.668C62.4786 122.719 59.52 125.687 54.969 127.489C52.727 128.378 50.1887 128.803 47.5121 128.803C40.5708 128.803 32.7054 125.94 26.7004 120.865ZM22.6552 114.977C24.5783 112.794 27.5087 112.563 27.643 112.554C27.8176 112.534 27.9943 112.621 28.0978 112.765C28.2034 112.908 28.2279 113.096 28.1628 113.262C27.4763 115.018 27.2592 117.415 27.5314 120.205C35.5692 126.904 46.9149 129.56 54.5872 126.522C58.8314 124.841 61.5851 122.093 62.7711 118.355C66.0347 108.069 56.5814 93.433 56.5125 93.3245L38.5967 70.7178C11.5732 92.1744 18.0372 108.448 22.6552 114.977Z" fill="#2A2C39"/>
<path d="M88.7142 88.0403C88.9864 88.0403 89.1611 88.0301 89.1936 88.0281C89.48 88.0108 89.6973 87.7641 89.679 87.4779C89.6626 87.1915 89.413 86.9691 89.1305 86.9905C88.1782 87.0462 85.4933 86.9306 84.4985 85.7305C84.3114 85.5091 83.9825 85.4827 83.7672 85.6624C83.546 85.8453 83.5157 86.173 83.6983 86.3946C84.9288 87.8799 87.6135 88.0403 88.7142 88.0403Z" fill="#2A2C39"/>
<path d="M82.2605 74.7557C82.605 75.8666 83.4968 76.5771 84.2523 76.3426C85.0076 76.1083 85.3405 75.0178 84.9959 73.907C84.6512 72.7963 83.7594 72.0856 83.0041 72.3201C82.2485 72.5546 81.9156 73.6451 82.2605 74.7557Z" fill="#2A2C39"/>
<path d="M78.7917 69.6871C78.9341 69.6871 79.0762 69.6293 79.1777 69.5144C81.6531 66.7649 84.4862 67.6858 84.6059 67.7242C84.8781 67.8197 85.1706 67.6715 85.2659 67.4013C85.3574 67.1302 85.2153 66.836 84.9452 66.7413C84.801 66.6936 81.3547 65.54 78.4059 68.8199C78.2131 69.0331 78.2315 69.3621 78.4447 69.5539C78.5443 69.6435 78.6681 69.6871 78.7917 69.6871Z" fill="#2A2C39"/>
<path d="M329.865 31.2385C329.865 31.2385 308.519 28.4878 302.022 22.1292L298.966 28.0466C298.966 28.0466 297.939 8.93366 313.522 6.50271C329.105 4.07142 342.324 13.948 342.172 22.3049C342.172 22.3049 355.848 35.524 341.109 47.8314L335.335 52.0859C335.335 52.0859 325.749 71.3628 305.584 67.1584C289.224 63.7471 295.31 43.4956 295.31 43.4956C295.31 43.4956 309.226 43.4956 323.818 52.2495C323.818 52.2492 326.523 34.8546 329.865 31.2385Z" fill="#2A2C39"/>
<path d="M343.444 50.6932C340.545 54.1699 335.769 54.9657 332.776 52.4706C329.784 49.9754 329.709 45.1341 332.608 41.6572C335.507 38.1803 340.283 37.3845 343.275 39.8799C346.268 42.3752 346.343 47.2166 343.444 50.6932Z" fill="#DE7856"/>
<path d="M336.741 47.5133C336.881 47.5133 337.021 47.4565 337.125 47.3444C337.318 47.1323 337.303 46.8034 337.092 46.6094C336.881 46.4167 336.778 46.118 336.802 45.7696C336.83 45.3758 337.013 44.9767 337.318 44.6447C337.659 44.27 338.12 44.0353 338.55 44.0162C338.743 44.005 339.027 44.0394 339.255 44.2465C339.464 44.4412 339.791 44.4293 339.99 44.2151C340.183 44.0038 340.169 43.6748 339.958 43.4809C339.578 43.1326 339.056 42.9641 338.506 42.9773C337.795 43.0088 337.082 43.3601 336.55 43.9431C336.089 44.4455 335.809 45.069 335.766 45.6954C335.717 46.3667 335.939 46.9638 336.39 47.377C336.489 47.4686 336.615 47.5133 336.741 47.5133Z" fill="#2A2C39"/>
<path d="M309.498 48.4854C310.08 48.7539 309.518 54.0639 306.659 53.9241C303.8 53.7844 302.998 49.7853 302.999 49.1853C303 48.5855 308.199 47.8858 309.498 48.4854Z" fill="white"/>
<path d="M306.635 54.443C303.292 54.2804 302.478 49.8137 302.479 49.1854C302.479 49.0157 302.546 48.7701 302.865 48.5658C303.844 47.9394 308.334 47.3749 309.715 48.0134C310.609 48.4258 310.069 50.7508 310.006 51.015C309.476 53.1756 308.271 54.4469 306.767 54.4469C306.722 54.447 306.677 54.446 306.635 54.443ZM303.538 49.3783C303.657 50.2472 304.425 53.2947 306.685 53.4052C307.313 53.4175 307.837 53.1291 308.286 52.4679C309.106 51.2526 309.269 49.4189 309.155 48.91C308.018 48.5486 304.381 48.9864 303.538 49.3783Z" fill="#2A2C39"/>
<path d="M347.019 24.1922C347.189 24.1922 347.358 24.1076 347.457 23.9524C347.612 23.7107 347.54 23.3888 347.299 23.2346C345.851 22.3073 344.57 21.8699 343.424 21.9205C343.93 20.9744 344.23 19.7814 343.777 18.4662C343.684 18.1933 343.377 18.0521 343.117 18.1435C342.845 18.2368 342.701 18.5323 342.794 18.8031C343.29 20.2482 342.526 21.5692 341.842 22.3916C341.135 22.8261 340.839 23.408 340.823 23.4394C340.715 23.6558 340.77 23.919 340.957 24.0732C341.144 24.2284 341.414 24.2326 341.605 24.0854C341.649 24.0498 342.062 23.73 342.529 23.1967C342.652 23.134 342.793 23.079 342.949 23.0374C343.924 22.7814 345.236 23.1471 346.738 24.1097C346.826 24.1656 346.923 24.1922 347.019 24.1922Z" fill="#2A2C39"/>
<path d="M323.533 31.809C328.343 31.809 331.928 31.0597 332.017 31.0404C332.297 30.9795 332.476 30.7032 332.415 30.423C332.354 30.1428 332.07 29.9682 331.798 30.025C331.579 30.0696 309.871 34.5962 302.01 20.8947C301.868 20.6448 301.549 20.5606 301.302 20.7028C301.052 20.8459 300.967 21.1638 301.109 21.4124C306.08 30.0766 316.22 31.809 323.533 31.809Z" fill="#2A2C39"/>
<path d="M331.457 75.7188C331.457 75.7188 322.171 82.164 312.216 83.4035C312.216 83.4035 315.527 90.8403 314.659 97.6576C314.659 97.6576 336.279 95.2577 341.199 84.643L331.457 75.7188Z" fill="white"/>
<path d="M314.291 98.0224C314.177 97.9088 314.124 97.7502 314.144 97.5918C314.983 91.0031 311.772 83.6883 311.74 83.6151C311.673 83.465 311.681 83.2912 311.762 83.148C311.844 83.0051 311.988 82.9084 312.15 82.8881C321.859 81.6789 331.069 75.3551 331.16 75.2908C331.357 75.1528 331.627 75.169 331.808 75.3345L341.55 84.2587C341.716 84.4119 341.765 84.6558 341.669 84.8609C336.684 95.6179 315.613 98.0753 314.717 98.1747C314.699 98.1767 314.678 98.1778 314.66 98.1778C314.522 98.1779 314.388 98.1218 314.291 98.0224ZM331.406 76.3773C329.66 77.5197 321.591 82.548 312.954 83.8273C313.708 85.7169 315.751 91.4578 315.247 97.0568C318.809 96.5583 336.022 93.7081 340.561 84.7644L331.406 76.3773Z" fill="#2A2C39"/>
<path d="M306.659 78.1982C306.659 78.1982 306.719 83.5281 312.216 83.404C312.216 83.404 306.221 89.9732 306.221 97.6581C306.221 97.6581 297.481 93.072 297.481 83.5279L306.659 78.1982Z" fill="white"/>
<path d="M305.979 98.1183C305.889 98.0715 296.96 93.2738 296.96 83.528C296.96 83.3433 297.059 83.1717 297.218 83.0783L306.397 77.7487C306.559 77.6551 306.754 77.6551 306.917 77.7465C307.077 77.8379 307.177 78.0076 307.179 78.1921C307.179 78.2136 307.219 80.3115 308.641 81.6873C309.5 82.5168 310.734 82.9038 312.203 82.8845C312.394 82.8671 312.601 82.9991 312.688 83.1891C312.773 83.3791 312.739 83.6013 312.599 83.7545C312.54 83.8184 306.74 90.2602 306.74 97.6583C306.74 97.8401 306.645 98.0084 306.488 98.1029C306.407 98.1527 306.313 98.1781 306.22 98.1781C306.137 98.1781 306.054 98.1589 305.979 98.1183ZM307.918 82.4345C306.797 81.3489 306.381 79.9366 306.229 79.0491L298.002 83.8256C298.15 91.1355 303.694 95.4223 305.727 96.7503C306.066 90.8459 309.606 85.8013 311.139 83.8773C309.839 83.7299 308.759 83.2468 307.918 82.4345Z" fill="#2A2C39"/>
<path d="M297.48 214.475C297.762 214.475 297.994 214.25 298 213.968C300.047 130.182 312.589 83.9992 312.717 83.5435C312.792 83.2662 312.632 82.9799 312.353 82.9038C312.067 82.8225 311.791 82.991 311.714 83.2652C311.588 83.7231 299.011 130.013 296.96 213.941C296.954 214.229 297.179 214.467 297.468 214.475C297.472 214.475 297.476 214.475 297.48 214.475Z" fill="#2A2C39"/>
<path d="M422.676 70.2305C422.676 70.2305 411.795 107.172 389.3 134.081C387.015 136.814 382.988 137.294 380.098 135.212L336.279 103.646C336.279 103.646 363.27 76.1706 369.385 45.2446L422.676 70.2305Z" fill="white"/>
<path d="M379.793 135.633L335.973 104.067C335.851 103.978 335.772 103.84 335.76 103.689C335.748 103.539 335.801 103.39 335.906 103.281C336.176 103.008 362.861 75.5567 368.876 45.1437C368.906 44.9867 369.008 44.8526 369.15 44.7803C369.294 44.7094 369.459 44.7053 369.607 44.7733L422.897 69.759C423.129 69.8685 423.248 70.1306 423.175 70.3771C423.066 70.7468 412.006 107.73 389.697 134.414C388.27 136.123 386.19 137.016 384.089 137.016C382.594 137.016 381.087 136.564 379.793 135.633ZM369.763 45.996C363.878 74.3485 340.492 99.9446 337.066 103.572L380.402 134.79C383.067 136.711 386.803 136.256 388.901 133.748C409.773 108.778 420.748 74.7048 422.048 70.5092L369.763 45.996Z" fill="#2A2C39"/>
<path d="M386.956 135.874C386.956 135.874 380.753 137.452 381.975 127.543L338.536 95.9141C338.536 95.9141 335.987 96.9762 335.338 100.43C334.832 103.122 336.015 105.849 338.126 107.595C347.4 115.266 378.932 141.615 386.956 135.874Z" fill="#2A2C39"/>
<path d="M169.84 5.08649C169.864 5.08649 169.888 5.08428 169.913 5.08121C170.197 5.03959 170.396 4.77661 170.353 4.49249L169.77 0.445115C169.73 0.160817 169.468 -0.0320693 169.184 0.00442726C168.899 0.0460402 168.7 0.309193 168.743 0.593491L169.326 4.64086C169.362 4.8994 169.584 5.08649 169.84 5.08649Z" fill="#2A2C39"/>
<path d="M182.181 5.94706C182.372 5.94706 182.554 5.84252 182.646 5.65969L184.402 2.1538C184.53 1.89782 184.427 1.58504 184.171 1.45628C183.913 1.33007 183.6 1.42984 183.472 1.68856L181.716 5.19479C181.588 5.45061 181.691 5.76322 181.947 5.89249C182.022 5.92984 182.101 5.94706 182.181 5.94706Z" fill="#2A2C39"/>
<path d="M161.704 12.118C161.867 12.118 162.025 12.043 162.127 11.9006C162.293 11.6673 162.241 11.3424 162.007 11.1747L157.69 8.08976C157.458 7.92314 157.133 7.97413 156.964 8.21051C156.798 8.44415 156.851 8.76921 157.084 8.93652L161.402 12.0212C161.493 12.0865 161.599 12.118 161.704 12.118Z" fill="#2A2C39"/>
<path d="M408.469 83.9243C408.65 83.9243 408.825 83.83 408.921 83.6613C409.063 83.4115 408.975 83.0939 408.726 82.9525L370.159 61.0619C369.911 60.9168 369.594 61.0061 369.451 61.2568C369.31 61.5065 369.397 61.8242 369.647 61.9655L408.212 83.8564C408.293 83.903 408.382 83.9243 408.469 83.9243Z" fill="#2A2C39"/>
<path d="M402.868 95.6315C403.048 95.6315 403.224 95.537 403.32 95.3683C403.462 95.1185 403.375 94.8008 403.125 94.6596L364.559 72.7689C364.309 72.6238 363.996 72.7132 363.85 72.964C363.71 73.2139 363.797 73.5314 364.047 73.6728L402.611 95.5633C402.692 95.61 402.78 95.6315 402.868 95.6315Z" fill="#2A2C39"/>
<path d="M396.06 106.577C396.24 106.577 396.415 106.483 396.512 106.314C396.653 106.064 396.565 105.746 396.316 105.605L357.749 83.7135C357.501 83.5673 357.186 83.6587 357.04 83.9086C356.9 84.1584 356.987 84.476 357.237 84.6174L395.804 106.509C395.885 106.556 395.972 106.577 396.06 106.577Z" fill="#2A2C39"/>
<path d="M365.28 103.538C364.202 106.39 365.474 109.512 368.12 110.511C370.766 111.511 373.784 110.01 374.862 107.159C375.939 104.308 374.668 101.186 372.022 100.186C369.376 99.1864 366.357 100.687 365.28 103.538Z" fill="#EA5D01"/>
<path d="M390.194 123.469C389.913 123.074 388.636 121.226 387.641 119.054C386.49 119.909 384.977 120.072 383.287 119.48C380.476 118.5 379.059 116.903 378.529 115.295C377.751 115.412 376.734 115.263 375.538 114.333C375.31 114.157 375.27 113.83 375.446 113.604C375.621 113.374 375.948 113.335 376.175 113.512C377.03 114.179 377.745 114.341 378.308 114.274C378.237 113.638 378.292 113.022 378.44 112.465C378.811 111.065 379.705 110.16 380.578 110.327C381.039 110.412 381.358 110.766 381.455 111.298C381.648 112.354 380.942 114.091 379.618 114.895C379.581 114.917 379.544 114.939 379.504 114.961C379.94 116.308 381.171 117.641 383.628 118.499C385.086 119.007 386.285 118.868 387.194 118.08C387.202 118.074 387.211 118.067 387.219 118.06C386.346 115.835 385.941 113.456 387.261 112.028C388.098 111.123 388.766 111.43 389.014 111.606C390.096 112.36 390.115 115.249 389.052 117.329C388.874 117.68 388.671 117.993 388.449 118.271C389.251 120.116 390.354 121.898 391.043 122.868C391.209 123.103 391.152 123.427 390.919 123.593C390.827 123.657 390.722 123.689 390.618 123.689C390.456 123.689 390.295 123.613 390.194 123.469ZM388.025 112.733C387.168 113.661 387.371 115.343 387.99 117.112C388.752 115.827 388.906 114.142 388.721 113.173C388.618 112.633 388.445 112.465 388.411 112.452C388.407 112.452 388.279 112.457 388.025 112.733ZM379.445 112.732C379.352 113.084 379.303 113.458 379.313 113.842C379.457 113.728 379.581 113.605 379.681 113.489C380.475 112.575 380.54 111.497 380.387 111.349C380.383 111.349 380.377 111.348 380.371 111.348C380.196 111.348 379.693 111.797 379.445 112.732Z" fill="#2A2C39"/>
<path d="M264.567 156.951C264.827 156.951 265.053 156.756 265.083 156.491L269.447 118.933C269.482 118.647 269.277 118.389 268.992 118.356C268.722 118.326 268.448 118.527 268.416 118.813L264.051 156.371C264.017 156.657 264.222 156.914 264.506 156.948C264.527 156.95 264.547 156.951 264.567 156.951Z" fill="#2A2C39"/>
<path d="M381.04 163.9C381.233 163.9 381.418 163.792 381.507 163.607C381.633 163.35 381.525 163.039 381.267 162.913C359.989 152.533 350.371 138.669 350.276 138.53C350.116 138.292 349.791 138.232 349.555 138.393C349.317 138.555 349.257 138.879 349.419 139.115C349.514 139.256 359.289 153.347 380.813 163.847C380.886 163.882 380.963 163.9 381.04 163.9Z" fill="#2A2C39"/>
<path d="M401.925 139.343C401.962 139.343 402.001 139.339 402.039 139.329C402.32 139.267 402.495 138.987 402.431 138.708L398.653 122.081C398.588 121.8 398.304 121.626 398.029 121.689C397.749 121.752 397.575 122.031 397.638 122.311L401.418 138.938C401.473 139.179 401.687 139.343 401.925 139.343Z" fill="#2A2C39"/>
<path d="M49.3883 132.24C51.478 132.24 53.6246 131.911 55.7854 131.141C60.31 129.53 63.36 126.763 64.8506 122.918C68.2906 114.046 62.3202 102.639 62.0645 102.157C61.9283 101.903 61.6097 101.81 61.3617 101.942C61.1078 102.077 61.0124 102.392 61.1465 102.645C61.2075 102.758 67.1493 114.121 63.88 122.545C62.503 126.094 59.6621 128.657 55.436 130.163C41.2877 135.208 27.5595 120.271 27.4216 120.12C27.2266 119.909 26.8994 119.89 26.6864 120.082C26.4733 120.275 26.4571 120.603 26.6499 120.816C26.7716 120.95 37.1346 132.24 49.3883 132.24Z" fill="#2A2C39"/>
<path d="M22.6388 116.357C22.785 116.357 22.9313 116.295 23.0348 116.174C23.2217 115.955 23.1931 115.627 22.976 115.441C22.5029 115.039 11.49 105.401 19.1988 88.2748C26.8895 71.1937 42.6461 69.6984 42.8046 69.6849C43.0909 69.6615 43.3039 69.4107 43.2797 69.1245C43.2553 68.8382 43.0055 68.625 42.7191 68.6494C42.5506 68.6635 38.5273 69.021 33.473 71.5655C28.8163 73.9112 22.3972 78.6397 18.2524 87.8483C10.2105 105.708 22.1821 116.131 22.3039 116.234C22.4014 116.316 22.5191 116.357 22.6388 116.357Z" fill="#2A2C39"/>
<path d="M52.6051 84.0932C52.6457 84.0932 52.6863 84.0881 52.727 84.079C67.9253 80.4093 74.641 71.8578 77.6 65.3288C80.8067 58.2507 80.4124 52.1319 80.3945 51.8752C80.374 51.5887 80.1221 51.3967 79.8401 51.3926C79.5536 51.413 79.3382 51.6617 79.3585 51.948C79.3627 52.0091 79.7463 58.1005 76.6333 64.9439C73.7659 71.2445 67.2491 79.5037 52.4833 83.0679C52.2029 83.1358 52.0326 83.416 52.0994 83.6953C52.1564 83.9339 52.3694 84.0932 52.6051 84.0932Z" fill="#2A2C39"/>
<path d="M49.2329 94.43C53.011 96.9239 57.8138 96.3092 59.96 93.0576C62.1061 89.8058 60.7834 85.1484 57.0051 82.6546C53.2269 80.1608 48.4242 80.7752 46.2779 84.0268C44.1316 87.2787 45.4546 91.9361 49.2329 94.43Z" fill="#F3A195"/>
<path d="M54.5848 89.4752C54.7615 89.4752 54.9342 89.385 55.0316 89.2213C55.6529 88.1786 55.1391 86.7235 53.8883 85.9782C52.6394 85.2339 51.1142 85.4776 50.4927 86.5183C50.3464 86.7651 50.4279 87.084 50.6737 87.231C50.9176 87.3753 51.2404 87.298 51.3864 87.0504C51.7094 86.5113 52.6112 86.4281 53.3565 86.8718C54.1018 87.3165 54.4613 88.148 54.1383 88.6893C53.9921 88.9361 54.0733 89.255 54.3189 89.4022C54.4021 89.452 54.4935 89.4752 54.5848 89.4752Z" fill="#2A2C39"/>
<path d="M180.172 83.1524C180.454 83.1524 180.686 82.9267 180.692 82.6436C180.698 82.3563 180.471 82.1185 180.183 82.1125C179.975 82.1083 159.373 81.5329 151.719 69.7054C151.563 69.4637 151.24 69.3977 151 69.5512C150.759 69.7075 150.69 70.0293 150.846 70.2701C158.803 82.5633 179.293 83.1339 180.162 83.1524C180.164 83.1524 180.168 83.1524 180.172 83.1524Z" fill="white"/>
<path d="M55.1314 252.931C55.2613 252.931 55.3913 252.93 55.5212 252.93C69.2109 252.864 82.2545 249.293 88.7548 243.833C101.35 233.254 119.58 234.443 119.763 234.461C120.094 234.471 120.299 234.266 120.319 233.98C120.341 233.694 120.126 233.445 119.84 233.424C119.649 233.409 101.011 232.179 88.0846 243.037C75.3537 253.731 36.0745 256.593 21.3191 240.502C21.1198 240.289 20.7928 240.277 20.5837 240.47C20.3728 240.664 20.3583 240.993 20.5513 241.204C27.3951 248.665 39.9836 252.931 55.1314 252.931Z" fill="white"/>
<path d="M297.48 277C297.764 277 297.996 276.772 298 276.487C298 276.435 298.075 271.159 298 264.797C297.923 258.05 289.062 255.655 288.685 255.556C288.398 255.475 288.124 255.651 288.049 255.927C287.978 256.205 288.143 256.489 288.421 256.562C288.506 256.584 296.893 258.856 296.96 264.809C297.035 271.157 296.96 276.42 296.96 276.472C296.956 276.759 297.186 276.996 297.472 277C297.476 277 297.478 277 297.48 277Z" fill="white"/>
<path d="M0.51965 277H376.776C377.062 277 377.295 276.767 377.295 276.48C377.295 276.192 377.062 275.96 376.776 275.96H0.51965C0.233475 275.96 0 276.193 0 276.48C0 276.767 0.233475 277 0.51965 277Z" fill="#2A2C39"/>
<path d="M155.147 122.708C155.147 122.708 141.555 122.634 138.778 135.874C138.778 135.874 146.45 131.729 155.147 122.708Z" fill="#2A2C39"/>
<path d="M5.95626 213.892C8.48544 205.272 4.52709 197.289 2.54775 194.034C2.04208 195.684 1.51408 197.355 0.98641 199.048C-0.61893 204.238 2.06391 209.45 5.95626 213.892Z" fill="#2A2C39"/>
<path d="M380.447 57.127C377.786 62.8206 375.521 67.6643 378.796 68.7164C379.924 69.0786 381.042 68.8502 382.135 68.2063C382.283 69.6353 382.893 70.6633 384.117 71.0566C385.624 71.5408 387.114 70.9943 388.547 69.7463C388.675 70.8733 389.132 71.6893 390.072 71.978C391.117 72.2987 392.175 71.9888 393.221 71.2034C393.457 72.0002 393.914 72.6009 394.71 72.8599C397.409 73.7384 400.008 70.8366 402.138 66.2808C404.267 61.7251 405.159 57.6417 402.422 56.3624C401.743 56.0452 401.075 56.0125 400.422 56.2083C400.409 54.7883 399.958 53.7122 398.852 53.1951C397.821 52.7133 396.781 52.956 395.756 53.7202C395.649 52.2057 395.052 51.0452 393.755 50.4386C392.591 49.8945 391.446 50.0639 390.333 50.7437C390.11 49.5505 389.538 48.6146 388.433 48.0982C385.118 46.5486 383.109 51.4337 380.447 57.127Z" fill="#DE7856"/>
<path d="M393.221 71.7228C393.332 71.7228 393.444 71.6872 393.54 71.6138C397.625 68.4521 400.792 56.8361 400.924 56.3427C400.999 56.0654 400.834 55.7801 400.558 55.7059C400.268 55.6329 399.995 55.7955 399.92 56.0726C399.888 56.1893 396.714 67.8429 392.902 70.7915C392.677 70.9673 392.634 71.2942 392.811 71.5206C392.912 71.6536 393.066 71.7228 393.221 71.7228Z" fill="#2A2C39"/>
<path d="M388.548 70.2658C388.68 70.2658 388.812 70.2162 388.913 70.1166C393.127 65.9638 396.135 54.3415 396.261 53.8491C396.332 53.5708 396.163 53.2877 395.885 53.2166C395.613 53.1424 395.325 53.313 395.254 53.5913C395.223 53.709 392.191 65.4256 388.183 69.3754C387.979 69.5776 387.975 69.9065 388.179 70.1104C388.28 70.2138 388.414 70.2658 388.548 70.2658Z" fill="#2A2C39"/>
<path d="M382.135 68.7254C382.246 68.7254 382.358 68.69 382.453 68.6158C385.76 66.0481 390.621 51.5239 390.826 50.9076C390.918 50.6344 390.77 50.3409 390.497 50.2495C390.221 50.1611 389.931 50.3064 389.839 50.5784C389.791 50.7266 384.874 65.4193 381.816 67.7955C381.588 67.9713 381.548 68.2981 381.724 68.5245C381.826 68.6564 381.98 68.7254 382.135 68.7254Z" fill="#2A2C39"/>
</svg>
